<?xml version="1.0" encoding="utf-8"?>
<!-- Generator: Adobe Illustrator 17.0.2, SVG Export Plug-In . SVG Version: 6.00 Build 0)  -->
<!DOCTYPE svg PUBLIC "-//W3C//DTD SVG 1.1//EN" "http://www.w3.org/Graphics/SVG/1.1/DTD/svg11.dtd">
<svg version="1.1" id="Layer_1" xmlns="http://www.w3.org/2000/svg" xmlns:xlink="http://www.w3.org/1999/xlink" x="0px" y="0px"
	 width="115.24px" height="47.739px" viewBox="0 0.001 115.24 47.739" enable-background="new 0 0.001 115.24 47.739"
	 xml:space="preserve">
<g>
	<g>
		<g>
			<path d="M0.776,8.903c10.372,7.763,12.611,21.542,12.44,33.709c-0.011,0.808,1.239,0.807,1.25,0
				c0.178-12.684-2.304-26.739-13.06-34.789C0.761,7.34,0.139,8.427,0.776,8.903L0.776,8.903z"/>
		</g>
	</g>
	<g>
		<g>
			<path d="M14.758,44.29c28.775-4.239,57.975-2.134,86.833,0.021c0.806,0.062,0.8-1.189,0-1.25
				c-28.983-2.166-58.268-4.234-87.166,0.022C13.63,43.202,13.97,44.406,14.758,44.29L14.758,44.29z"/>
		</g>
	</g>
	<g>
		<g>
			<path d="M101.716,44.114c-0.364-12.569,3.494-26.163,13.318-34.558c0.612-0.524-0.275-1.404-0.886-0.884
				c-10.058,8.596-14.058,22.567-13.683,35.442C100.49,44.918,101.74,44.92,101.716,44.114L101.716,44.114z"/>
		</g>
	</g>
	<g>
		<g>
			<path d="M1.034,8.056c3.062-3.779,7.525-5.994,12.261-6.839c0.793-0.142,0.456-1.346-0.332-1.205
				C8.043,0.89,3.33,3.247,0.15,7.172C-0.353,7.792,0.526,8.682,1.034,8.056L1.034,8.056z"/>
		</g>
	</g>
	<g>
		<g>
			<path d="M12.963,1.716c8.532,2.339,15.028,12.899,17.026,21.063c0.191,0.783,1.397,0.451,1.205-0.332
				C29.09,13.851,22.288,2.976,13.295,0.51C12.517,0.297,12.187,1.503,12.963,1.716L12.963,1.716z"/>
		</g>
	</g>
	<g>
		<g>
			<path d="M30.758,24.428c9.29-2.123,18.637-4.051,28.271-4.198c9.592-0.146,18.932,2.126,27.896,4.939
				c0.762,0.24,1.087-0.833,0.332-1.07c-9.176-2.88-18.457-4.935-28.229-4.979c-9.683-0.044-19.295,2.11-28.604,4.237
				C29.646,23.535,29.977,24.606,30.758,24.428L30.758,24.428z"/>
		</g>
	</g>
	<g>
		<g>
			<path d="M87.694,24.78c1.304-8.628,8.556-19.23,17.063-22.063c-0.11-0.402-0.223-0.803-0.332-1.205
				c-0.973,0.395-1.11,0.434-1.945,0.928c-0.691,0.41-0.064,1.491,0.631,1.079c0.549-0.267,1.098-0.535,1.646-0.802
				c0.727-0.295,0.449-1.465-0.332-1.205c-8.924,2.97-16.564,13.856-17.938,22.937C86.371,25.235,87.574,25.575,87.694,24.78
				L87.694,24.78z"/>
		</g>
	</g>
	<g>
		<g>
			<path d="M104.925,2.216c3.387,1.03,6.889,3.013,8.627,6.213c0.386,0.708,1.465,0.078,1.08-0.631
				c-1.896-3.485-5.684-5.665-9.375-6.787C104.484,0.776,104.156,1.982,104.925,2.216L104.925,2.216z"/>
		</g>
	</g>
	<g>
		<g>
			<path d="M22.758,7.6c22.977-7.882,48.457-8.759,71.019,0.992c0.73,0.316,1.369-0.76,0.631-1.079
				c-22.88-9.888-48.66-9.119-71.982-1.118C21.668,6.654,21.993,7.862,22.758,7.6L22.758,7.6z"/>
		</g>
	</g>
	<g>
		<g>
			<path d="M20.907,43.574c-0.489-0.229-0.945-0.048-1.154,0.452c-0.393,0.937,0.906,2.705,1.299,3.402
				c0.107,0.19,0.322,0.311,0.54,0.311c1.583-0.002,3.339,0.061,4.815-0.586c0.195-0.086,0.31-0.34,0.31-0.539c0-1.333,0-2.668,0-4
				c0-0.807-1.25-0.807-1.25,0c0,1.332,0,2.667,0,4c0.103-0.18,0.207-0.359,0.31-0.54c-1.239,0.543-2.859,0.413-4.185,0.415
				c0.18,0.104,0.36,0.205,0.54,0.31c-0.412-0.731-0.853-1.474-1.114-2.274c-0.17-0.521-0.362,0.309-0.741,0.131
				C21.001,44.994,21.637,43.917,20.907,43.574L20.907,43.574z"/>
		</g>
	</g>
	<g>
		<g>
			<path d="M89.466,43.614c0,1,0,2,0,3c0,0.285,0.193,0.519,0.459,0.603c1.375,0.437,2.732,0.521,4.166,0.522
				c0.203,0,0.453-0.115,0.541-0.311c0.531-1.185,0.584-2.533,0.584-3.814c0.002-0.807-1.248-0.807-1.25,0
				c0,1.039,0.02,2.221-0.414,3.185c0.181-0.104,0.359-0.206,0.539-0.31c-1.324-0.002-2.562-0.074-3.834-0.479
				c0.154,0.201,0.307,0.401,0.459,0.604c0-1,0-2,0-3C90.716,42.808,89.466,42.808,89.466,43.614L89.466,43.614z"/>
		</g>
	</g>
</g>
</svg>
