<?xml version="1.0" encoding="utf-8"?>
<!-- Generator: Adobe Illustrator 16.0.0, SVG Export Plug-In . SVG Version: 6.00 Build 0)  -->
<!DOCTYPE svg PUBLIC "-//W3C//DTD SVG 1.1//EN" "http://www.w3.org/Graphics/SVG/1.1/DTD/svg11.dtd">
<svg version="1.1" id="Layer_1" xmlns="http://www.w3.org/2000/svg" xmlns:xlink="http://www.w3.org/1999/xlink" x="0px" y="0px"
	 width="47.871px" height="16.648px" viewBox="0 0 47.871 16.648" enable-background="new 0 0 47.871 16.648" xml:space="preserve">
<g>
	<g>
		<g>
			<path d="M1.477,7.665c0.798-0.149,1.52-0.555,2.289-0.803c1.286-0.414,0.431,1.356,0.34,1.533
				C3.89,8.817,3.595,9.202,3.273,9.547C3.622,9.75,3.97,9.953,4.318,10.155C4.703,8.515,5.952,6.89,7.4,6.052
				C8.785,5.25,9.277,6.498,8.976,7.656C8.779,8.41,8.392,9.119,7.986,9.779c-0.424,0.688,0.658,1.315,1.079,0.631
				c0.92-1.494,2.601-5.578-0.513-5.822C5.943,4.385,3.645,7.556,3.113,9.823c-0.137,0.584,0.6,1.086,1.044,0.608
				c1.006-1.083,2.05-2.727,1.353-4.209C4.742,4.587,2.196,6.262,1.145,6.46C0.354,6.608,0.689,7.813,1.477,7.665L1.477,7.665z"/>
		</g>
	</g>
	<g>
		<g>
			<path d="M9.128,10.155c0.221-1.438,1.012-2.816,2.279-3.572c0.343-0.205,1.483-0.527,1.697,0.047
				c0.128,0.343-0.002,0.796-0.072,1.139c-0.326,1.614-0.246,3.066,1.831,2.721c0.794-0.132,0.456-1.336-0.332-1.205
				c-0.459,0.076-0.522,0.106-0.461-0.341c0.062-0.459,0.191-0.907,0.263-1.364c0.139-0.875,0.022-1.688-0.75-2.214
				c-1.019-0.696-2.595-0.137-3.438,0.566C8.978,6.904,8.155,8.317,7.923,9.823C7.802,10.611,9.006,10.95,9.128,10.155L9.128,10.155
				z"/>
		</g>
	</g>
	<g>
		<g>
			<path d="M14.697,10.512c2.68,0.024,3.224-2.543,4.409-4.391c0.437-0.681-0.646-1.307-1.079-0.631
				c-0.879,1.37-1.326,3.79-3.33,3.771C13.891,9.254,13.892,10.504,14.697,10.512L14.697,10.512z"/>
		</g>
	</g>
	<g>
		<g>
			<path d="M17.941,5.704c0.143,1.755-1.57,4.296,1.002,5.024c2.686,0.76,4.236-2.466,5.038-4.442
				c0.303-0.747-0.906-1.069-1.205-0.332c-0.571,1.408-1.606,3.922-3.5,3.568c-0.825-0.153-0.555-1.006-0.417-1.598
				c0.17-0.729,0.394-1.464,0.333-2.221C19.126,4.907,17.876,4.9,17.941,5.704L17.941,5.704z"/>
		</g>
	</g>
	<g>
		<g>
			<path d="M22.753,5.913c0.124,1.14-0.15,2.29,0.021,3.438c0.073,0.489,0.231,0.988,0.678,1.258
				c0.579,0.35,1.213-0.099,1.622-0.489c0.583-0.559-0.302-1.441-0.884-0.885c-0.101,0.097-0.218,0.219-0.341,0.255
				c0.236-0.069,0.3,0.217,0.21-0.068c-0.121-0.388-0.109-0.819-0.112-1.22c-0.005-0.753,0.138-1.539,0.056-2.288
				C23.917,5.121,22.666,5.112,22.753,5.913L22.753,5.913z"/>
		</g>
	</g>
	<g>
		<g>
			<path d="M25.157,10.113c1.761-0.752,3.06-2.664,4.093-4.199c0.452-0.671-0.632-1.295-1.079-0.631
				c-0.922,1.368-2.074,3.08-3.645,3.75C23.787,9.35,24.425,10.426,25.157,10.113L25.157,10.113z"/>
		</g>
	</g>
	<g>
		<g>
			<path d="M28.373,6.248c0.666,0.73,1.822,1.941,0.953,2.916c-1.008,1.131-2.843,0.782-3.833-0.14
				c-0.589-0.548-1.475,0.334-0.884,0.885c1.584,1.473,3.972,1.636,5.601,0.139c1.582-1.453,0.139-3.483-0.953-4.685
				C28.713,4.767,27.832,5.653,28.373,6.248L28.373,6.248z"/>
		</g>
	</g>
	<g>
		<g>
			<path d="M33.86,5.64c-0.275,1.931-0.472,5.143,2.381,4.872c0.795-0.075,0.803-1.326,0-1.25c-1.777,0.168-1.34-2.14-1.176-3.29
				C35.177,5.184,33.973,4.844,33.86,5.64L33.86,5.64z"/>
		</g>
	</g>
	<g>
		<g>
			<path d="M36.511,10.279c2.643-0.56,3.805-3.487,6.484-3.973c0.693-0.125,0.534-1.279-0.166-1.228
				c-1.656,0.122-4.802,1.827-3.584,3.983c1.834,3.247,6.179,1.182,8.208-0.618c0.604-0.536-0.283-1.417-0.884-0.885
				c-1.21,1.073-2.413,1.843-4.073,1.929c-1.354,0.069-2.741-1.083-1.658-2.322c0.493-0.564,1.277-0.784,1.99-0.837
				c-0.055-0.409-0.111-0.818-0.166-1.228c-2.722,0.493-3.904,3.426-6.484,3.973C35.391,9.241,35.725,10.446,36.511,10.279
				L36.511,10.279z"/>
		</g>
	</g>
	<g>
		<g>
			<path d="M35.859,1.25c0.806,0,0.806-1.25,0-1.25S35.053,1.25,35.859,1.25L35.859,1.25z"/>
		</g>
	</g>
	<g>
		<g>
			<path d="M28.031,11.186c3.006,0.042,5.568-2.077,6.862-4.676c0.358-0.719-0.72-1.353-1.079-0.631
				c-1.102,2.211-3.199,4.093-5.783,4.057C27.224,9.925,27.226,11.175,28.031,11.186L28.031,11.186z"/>
		</g>
	</g>
</g>
</svg>
