<?xml version="1.0" encoding="utf-8"?>
<!-- Generator: Adobe Illustrator 16.0.0, SVG Export Plug-In . SVG Version: 6.00 Build 0)  -->
<!DOCTYPE svg PUBLIC "-//W3C//DTD SVG 1.1//EN" "http://www.w3.org/Graphics/SVG/1.1/DTD/svg11.dtd">
<svg version="1.1" id="Layer_1" xmlns="http://www.w3.org/2000/svg" xmlns:xlink="http://www.w3.org/1999/xlink" x="0px" y="0px"
	 width="114.225px" height="12.978px" viewBox="0 0 114.225 12.978" enable-background="new 0 0 114.225 12.978"
	 xml:space="preserve">
<g>
	<g>
		<path d="M0.454,12.914C4.209,13.42,7.609,10.83,9.66,7.877c0.404-0.581-0.528-1.303-0.981-0.757
			c-1.408,1.694-2.136,3.989,0.342,5.075c3.176,1.391,6.185-1.795,7.389-4.317c0.287-0.6-0.498-1.337-0.981-0.757
			c-4.588,5.496,5.278,7.844,6.794,0.608c0.165-0.786-1.04-1.121-1.205-0.332c-0.313,1.494-0.743,2.601-2.077,3.519
			c-2.219,1.526-4.522-0.643-2.628-2.911c-0.327-0.252-0.654-0.505-0.981-0.757c-0.64,1.341-1.354,2.385-2.588,3.256
			c-1.466,1.035-6.223,1.165-3.18-2.499C9.235,7.751,8.908,7.499,8.581,7.246c-1.678,2.417-4.634,4.889-7.794,4.463
			C-0.001,11.603-0.342,12.807,0.454,12.914L0.454,12.914z"/>
	</g>
</g>
<g>
	<g>
		<path d="M21.454,7.914c1.988,0.532,3.988,0.699,5.731-0.563c-0.285-0.285-0.57-0.57-0.855-0.855
			c-2.547,3.407,0.517,7.749,4.355,5.105c0.659-0.454,0.035-1.538-0.631-1.079c-2.85,1.963-4.395-1.054-2.645-3.395
			c0.371-0.497-0.359-1.214-0.855-0.855c-1.495,1.082-3.082,0.888-4.769,0.437C21.006,6.5,20.676,7.706,21.454,7.914L21.454,7.914z"
			/>
	</g>
</g>
<g>
	<g>
		<path d="M30.686,11.601c3.618-2.18,6.883-5.553,7.537-9.874c0.058-0.379-0.159-0.812-0.603-0.791
			c-3.323,0.155-4.351,4.01-4.273,6.769c0.074,2.625,1.759,5.441,4.588,3.646c0.678-0.43,0.052-1.513-0.631-1.079
			c-2.234,1.418-2.723-1.513-2.714-3.17c0.01-1.86,0.751-4.809,3.03-4.915c-0.201-0.264-0.402-0.527-0.603-0.791
			c-0.609,4.017-3.597,7.099-6.963,9.126C29.365,10.937,29.993,12.018,30.686,11.601L30.686,11.601z"/>
	</g>
</g>
<g>
	<g>
		<path d="M29.37,3.187c0.806,0,0.806-1.25,0-1.25S28.564,3.187,29.37,3.187L29.37,3.187z"/>
	</g>
</g>
<g>
	<g>
		<path d="M37.436,11.601c2.484-1.561,4.644-3.787,7.685-4.165c0.776-0.096,0.829-1.246,0-1.25c-2.536-0.012-4.88,1.402-5.859,3.774
			c-0.979,2.371,1.603,2.805,3.27,2.393c2.389-0.59,3.915-4.265,4.782-6.224c0.463-1.046,2.23-4.458,0.999-5.51
			c-0.609-0.521-1.498,0.359-0.884,0.884c0.368,0.314-0.779,2.959-0.92,3.328c-0.62,1.62-1.445,3.178-2.439,4.597
			c-0.415,0.593-0.921,1.144-1.522,1.549c-0.598,0.403-2.366,0.766-2.164-0.402c0.352-2.036,2.941-3.148,4.738-3.139
			c0-0.417,0-0.833,0-1.25c-3.333,0.414-5.579,2.616-8.315,4.335C36.124,10.95,36.751,12.031,37.436,11.601L37.436,11.601z"/>
	</g>
</g>
<g>
	<g>
		<path d="M47.454,0.209c-6.34,2.356-2.181,13.036,3.916,12.228c0.787-0.104,0.797-1.355,0-1.25c-4.625,0.613-8.6-7.909-3.584-9.772
			C48.535,1.136,48.211-0.073,47.454,0.209L47.454,0.209z"/>
	</g>
</g>
<g>
	<g>
		<path d="M51.87,12.437c0.679-0.001,1.387,0.006,1.942-0.433c0.632-0.5-0.259-1.379-0.884-0.884
			c-0.169,0.134-0.808,0.066-1.058,0.067C51.064,11.188,51.064,12.438,51.87,12.437L51.87,12.437z"/>
	</g>
</g>
<g>
	<g>
		<path d="M65.87,6.078c-3.204-0.033-5.85,3.867-2.325,5.733c4.194,2.22,7.538-4.002,10.991-5.005
			c0.659-0.191,0.556-1.282-0.166-1.228c-1.846,0.139-4.195,0.896-4.35,3.1c-0.133,1.883,1.211,3.438,3.05,3.722
			c1.921,0.296,4.392-1.099,4.61-3.15c0.274-2.563-1.94-4.096-4.31-3.921c-0.799,0.059-0.805,1.309,0,1.25
			c1.567-0.115,3.036,0.555,3.1,2.297c0.065,1.768-2.332,2.557-3.713,2.184c-0.92-0.249-1.469-1.203-1.507-2.095
			c-0.069-1.608,1.92-2.045,3.121-2.135c-0.055-0.409-0.111-0.818-0.166-1.228c-2.297,0.667-3.94,2.573-5.78,3.991
			c-1.137,0.876-2.417,1.55-3.888,1.259c-1.26-0.25-1.738-1.368-1.154-2.429c0.486-0.883,1.58-1.103,2.488-1.094
			C66.677,7.336,66.676,6.086,65.87,6.078L65.87,6.078z"/>
	</g>
</g>
<g>
	<g>
		<path d="M73.954,6.305c2.547,0.822,4.989,1.014,7.481-0.063c-0.252-0.327-0.505-0.654-0.757-0.981
			c-2.268,1.97-2.218,5.486,0.843,6.565c3.254,1.146,6.513-2.828,5.951-5.821c-0.148-0.792-1.353-0.456-1.205,0.332
			c0.357,1.907-1.277,3.693-2.947,4.275c-3.25,1.132-3.568-2.895-1.758-4.467c0.582-0.506-0.159-1.24-0.757-0.981
			c-2.183,0.943-4.329,0.644-6.519-0.063C73.517,4.852,73.19,6.059,73.954,6.305L73.954,6.305z"/>
	</g>
</g>
<g>
	<g>
		<path d="M87.223,7.037c-0.018-0.054-0.035-0.107-0.052-0.161c-0.089-0.273-0.313-0.449-0.603-0.458
			c-0.011,0-0.022-0.001-0.034-0.001c-0.25-0.008-0.565,0.195-0.603,0.459c-0.308,2.16,0.136,4.638,2.821,4.593
			c3.467-0.058,5.41-4.639,8.869-4.64c0.806,0,0.806-1.25,0-1.25c-2.437,0.001-4.429,2.05-6.287,3.376
			c-1.17,0.836-2.747,1.899-3.999,0.658c-0.285-0.283-0.275-1.868-0.199-2.405c-0.201,0.153-0.401,0.306-0.603,0.459
			c0.012,0,0.023,0.001,0.034,0.001c-0.201-0.153-0.401-0.306-0.603-0.459C85.982,7.262,86,7.315,86.018,7.369
			C86.267,8.131,87.474,7.805,87.223,7.037L87.223,7.037z"/>
	</g>
</g>
<g>
	<g>
		<path d="M97.454,5.35c-2.225,0.546-5.73,2.41-4.458,5.274c1.191,2.681,4.561,1.634,6.315,0.27
			c0.636-0.494-0.256-1.372-0.884-0.884c-1.147,0.891-3.426,1.815-4.308,0.082c-1.002-1.969,2.424-3.232,3.666-3.538
			C98.569,6.363,98.237,5.158,97.454,5.35L97.454,5.35z"/>
	</g>
</g>
<g>
	<g>
		<path d="M99.186,11.101c2.517-1.679,4.921-3.65,6.44-6.31c0.669-1.172,1.903-5.223-0.833-4.753
			c-1.761,0.303-2.418,2.985-2.856,4.389c-0.659,2.109-0.807,4.555-1.712,6.569c-0.328,0.729,0.749,1.365,1.079,0.631
			c1.239-2.755,1.319-5.958,2.513-8.763c0.22-0.517,0.564-1.375,1.137-1.591c0.907-0.342-0.575,3.182-0.667,3.343
			c-1.293,2.264-3.603,3.986-5.732,5.407C97.888,10.467,98.513,11.55,99.186,11.101L99.186,11.101z"/>
	</g>
</g>
<g>
	<g>
		<path d="M100.91,12.127c0.577-1.159,1.373-2.178,2.251-3.124c0.519-0.559,1.115-1.021,1.778-1.396
			c1.531-0.865,1.603,1.006,1.778,1.939c0.434,2.298,2.573,2.797,4.653,2.89c0.806,0.036,0.803-1.214,0-1.25
			c-0.744-0.033-1.462-0.183-2.176-0.385c-1.706-0.482-1.078-1.832-1.352-2.964c-0.268-1.105-0.999-1.56-2.095-1.694
			c-2.463-0.3-5.005,3.52-5.917,5.353C99.473,12.215,100.551,12.849,100.91,12.127L100.91,12.127z"/>
	</g>
</g>
<g>
	<g>
		<path d="M111.37,12.437c0.417,0,0.833,0,1.25,0c0.806,0,0.806-1.25,0-1.25c-0.417,0-0.833,0-1.25,0
			C110.564,11.187,110.564,12.437,111.37,12.437L111.37,12.437z"/>
	</g>
</g>
<g>
	<g>
		<path d="M113.12,12.437c0.167,0,0.333,0,0.5,0c0.806,0,0.806-1.25,0-1.25c-0.167,0-0.333,0-0.5,0
			C112.314,11.187,112.314,12.437,113.12,12.437L113.12,12.437z"/>
	</g>
</g>
</svg>
