<?xml version="1.0" encoding="utf-8"?>
<!-- Generator: Adobe Illustrator 17.0.2, SVG Export Plug-In . SVG Version: 6.00 Build 0)  -->
<!DOCTYPE svg PUBLIC "-//W3C//DTD SVG 1.1//EN" "http://www.w3.org/Graphics/SVG/1.1/DTD/svg11.dtd">
<svg version="1.1" id="Layer_1" xmlns="http://www.w3.org/2000/svg" xmlns:xlink="http://www.w3.org/1999/xlink" x="0px" y="0px"
	 width="45.177px" height="45.344px" viewBox="0 0 45.177 45.344" enable-background="new 0 0 45.177 45.344" xml:space="preserve">
<g>
	<g>
		<path fill="#010101" d="M38.417,1.708c1.374-0.094,2.741,0.01,3.913,0.795c1.217,0.815,1.362,2.432,1.15,3.748
			c-0.127,0.788,1.077,1.126,1.205,0.332c0.271-1.683,0.096-3.312-1.082-4.617c-1.268-1.405-3.42-1.628-5.187-1.508
			C37.617,0.513,37.612,1.763,38.417,1.708L38.417,1.708z"/>
	</g>
</g>
<g>
	<g>
		<path fill="#010101" d="M1.375,6.5c0.013-1.362,0.09-2.907,1.09-3.944C3.473,1.511,5.291,1.511,6.625,1.5
			c0.806-0.006,0.806-1.256,0-1.25c-1.727,0.014-3.512,0.165-4.9,1.29c-1.418,1.148-1.584,3.283-1.6,4.96
			C0.117,7.307,1.367,7.306,1.375,6.5L1.375,6.5z"/>
	</g>
</g>
<g>
	<g>
		<path fill="#010101" d="M40,45c1.338,0.139,2.766,0.063,3.786-0.917c0.962-0.926,1.078-2.459,1.089-3.708
			c0.007-0.807-1.243-0.806-1.25,0c-0.008,0.951-0.042,2.081-0.724,2.823C42.204,43.959,40.92,43.846,40,43.75
			C39.198,43.667,39.206,44.918,40,45L40,45z"/>
	</g>
</g>
<g>
	<g>
		<path fill="#010101" d="M4.084,43.772c-1.818,0.534-2.56-1.88-2.584-3.272c-0.014-0.805-1.264-0.807-1.25,0
			c0.039,2.239,1.465,5.27,4.166,4.478C5.188,44.751,4.859,43.545,4.084,43.772L4.084,43.772z"/>
	</g>
</g>
<g>
	<g>
		<path fill="#010101" d="M4.5,45.125c3.044,0.06,6.081-0.187,9.125-0.125c3.368,0.067,6.449,0.753,9.791-0.022
			c0.785-0.182,0.452-1.387-0.332-1.205c-3.211,0.744-6.233,0.191-9.459-0.022c-3.028-0.2-6.091,0.184-9.125,0.125
			C3.693,43.859,3.695,45.109,4.5,45.125L4.5,45.125z"/>
	</g>
</g>
<g>
	<g>
		<path fill="#010101" d="M31.567,45.125c2.77,0,5.538,0,8.308,0c0.806,0,0.806-1.25,0-1.25c-2.77,0-5.538,0-8.308,0
			C30.762,43.875,30.762,45.125,31.567,45.125L31.567,45.125z"/>
	</g>
</g>
<g>
	<g>
		<path fill="#010101" d="M7,1.375C12,1.366,17,1.26,22,1.25c0.806-0.002,0.806-1.252,0-1.25C17,0.01,12,0.116,7,0.125
			C6.194,0.127,6.194,1.377,7,1.375L7,1.375z"/>
	</g>
</g>
<g>
	<g>
		<path fill="#010101" d="M22.25,1.25c5.169,0.027,10.331,0.348,15.5,0.375c0.807,0.004,0.806-1.246,0-1.25
			C32.581,0.348,27.419,0.027,22.25,0C21.444-0.004,21.444,1.246,22.25,1.25L22.25,1.25z"/>
	</g>
</g>
<g>
	<g>
		<path fill="#010101" d="M0.125,6.625c0.042,4.548,0.555,9.09,0,13.625c-0.098,0.799,1.153,0.789,1.25,0
			c0.555-4.535,0.042-9.077,0-13.625C1.368,5.819,0.118,5.818,0.125,6.625L0.125,6.625z"/>
	</g>
</g>
<g>
	<g>
		<path fill="#010101" d="M1.25,40.25c0.018-3.668,0.231-7.332,0.25-11c0.004-0.807-1.246-0.806-1.25,0
			c-0.019,3.668-0.232,7.332-0.25,11C-0.004,41.057,1.246,41.056,1.25,40.25L1.25,40.25z"/>
	</g>
</g>
<g>
	<g>
		<path fill="#010101" d="M1.5,29c0.009-2.834,0.116-5.666,0.125-8.5c0.002-0.807-1.248-0.806-1.25,0
			C0.366,23.334,0.259,26.166,0.25,29C0.248,29.807,1.498,29.806,1.5,29L1.5,29z"/>
	</g>
</g>
<g>
	<g>
		<path fill="#010101" d="M43.625,6.625c0,3.333,0,6.667,0,10c0,0.806,1.25,0.806,1.25,0c0-3.333,0-6.667,0-10
			C44.875,5.819,43.625,5.819,43.625,6.625L43.625,6.625z"/>
	</g>
</g>
<g>
	<g>
		<path fill="#010101" d="M43.625,16.875c0.454,4.074,0.267,8.16,0.25,12.25c-0.003,0.807,1.247,0.806,1.25,0
			c0.017-4.09,0.204-8.176-0.25-12.25C44.787,16.083,43.536,16.074,43.625,16.875L43.625,16.875z"/>
	</g>
</g>
<g>
	<g>
		<path fill="#010101" d="M43.75,29.375c0.321,3.585-0.091,7.162-0.125,10.75c-0.008,0.807,1.242,0.806,1.25,0
			c0.034-3.588,0.446-7.165,0.125-10.75C44.929,28.579,43.678,28.572,43.75,29.375L43.75,29.375z"/>
	</g>
</g>
<g>
	<g>
		<path fill="#010101" d="M31.708,43.791c-2.801,0.344-5.608-0.158-8.408,0.234c-0.795,0.111-0.456,1.315,0.332,1.205
			c2.685-0.377,5.387,0.141,8.076-0.189C32.497,44.944,32.507,43.693,31.708,43.791L31.708,43.791z"/>
	</g>
</g>
<g>
	<g>
		<path fill="#010101" d="M22.875,45.041c0.806,0,0.806-1.25,0-1.25S22.068,45.041,22.875,45.041L22.875,45.041z"/>
	</g>
</g>
<g>
	<g>
		<path fill="#010101" d="M23.208,45.041c0.806,0,0.806-1.25,0-1.25S22.401,45.041,23.208,45.041L23.208,45.041z"/>
	</g>
</g>
<g>
	<g>
		<path fill="#010101" d="M22.875,45.041c0.806,0,0.806-1.25,0-1.25S22.068,45.041,22.875,45.041L22.875,45.041z"/>
	</g>
</g>
<g>
	<g>
		<path fill="#010101" d="M22.875,45.208c0.806,0,0.806-1.25,0-1.25S22.068,45.208,22.875,45.208L22.875,45.208z"/>
	</g>
</g>
<g>
	<g>
		<g>
			<path fill="#010101" d="M4.458,12.716c2.54,0.342,4.84-1.41,6.228-3.407c0.273-0.393-0.357-0.881-0.664-0.512
				c-0.953,1.146-1.445,2.699,0.231,3.433c2.149,0.941,4.184-1.214,4.999-2.92c0.194-0.406-0.337-0.904-0.664-0.512
				c-3.104,3.718,3.571,5.306,4.596,0.411c0.112-0.532-0.704-0.758-0.815-0.225c-0.212,1.011-0.503,1.76-1.405,2.381
				c-1.501,1.032-3.059-0.435-1.778-1.969c-0.221-0.17-0.442-0.342-0.664-0.512c-0.433,0.907-0.916,1.613-1.751,2.203
				c-0.992,0.7-4.21,0.788-2.151-1.691c-0.223-0.172-0.444-0.342-0.665-0.513c-1.135,1.635-3.135,3.307-5.273,3.019
				C4.15,11.829,3.92,12.643,4.458,12.716L4.458,12.716z"/>
		</g>
		<g>
			<path fill="#010101" d="M18.664,9.333c1.345,0.36,2.698,0.473,3.877-0.381c-0.193-0.193-0.386-0.386-0.578-0.578
				c-1.723,2.305,0.35,5.242,2.946,3.453c0.446-0.307,0.024-1.04-0.427-0.73c-1.928,1.328-2.973-0.713-1.789-2.297
				c0.251-0.336-0.243-0.821-0.578-0.578c-1.011,0.732-2.085,0.601-3.226,0.296C18.361,8.376,18.138,9.192,18.664,9.333
				L18.664,9.333z"/>
		</g>
		<g>
			<path fill="#010101" d="M24.91,11.827c2.448-1.475,4.656-3.757,5.099-6.68c0.039-0.256-0.108-0.549-0.408-0.535
				c-2.248,0.105-2.943,2.713-2.891,4.579c0.05,1.776,1.19,3.681,3.104,2.466c0.459-0.291,0.035-1.024-0.427-0.73
				c-1.511,0.959-1.842-1.024-1.836-2.144c0.007-1.258,0.508-3.253,2.05-3.325c-0.136-0.179-0.272-0.357-0.408-0.535
				c-0.412,2.717-2.433,4.802-4.71,6.174C24.016,11.378,24.441,12.109,24.91,11.827L24.91,11.827z"/>
		</g>
		<g>
			<path fill="#010101" d="M24.019,6.135c0.545,0,0.545-0.846,0-0.846C23.474,5.29,23.474,6.135,24.019,6.135L24.019,6.135z"/>
		</g>
		<g>
			<path fill="#010101" d="M29.476,11.827c1.68-1.056,3.142-2.562,5.199-2.818c0.525-0.065,0.561-0.843,0-0.846
				c-1.716-0.008-3.301,0.948-3.964,2.553c-0.662,1.604,1.084,1.898,2.212,1.619c1.616-0.399,2.648-2.885,3.235-4.21
				c0.313-0.708,1.509-3.016,0.676-3.727c-0.412-0.352-1.013,0.243-0.598,0.598c0.249,0.212-0.527,2.002-0.622,2.251
				c-0.419,1.096-0.978,2.15-1.65,3.11c-0.281,0.401-0.623,0.774-1.03,1.048c-0.405,0.273-1.601,0.518-1.464-0.272
				c0.238-1.377,1.99-2.13,3.205-2.124c0-0.282,0-0.564,0-0.846c-2.255,0.28-3.774,1.77-5.625,2.933
				C28.589,11.387,29.013,12.118,29.476,11.827L29.476,11.827z"/>
		</g>
		<g>
			<path fill="#010101" d="M36.253,4.121c-4.289,1.594-1.475,8.819,2.649,8.272c0.532-0.07,0.539-0.917,0-0.846
				c-3.129,0.415-5.818-5.35-2.425-6.611C36.984,4.748,36.765,3.93,36.253,4.121L36.253,4.121z"/>
		</g>
		<g>
			<path fill="#010101" d="M39.241,12.393c0.459-0.001,0.938,0.004,1.314-0.293c0.428-0.338-0.175-0.933-0.598-0.598
				c-0.114,0.091-0.547,0.045-0.716,0.045C38.695,11.548,38.695,12.393,39.241,12.393L39.241,12.393z"/>
		</g>
	</g>
	<g>
		<path fill="#010101" d="M7.494,17.266c-2.34-0.024-4.272,2.824-1.698,4.186c3.062,1.621,5.504-2.922,8.025-3.655
			c0.481-0.139,0.406-0.936-0.121-0.897c-1.348,0.101-3.063,0.654-3.176,2.264c-0.097,1.375,0.884,2.51,2.227,2.718
			c1.403,0.216,3.207-0.802,3.366-2.3c0.2-1.871-1.417-2.991-3.147-2.863c-0.583,0.043-0.588,0.956,0,0.913
			c1.144-0.084,2.217,0.405,2.264,1.677c0.047,1.291-1.703,1.867-2.711,1.595c-0.672-0.182-1.073-0.878-1.1-1.53
			c-0.05-1.174,1.402-1.493,2.279-1.559c-0.04-0.299-0.081-0.597-0.121-0.897c-1.677,0.487-2.877,1.879-4.22,2.914
			c-0.83,0.64-1.765,1.132-2.839,0.919c-0.92-0.183-1.269-0.999-0.843-1.774c0.355-0.645,1.154-0.805,1.817-0.799
			C8.084,18.185,8.083,17.272,7.494,17.266L7.494,17.266z"/>
	</g>
	<g>
		<path fill="#010101" d="M13.397,17.432c1.86,0.6,3.643,0.74,5.463-0.046c-0.184-0.239-0.369-0.478-0.553-0.716
			c-1.656,1.438-1.62,4.006,0.616,4.794c2.376,0.837,4.756-2.065,4.345-4.25c-0.108-0.578-0.988-0.333-0.88,0.242
			c0.261,1.392-0.932,2.697-2.152,3.122c-2.373,0.827-2.605-2.114-1.284-3.262c0.425-0.369-0.116-0.905-0.553-0.716
			c-1.594,0.689-3.161,0.47-4.76-0.046C13.078,16.371,12.839,17.252,13.397,17.432L13.397,17.432z"/>
	</g>
	<g>
		<path fill="#010101" d="M23.086,17.966c-0.013-0.039-0.026-0.078-0.038-0.118c-0.065-0.199-0.229-0.328-0.44-0.334
			c-0.008,0-0.016-0.001-0.025-0.001c-0.183-0.006-0.413,0.142-0.44,0.335c-0.225,1.577,0.099,3.387,2.06,3.354
			c2.532-0.042,3.95-3.387,6.476-3.388c0.589,0,0.589-0.913,0-0.913c-1.779,0.001-3.234,1.497-4.591,2.465
			c-0.854,0.61-2.006,1.387-2.92,0.48c-0.208-0.207-0.201-1.364-0.145-1.756c-0.147,0.112-0.293,0.223-0.44,0.335
			c0.009,0,0.017,0.001,0.025,0.001c-0.147-0.112-0.293-0.223-0.44-0.335c0.013,0.039,0.026,0.077,0.039,0.117
			C22.388,18.765,23.269,18.527,23.086,17.966L23.086,17.966z"/>
	</g>
	<g>
		<path fill="#010101" d="M30.557,16.734c-1.625,0.399-4.184,1.76-3.255,3.851c0.87,1.958,3.33,1.193,4.611,0.197
			c0.464-0.361-0.187-1.002-0.645-0.645c-0.838,0.651-2.502,1.325-3.146,0.06c-0.732-1.438,1.77-2.36,2.677-2.583
			C31.371,17.474,31.128,16.594,30.557,16.734L30.557,16.734z"/>
	</g>
	<g>
		<path fill="#010101" d="M31.821,20.934c1.838-1.226,3.593-2.665,4.702-4.607c0.488-0.856,1.39-3.814-0.608-3.471
			c-1.286,0.221-1.766,2.18-2.085,3.205c-0.481,1.54-0.589,3.326-1.25,4.797c-0.24,0.532,0.547,0.997,0.788,0.461
			c0.905-2.012,0.963-4.35,1.835-6.399c0.161-0.378,0.412-1.004,0.83-1.162c0.662-0.25-0.42,2.323-0.487,2.441
			c-0.944,1.653-2.631,2.911-4.185,3.948C30.874,20.471,31.33,21.262,31.821,20.934L31.821,20.934z"/>
	</g>
	<g>
		<path fill="#010101" d="M33.08,21.683c0.421-0.846,1.003-1.59,1.644-2.281c0.379-0.408,0.814-0.746,1.298-1.019
			c1.118-0.632,1.17,0.735,1.298,1.416c0.317,1.678,1.879,2.042,3.398,2.11c0.589,0.026,0.586-0.886,0-0.913
			c-0.543-0.024-1.068-0.134-1.589-0.281c-1.246-0.352-0.787-1.338-0.987-2.164c-0.196-0.807-0.729-1.139-1.53-1.237
			c-1.798-0.219-3.655,2.57-4.321,3.909C32.031,21.747,32.818,22.21,33.08,21.683L33.08,21.683z"/>
	</g>
	<g>
		<g>
			<path fill="#010101" d="M5.281,27.363c0.614-0.115,1.17-0.427,1.762-0.618c0.99-0.319,0.332,1.044,0.262,1.18
				c-0.166,0.325-0.393,0.621-0.641,0.887c0.269,0.156,0.537,0.313,0.805,0.468c0.296-1.263,1.258-2.514,2.373-3.159
				c1.066-0.618,1.445,0.343,1.213,1.235c-0.152,0.581-0.45,1.126-0.762,1.635c-0.326,0.53,0.507,1.013,0.831,0.486
				c0.708-1.15,2.003-4.295-0.395-4.483c-2.009-0.156-3.778,2.285-4.188,4.031c-0.105,0.45,0.462,0.836,0.804,0.468
				c0.775-0.834,1.578-2.1,1.042-3.241c-0.591-1.259-2.552,0.031-3.361,0.183C4.416,26.549,4.674,27.477,5.281,27.363L5.281,27.363z
				"/>
		</g>
	</g>
	<g>
		<g>
			<path fill="#010101" d="M11.172,29.28c0.17-1.107,0.779-2.168,1.755-2.75c0.264-0.158,1.142-0.406,1.307,0.036
				c0.099,0.264-0.002,0.613-0.055,0.877c-0.251,1.243-0.189,2.361,1.41,2.095c0.611-0.102,0.351-1.029-0.256-0.928
				c-0.353,0.059-0.402,0.082-0.355-0.263c0.048-0.353,0.147-0.698,0.203-1.05c0.107-0.674,0.017-1.3-0.577-1.705
				c-0.785-0.536-1.998-0.105-2.647,0.436c-0.899,0.748-1.532,1.836-1.711,2.996C10.151,29.631,11.078,29.893,11.172,29.28
				L11.172,29.28z"/>
		</g>
	</g>
	<g>
		<g>
			<path fill="#010101" d="M15.46,29.555c2.064,0.018,2.482-1.958,3.395-3.381c0.336-0.524-0.497-1.006-0.831-0.486
				c-0.677,1.055-1.021,2.918-2.564,2.904C14.839,28.587,14.84,29.549,15.46,29.555L15.46,29.555z"/>
		</g>
	</g>
	<g>
		<g>
			<path fill="#010101" d="M17.958,25.853c0.11,1.351-1.209,3.308,0.772,3.868c2.068,0.585,3.262-1.899,3.879-3.42
				c0.233-0.575-0.698-0.823-0.928-0.256c-0.44,1.084-1.237,3.02-2.695,2.747c-0.635-0.118-0.427-0.775-0.321-1.23
				c0.131-0.561,0.303-1.127,0.256-1.71C18.87,25.24,17.908,25.234,17.958,25.853L17.958,25.853z"/>
		</g>
	</g>
	<g>
		<g>
			<path fill="#010101" d="M21.663,26.014c0.095,0.878-0.115,1.763,0.016,2.647c0.056,0.377,0.178,0.761,0.522,0.969
				c0.446,0.269,0.934-0.076,1.249-0.377c0.449-0.43-0.233-1.11-0.681-0.681c-0.078,0.075-0.168,0.169-0.263,0.196
				c0.182-0.053,0.231,0.167,0.162-0.052c-0.093-0.299-0.084-0.631-0.086-0.939c-0.004-0.58,0.106-1.185,0.043-1.762
				C22.559,25.404,21.596,25.397,21.663,26.014L21.663,26.014z"/>
		</g>
	</g>
	<g>
		<g>
			<path fill="#010101" d="M23.514,29.248c1.356-0.579,2.356-2.051,3.152-3.233c0.348-0.517-0.487-0.997-0.831-0.486
				c-0.71,1.053-1.597,2.372-2.807,2.887C22.459,28.661,22.95,29.489,23.514,29.248L23.514,29.248z"/>
		</g>
	</g>
	<g>
		<g>
			<path fill="#010101" d="M25.99,26.272c0.513,0.562,1.403,1.495,0.734,2.245c-0.776,0.871-2.189,0.602-2.951-0.108
				c-0.454-0.422-1.136,0.257-0.681,0.681c1.22,1.134,3.058,1.26,4.313,0.107c1.218-1.119,0.107-2.682-0.734-3.607
				C26.252,25.132,25.574,25.814,25.99,26.272L25.99,26.272z"/>
		</g>
	</g>
	<g>
		<g>
			<path fill="#010101" d="M30.215,25.804c-0.212,1.487-0.363,3.96,1.833,3.751c0.612-0.058,0.618-1.021,0-0.962
				c-1.368,0.129-1.032-1.648-0.905-2.533C31.229,25.453,30.302,25.191,30.215,25.804L30.215,25.804z"/>
		</g>
	</g>
	<g>
		<g>
			<path fill="#010101" d="M32.256,29.376c2.035-0.431,2.93-2.685,4.993-3.059c0.534-0.096,0.411-0.985-0.128-0.946
				c-1.275,0.094-3.697,1.407-2.76,3.067c1.412,2.5,4.758,0.91,6.32-0.476c0.465-0.413-0.218-1.091-0.681-0.681
				c-0.932,0.826-1.858,1.419-3.136,1.485c-1.043,0.053-2.111-0.834-1.277-1.788c0.38-0.434,0.983-0.604,1.532-0.644
				c-0.042-0.315-0.085-0.63-0.128-0.946c-2.096,0.38-3.006,2.638-4.993,3.059C31.394,28.577,31.651,29.504,32.256,29.376
				L32.256,29.376z"/>
		</g>
	</g>
	<g>
		<g>
			<path fill="#010101" d="M31.754,23.259c0.621,0,0.621-0.962,0-0.962S31.134,23.259,31.754,23.259L31.754,23.259z"/>
		</g>
	</g>
	<g>
		<g>
			<path fill="#010101" d="M25.727,30.074c2.315,0.032,4.287-1.599,5.284-3.6c0.276-0.554-0.554-1.042-0.831-0.486
				c-0.849,1.702-2.463,3.152-4.453,3.124C25.105,29.103,25.107,30.066,25.727,30.074L25.727,30.074z"/>
		</g>
	</g>
	<g>
		<g>
			<path fill="#010101" d="M8.912,34.433c-0.964-0.185-2.329-0.351-3.052,0.499c-0.544,0.639-0.449,1.526-0.032,2.206
				c0.422,0.686,1.142,1.134,1.957,1.01c1.054-0.16,1.432-1.521,1.564-2.39c0.119-0.788-1.085-1.127-1.205-0.332
				C8.082,35.828,8,36.256,7.82,36.603c-0.088,0.17-0.067,0.14-0.192,0.264c-0.015,0.015-0.104,0.061-0.091,0.057
				c-0.041,0.013-0.179,0.025-0.004,0.008c-0.045,0.004-0.231-0.018-0.047,0.01c-0.043-0.007-0.085-0.019-0.127-0.031
				c-0.098-0.029,0.1,0.056-0.057-0.026c-0.159-0.083-0.292-0.224-0.369-0.335c-0.166-0.242-0.157-0.22-0.214-0.525
				c0.038,0.208,0.035-0.297-0.001-0.078c0.01-0.059,0.028-0.116,0.048-0.171c-0.057,0.158,0.02-0.013,0.045-0.048
				c-0.087,0.127,0.004,0.009,0.029-0.015c0.061-0.058-0.054,0.029,0.087-0.052c0.154-0.088-0.111,0.034,0.068-0.031
				c0.085-0.031,0.173-0.05,0.261-0.068c0.381-0.079,0.906-0.002,1.322,0.078C9.367,35.79,9.703,34.585,8.912,34.433L8.912,34.433z"
				/>
		</g>
	</g>
	<g>
		<g>
			<path fill="#010101" d="M8.143,35.573c0.298,1.002,0.935,1.881,2.054,1.936c1.13,0.056,1.586-1.181,1.522-2.099
				c-0.193-2.726-3.672-3.795-5.856-2.692c-2.144,1.083-2.921,3.53-1.389,5.482c1.606,2.046,4.459,2.475,6.628,1.084
				c0.676-0.434,0.05-1.516-0.631-1.079C9.2,39.02,7.784,39.08,6.469,38.33c-1.049-0.598-1.955-1.931-1.437-3.155
				c0.673-1.593,2.797-1.954,4.235-1.314c0.788,0.35,1.343,1.177,1.2,2.059c-0.161,0.993-1.03-0.383-1.119-0.68
				C9.119,34.47,7.912,34.799,8.143,35.573L8.143,35.573z"/>
		</g>
	</g>
	<g>
		<g>
			<path fill="#010101" d="M15.608,33.484c-2.433-0.039-3.484,2.232-2.394,4.279c0.123,0.232,0.453,0.379,0.706,0.287
				c1.665-0.602,2.758-1.945,2.684-3.756c-0.033-0.802-1.261-0.809-1.25,0c0.028,2.149,1.12,7.02-2.157,7.164
				c0.201,0.153,0.402,0.306,0.603,0.459c-0.508-1.706,1.038-2.916,2.309-3.745c0.672-0.439,0.046-1.521-0.631-1.079
				c-1.775,1.159-3.57,2.855-2.884,5.157c0.077,0.258,0.322,0.471,0.603,0.459c4.401-0.195,3.447-5.396,3.407-8.414
				c-0.417,0-0.833,0-1.25,0c0.05,1.241-0.618,2.135-1.767,2.55c0.235,0.096,0.471,0.191,0.706,0.287
				c-0.641-1.203-0.157-2.422,1.315-2.398C16.414,34.747,16.413,33.497,15.608,33.484L15.608,33.484z"/>
		</g>
	</g>
	<g>
		<g>
			<path fill="#010101" d="M16.421,37.889c1.117-0.922,2.301-1.768,3.338-2.782c-0.356-0.147-0.711-0.295-1.067-0.442
				c0.124,1.269-0.827,2.408-1.276,3.543c-0.297,0.75,0.912,1.073,1.205,0.332c0.507-1.281,1.463-2.425,1.321-3.875
				c-0.051-0.525-0.649-0.85-1.067-0.442c-1.037,1.014-2.222,1.86-3.338,2.782C14.915,37.519,15.804,38.398,16.421,37.889
				L16.421,37.889z"/>
		</g>
	</g>
	<g>
		<g>
			<path fill="#010101" d="M18.621,38.726c0.338-1.549,1.133-3.237,2.716-3.829c-0.256-0.146-0.513-0.291-0.769-0.437
				c0.48,1.204,0.532,2.649-0.396,3.658c-0.545,0.592,0.337,1.478,0.884,0.884c1.22-1.325,1.369-3.239,0.717-4.874
				c-0.117-0.293-0.424-0.565-0.769-0.437c-2.013,0.752-3.148,2.679-3.589,4.702C17.245,39.18,18.45,39.514,18.621,38.726
				L18.621,38.726z"/>
		</g>
	</g>
	<g>
		<g>
			<path fill="#010101" d="M21.24,38.745c0.066-1.908,1.629-3.049,3.029-4.097c-0.285-0.075-0.57-0.149-0.855-0.224
				c0.559,1.295-0.117,2.762,0.308,4.116c0.241,0.766,1.448,0.439,1.205-0.332c-0.251-0.801-0.123-1.567-0.058-2.384
				c0.058-0.723-0.092-1.372-0.376-2.031c-0.125-0.289-0.605-0.411-0.855-0.224c-1.79,1.34-3.564,2.761-3.648,5.176
				C19.962,39.552,21.212,39.549,21.24,38.745L21.24,38.745z"/>
		</g>
	</g>
	<g>
		<g>
			<path fill="#010101" d="M27.238,38.458c1.099-1.166,2.102-2.611,3.744-3.005c0.784-0.188,0.451-1.393-0.332-1.205
				c-1.882,0.452-3.033,1.988-4.295,3.327C25.802,38.16,26.684,39.046,27.238,38.458L27.238,38.458z"/>
		</g>
	</g>
	<g>
		<g>
			<path fill="#010101" d="M31.001,34.226c-2.109-0.192-5.096,3.119-2.954,4.86c1.874,1.523,3.622-2.133,3.927-3.512
				c0.174-0.785-1.031-1.119-1.205-0.332c-0.133,0.6-0.413,1.167-0.709,1.701c-0.154,0.277-0.702,1.314-1.128,1.234
				c-0.285-0.054-0.36-0.474-0.355-0.701c0.008-0.36,0.296-0.73,0.517-0.987c0.447-0.519,1.185-1.077,1.907-1.012
				C31.804,35.549,31.797,34.298,31.001,34.226L31.001,34.226z"/>
		</g>
	</g>
	<g>
		<g>
			<path fill="#010101" d="M30.747,35.222c0.014,1.274,0.112,3.897,1.904,4.003c1.721,0.102,2.985-2.071,3.712-3.317
				c0.407-0.698-0.673-1.327-1.079-0.631c-0.542,0.929-1.315,2.395-2.452,2.7c-0.829,0.222-0.83-2.408-0.834-2.756
				C31.988,34.416,30.738,34.415,30.747,35.222L30.747,35.222z"/>
		</g>
	</g>
	<g>
		<g>
			<path fill="#010101" d="M35.221,35.055c-0.221,1.622,0.031,4.602,2.456,3.553c1.918-0.83,3.155-3.159,3.258-5.167
				c0.044-0.865-0.172-2.627-1.202-2.91c-1.054-0.29-1.607,1.185-1.883,1.912c-0.884,2.329-1.21,6.051,1.887,6.72
				c0.786,0.17,1.12-1.035,0.332-1.205c-2.096-0.452-1.65-2.858-1.247-4.437c0.085-0.333,0.2-0.658,0.322-0.979
				c0.067-0.161,0.142-0.318,0.227-0.47c0.244-0.463,0.168-0.067-0.047-0.359c0.449,0.611,0.417,1.695,0.277,2.405
				c-0.236,1.2-1.012,2.405-2.008,3.115c-1.411,1.005-1.3-0.879-1.168-1.844C36.533,34.6,35.329,34.26,35.221,35.055L35.221,35.055z
				"/>
		</g>
	</g>
	<g>
		<g>
			<path fill="#010101" d="M35.823,32.323c0.806,0,0.806-1.25,0-1.25C35.017,31.073,35.017,32.323,35.823,32.323L35.823,32.323z"/>
		</g>
	</g>
	<g>
		<g>
			<path fill="#010101" d="M24.51,39.37c0.995-0.012,1.926-0.226,2.668-0.925c0.588-0.554-0.298-1.436-0.884-0.884
				c-0.493,0.465-1.13,0.551-1.784,0.559C23.704,38.13,23.704,39.38,24.51,39.37L24.51,39.37z"/>
		</g>
	</g>
</g>
</svg>
