<?xml version="1.0" encoding="utf-8"?>
<!-- Generator: Adobe Illustrator 17.0.2, SVG Export Plug-In . SVG Version: 6.00 Build 0)  -->
<!DOCTYPE svg PUBLIC "-//W3C//DTD SVG 1.1//EN" "http://www.w3.org/Graphics/SVG/1.1/DTD/svg11.dtd">
<svg version="1.1" id="Layer_1" xmlns="http://www.w3.org/2000/svg" xmlns:xlink="http://www.w3.org/1999/xlink" x="0px" y="0px"
	 width="45.178px" height="45.344px" viewBox="0 0 45.178 45.344" enable-background="new 0 0 45.178 45.344" xml:space="preserve">
<g>
	<g>
		<g>
			<path d="M36.652,22.878c1.536,1.866,4.605,2.358,4.688,5.159c0.024,0.805,1.274,0.808,1.25,0
				c-0.041-1.396-0.531-2.532-1.613-3.428c-1.126-0.934-2.492-1.464-3.441-2.617C37.023,21.372,36.144,22.261,36.652,22.878
				L36.652,22.878z"/>
		</g>
	</g>
	<g>
		<g>
			<path d="M41.965,27.657c-0.724,0.035-1.184,0.414-1.514,1.041c-0.374,0.713,0.704,1.344,1.079,0.631
				c0.107-0.207,0.183-0.409,0.435-0.422C42.768,28.869,42.771,27.619,41.965,27.657L41.965,27.657z"/>
		</g>
	</g>
	<g>
		<g>
			<path d="M40.366,29.257c0.035,0.647,0.287,1.204,0.572,1.776c0.358,0.723,1.437,0.088,1.079-0.631
				c-0.182-0.363-0.381-0.731-0.402-1.146C41.573,28.455,40.323,28.451,40.366,29.257L40.366,29.257z"/>
		</g>
	</g>
	<g>
		<g>
			<path d="M41.036,31.405c0.337,0.336,0.756,0.812,1.25,0.891c0.788,0.126,1.127-1.078,0.332-1.205
				c-0.263-0.042-0.518-0.391-0.699-0.57C41.349,29.95,40.465,30.834,41.036,31.405L41.036,31.405z"/>
		</g>
	</g>
	<g>
		<g>
			<path d="M42.093,31.77c-0.519,2.924-2.201,5.215-4.584,6.934c-0.646,0.468-0.023,1.553,0.632,1.08
				c2.634-1.9,4.582-4.433,5.158-7.682C43.438,31.314,42.234,30.977,42.093,31.77L42.093,31.77z"/>
		</g>
	</g>
	<g>
		<g>
			<path d="M37.265,38.948c-3.843,2.729-9.324,2.861-13.693,1.438c-2.742-0.895-9.602-8.828-4.581-10.282
				c0.773-0.224,0.444-1.43-0.332-1.205c-5.622,1.628-1.108,8.019,1.333,10.539c4.271,4.411,13.181,3.945,17.904,0.591
				C38.547,39.564,37.924,38.479,37.265,38.948L37.265,38.948z"/>
		</g>
	</g>
	<g>
		<g>
			<path d="M19.609,29.185c-1.847-3.714-3.618-10.416,0.507-13.272c3.824-2.648,9.35-2.575,13.812-2.594
				c0.807-0.003,0.807-1.253,0-1.25c-5.049,0.021-12.583-0.093-16.086,4.275c-2.891,3.605-1.124,9.827,0.688,13.473
				C18.888,30.537,19.966,29.905,19.609,29.185L19.609,29.185z"/>
		</g>
	</g>
	<g>
		<g>
			<path d="M34.005,13.296c1.733,0.305,1.936,2.848,2.486,4.191c0.302,0.735,1.511,0.414,1.205-0.332
				c-0.74-1.804-1.019-4.652-3.359-5.064C33.549,11.952,33.212,13.157,34.005,13.296L34.005,13.296z"/>
		</g>
	</g>
	<g>
		<g>
			<path d="M36.491,17.731c0.388,1.247,0.469,2.485-0.181,3.659c-0.391,0.706,0.688,1.336,1.079,0.631
				c0.809-1.463,0.794-3.053,0.307-4.622C37.458,16.632,36.251,16.959,36.491,17.731L36.491,17.731z"/>
		</g>
	</g>
	<g>
		<g>
			<path d="M26.935,35.05c-0.569-0.38-0.979-1.019-0.855-1.726c0.152-0.857,1.009-1.054,1.757-1.008c0.806,0.051,0.801-1.199,0-1.25
				c-1.313-0.082-2.505,0.497-2.93,1.795c-0.418,1.275,0.362,2.576,1.396,3.268C26.977,36.578,27.602,35.494,26.935,35.05
				L26.935,35.05z"/>
		</g>
	</g>
	<g>
		<g>
			<path d="M28.325,32.561c4.557-0.018,8.942-0.412,12.621-3.35c0.63-0.504-0.261-1.381-0.884-0.885
				c-3.389,2.707-7.569,2.968-11.737,2.983C27.519,31.314,27.519,32.564,28.325,32.561L28.325,32.561z"/>
		</g>
	</g>
	<g>
		<g>
			<path d="M26.864,36.457c5.534,0.484,11.087,0.527,15.3-3.592c0.577-0.564-0.307-1.449-0.884-0.885
				c-3.966,3.879-9.268,3.678-14.416,3.227C26.06,35.138,26.067,36.388,26.864,36.457L26.864,36.457z"/>
		</g>
	</g>
	<g>
		<g>
			<path d="M9.454,33.563c4.363,12.198,22.827,15.947,30.615,5.021c0.469-0.658-0.616-1.281-1.079-0.631
				c-7.151,10.033-24.348,6.41-28.33-4.723C10.39,32.478,9.182,32.803,9.454,33.563L9.454,33.563z"/>
		</g>
	</g>
	<g>
		<g>
			<path d="M13.782,21.653c-2.01-0.893-4.498-1.529-6.597-0.504c-2.161,1.055-3.199,3.238-3.388,5.566
				c-0.35,4.348,5.417,8.539,8.893,5.175c0.58-0.562-0.306-1.444-0.884-0.884c-2.873,2.781-6.7-1.223-6.759-4.291
				c-0.037-1.918,1.213-3.877,2.984-4.566c1.651-0.642,3.579-0.102,5.119,0.583C13.881,23.057,14.518,21.98,13.782,21.653
				L13.782,21.653z"/>
		</g>
	</g>
	<g>
		<g>
			<path d="M12.249,28.875c-1.319,0.121-2.548-0.422-2.89-1.784c-0.384-1.532,1.175-2.118,2.401-2.081
				c0.808,0.023,0.805-1.227,0-1.25c-1.947-0.059-3.841,1.034-3.679,3.199c0.158,2.117,2.188,3.347,4.166,3.166
				C13.045,30.052,13.052,28.802,12.249,28.875L12.249,28.875z"/>
		</g>
	</g>
	<g>
		<g>
			<path d="M11.89,24.463c-0.233,1.512-0.266,3.023-0.267,4.55c0,0.806,1.25,0.806,1.25,0c0-1.41,0.006-2.821,0.221-4.218
				C13.217,24.007,12.013,23.668,11.89,24.463L11.89,24.463z"/>
		</g>
	</g>
	<g>
		<g>
			<path d="M27.7,21.949c-0.015,0.513-0.29,1.009-0.192,1.526c0.12,0.63,0.752,0.79,1.305,0.805
				c0.331,0.008,0.638-0.291,0.625-0.625c-0.023-0.58-0.229-1.125-0.244-1.706c-0.022-0.804-1.272-0.807-1.25,0
				c0.016,0.581,0.221,1.132,0.244,1.706c0.208-0.209,0.417-0.418,0.625-0.625c-0.302-0.008-0.182-0.071-0.087,0.176
				c0.037,0.1,0.041-0.147,0.058-0.215c0.084-0.344,0.156-0.686,0.167-1.041C28.974,21.143,27.724,21.145,27.7,21.949L27.7,21.949z"
				/>
		</g>
	</g>
	<g>
		<g>
			<path d="M33.546,20.488c0,0.426-0.096,1.146,0.282,1.457c0.621,0.511,1.104-0.138,1.37-0.655c0.369-0.715-0.71-1.347-1.079-0.631
				c-0.048,0.097-0.098,0.192-0.153,0.285c-0.148,0.196-0.047,0.174,0.305-0.066c0.146,0.061,0.295,0.122,0.441,0.183
				c0.113,0.093,0.104,0.255,0.09,0.021c-0.01-0.198-0.006-0.396-0.006-0.594C34.795,19.682,33.545,19.682,33.546,20.488
				L33.546,20.488z"/>
		</g>
	</g>
	<g>
		<g>
			<path d="M32.466,25.01c0.807,0,0.807-1.25,0-1.25C31.66,23.76,31.66,25.01,32.466,25.01L32.466,25.01z"/>
		</g>
	</g>
	<g>
		<g>
			<path d="M34.658,24.523c0.806,0,0.806-1.25,0-1.25S33.852,24.523,34.658,24.523L34.658,24.523z"/>
		</g>
	</g>
	<g>
		<g>
			<path d="M30.761,17.459c1.826-0.079,3.201-1.856,5.03-1.159c0.754,0.288,1.078-0.921,0.332-1.205
				c-0.886-0.338-1.77-0.366-2.644,0.025c-0.911,0.407-1.683,1.045-2.719,1.089C29.958,16.244,29.954,17.494,30.761,17.459
				L30.761,17.459z"/>
		</g>
	</g>
	<g>
		<g>
			<path d="M24.919,26.299c-2.547-0.665-4.012-3.616-3.514-6.111c0.504-2.524,3.355-2.863,5.459-2.892
				c0.805-0.011,0.806-1.261,0-1.25c-3.152,0.044-6.087,0.921-6.773,4.356c-0.588,2.945,1.662,6.362,4.496,7.102
				C25.367,27.709,25.698,26.503,24.919,26.299L24.919,26.299z"/>
		</g>
	</g>
	<g>
		<g>
			<path d="M27.026,17.297c1.243,0.156,2.479,0.314,3.734,0.325c0.807,0.007,0.807-1.243,0-1.25
				c-1.254-0.011-2.491-0.168-3.734-0.325C26.228,15.946,26.237,17.198,27.026,17.297L27.026,17.297z"/>
		</g>
	</g>
	<g>
		<g>
			<path d="M24.262,26.623c-2.188,0.32-3.932,2.754-4.193,4.826c-0.102,0.797,1.149,0.789,1.25,0
				c0.197-1.564,1.674-3.386,3.275-3.619C25.389,27.713,25.05,26.509,24.262,26.623L24.262,26.623z"/>
		</g>
	</g>
	<g>
		<g>
			<path d="M20.555,30.799c0,0.544,0.016,1.094-0.14,1.62c-0.229,0.774,0.979,1.104,1.205,0.332c0.188-0.632,0.184-1.3,0.185-1.952
				C21.806,29.992,20.556,29.992,20.555,30.799L20.555,30.799z"/>
		</g>
	</g>
	<g>
		<g>
			<path d="M20.88,32.423c0.001,1.046,0.035,2.083,0.348,3.089c0.237,0.768,1.444,0.439,1.205-0.332
				c-0.28-0.904-0.303-1.816-0.303-2.757C22.129,31.617,20.879,31.617,20.88,32.423L20.88,32.423z"/>
		</g>
	</g>
	<g>
		<g>
			<path d="M21.692,34.533c-0.125,1.772,0.382,3.322,1.222,4.862c0.386,0.708,1.465,0.077,1.079-0.631
				c-0.741-1.358-1.162-2.67-1.051-4.231C22.999,33.729,21.748,33.735,21.692,34.533L21.692,34.533z"/>
		</g>
	</g>
	<g>
		<g>
			<path d="M23.401,39.071c0.179,0.408,0.286,0.756,0.585,1.102c0.529,0.609,1.409-0.278,0.884-0.885
				c-0.201-0.231-0.268-0.569-0.389-0.848C24.157,37.703,23.08,38.341,23.401,39.071L23.401,39.071z"/>
		</g>
	</g>
	<g>
		<g>
			<path d="M24.213,39.883c0.374,0.561,0.765,1.104,1.234,1.588c0.562,0.579,1.445-0.305,0.884-0.884
				c-0.397-0.41-0.723-0.861-1.039-1.335C24.847,38.586,23.764,39.211,24.213,39.883L24.213,39.883z"/>
		</g>
	</g>
	<g>
		<g>
			<path d="M25.447,40.985c0.449,0.402,0.974,0.637,1.579,0.67c0.806,0.043,0.802-1.209,0-1.25
				c-0.262-0.015-0.501-0.131-0.695-0.305C25.733,39.563,24.846,40.444,25.447,40.985L25.447,40.985z"/>
		</g>
	</g>
	<g>
		<g>
			<path d="M27.026,17.833c-1.643,0.214-3.206,1.044-3.688,2.732c-0.222,0.777,0.985,1.106,1.205,0.332
				c0.315-1.104,1.404-1.674,2.483-1.815C27.814,18.981,27.824,17.729,27.026,17.833L27.026,17.833z"/>
		</g>
	</g>
	<g>
		<g>
			<path d="M33.846,17.946c0.577,0.013,1.112,0.153,1.634,0.402c0.724,0.345,1.357-0.732,0.631-1.079
				c-0.725-0.346-1.459-0.554-2.265-0.572C33.039,16.678,33.041,17.928,33.846,17.946L33.846,17.946z"/>
		</g>
	</g>
	<g>
		<g>
			<path d="M25.889,34.022c3.312,0.387,6.935,1.146,10.058-0.41c0.722-0.359,0.088-1.438-0.631-1.078
				c-2.858,1.424-6.405,0.592-9.429,0.238C25.089,32.679,25.098,33.93,25.889,34.022L25.889,34.022z"/>
		</g>
	</g>
	<g>
		<g>
			<path d="M28.166,13.053c0.768-0.211,1.374-0.612,1.835-1.262c0.468-0.659-0.617-1.282-1.079-0.631
				c-0.267,0.376-0.653,0.568-1.088,0.687C27.058,12.06,27.388,13.266,28.166,13.053L28.166,13.053z"/>
		</g>
	</g>
	<g>
		<g>
			<path d="M29.296,12.728c0.83,0.227,1.509-0.106,2.005-0.774c0.481-0.649-0.604-1.271-1.078-0.631
				c-0.16,0.216-0.344,0.268-0.594,0.2C28.849,11.31,28.519,12.516,29.296,12.728L29.296,12.728z"/>
		</g>
	</g>
	<g>
		<g>
			<path d="M12.04,21.222c1.975-4.763,6.676-7.782,10.917-10.344c0.689-0.416,0.062-1.497-0.631-1.079
				c-4.565,2.758-9.375,5.985-11.492,11.091C10.526,21.635,11.736,21.956,12.04,21.222L12.04,21.222z"/>
		</g>
	</g>
	<g>
		<g>
			<path d="M23.571,9.897c-0.205-0.179-0.446-0.31-0.65-0.487c-0.604-0.527-1.493,0.354-0.884,0.884
				c0.205,0.179,0.446,0.31,0.65,0.487C23.292,11.308,24.18,10.427,23.571,9.897L23.571,9.897z"/>
		</g>
	</g>
	<g>
		<g>
			<path d="M22.804,10.477c1.142,0,2.277-0.013,3.41-0.162c0.787-0.104,0.797-1.355,0-1.25c-1.133,0.15-2.269,0.162-3.41,0.162
				C21.998,9.227,21.998,10.477,22.804,10.477L22.804,10.477z"/>
		</g>
	</g>
	<g>
		<g>
			<path d="M27.164,9.852c-0.024-0.665-0.223-1.243-0.67-1.741c-0.539-0.601-1.42,0.286-0.884,0.884
				c0.219,0.244,0.292,0.536,0.304,0.857C25.944,10.655,27.194,10.658,27.164,9.852L27.164,9.852z"/>
		</g>
	</g>
	<g>
		<g>
			<path d="M25.889,9.015c1.046-0.007,2.16-0.167,3.095,0.402c0.689,0.421,1.317-0.661,0.631-1.079
				c-1.146-0.698-2.439-0.581-3.725-0.572C25.083,7.771,25.083,9.021,25.889,9.015L25.889,9.015z"/>
		</g>
	</g>
	<g>
		<g>
			<path d="M30.066,9.482c0.226-0.232,0.337-0.44,0.345-0.767c0.021-0.807-1.229-0.804-1.25,0c0.007-0.039,0.014-0.078,0.021-0.117
				C28.62,9.176,29.503,10.06,30.066,9.482L30.066,9.482z"/>
		</g>
	</g>
	<g>
		<g>
			<path d="M29.953,9.155c0.661-0.1,1.18,0.024,1.665,0.489c0.582,0.557,1.467-0.325,0.884-0.884
				c-0.833-0.798-1.765-0.979-2.881-0.81C28.825,8.07,29.164,9.274,29.953,9.155L29.953,9.155z"/>
		</g>
	</g>
	<g>
		<g>
			<path d="M32.685,9.365c0-0.054,0-0.108,0-0.162c0-0.806-1.25-0.806-1.25,0c0,0.054,0,0.108,0,0.162
				C31.435,10.171,32.685,10.171,32.685,9.365L32.685,9.365z"/>
		</g>
	</g>
	<g>
		<g>
			<path d="M36.01,12.459c-1.021-1.374-2.013-3.074-3.783-3.535c-0.781-0.203-1.112,1.002-0.332,1.205
				c1.406,0.367,2.227,1.872,3.037,2.96C35.405,13.729,36.491,13.107,36.01,12.459L36.01,12.459z"/>
		</g>
	</g>
	<g>
		<g>
			<path d="M35.623,12.34c3.302-2.386,5.473-9.563,0.013-10.723c-0.785-0.167-1.12,1.038-0.332,1.205
				c4.253,0.904,2.163,6.65-0.312,8.438C34.345,11.728,34.968,12.813,35.623,12.34L35.623,12.34z"/>
		</g>
	</g>
	<g>
		<g>
			<path d="M35.474,1.617c-2.657-0.495-5.55-0.518-7.789,1.2c-0.111,0.085-0.172,0.191-0.212,0.301
				c0.105,0.185,0.107,0.383,0.03,0.551c0.145,0.301,0.473,0.487,0.813,0.227c1.978-1.517,4.473-1.512,6.826-1.074
				C35.929,2.969,36.265,1.765,35.474,1.617z"/>
		</g>
	</g>
	<g>
		<g>
			<path d="M28.442,3.077c-0.808-0.823-1.467-1.775-2.273-2.598c-0.428-0.437-1.037-0.033-1.061,0.438
				c0.111-0.01,0.228,0.005,0.35,0.082c0.823,0.523,1.333,1.284,1.955,2.01c0.225,0.263,0.171,0.575,0.005,0.791
				c0.049,0.052,0.091,0.11,0.14,0.161C28.123,4.537,29.006,3.653,28.442,3.077z"/>
		</g>
	</g>
	<g>
		<g>
			<path d="M24.466,1.512c0.01-0.317,0.219-0.497,0.459-0.554c0.152-0.077,0.339-0.082,0.533,0.041
				c0.255,0.162,0.475,0.352,0.683,0.553c0.345-0.329,0.211-1.08-0.414-1.094c-5.451-0.12-8.121,0.692-12.434,4.116
				C8.529,8.359,4.601,12.342,2.129,17.98c-0.319,0.731,0.756,1.368,1.079,0.631c1.83-4.174,4.486-7.573,7.85-10.628
				c1.935-1.757,4.094-3.368,6.229-4.863c1.277-0.894,2.669-1.261,4.107-1.398c0.184-0.158,0.438-0.202,0.663-0.04
				c0.802-0.041,1.612-0.025,2.423-0.004C24.477,1.622,24.464,1.569,24.466,1.512z"/>
		</g>
	</g>
	<g>
		<g>
			<path d="M1.881,18.296c-0.134,2.007,0.835,4.337,2.583,5.411c0.689,0.423,1.316-0.658,0.631-1.079
				c-1.384-0.85-2.068-2.767-1.964-4.332C3.185,17.491,1.935,17.496,1.881,18.296L1.881,18.296z"/>
		</g>
	</g>
	<g>
		<g>
			<path d="M35.632,2.082c-9.408,0.367-15.657,7.283-22.724,12.589c-0.636,0.478-0.014,1.564,0.631,1.079
				c6.838-5.134,12.97-12.063,22.093-12.418C36.436,3.301,36.439,2.051,35.632,2.082L35.632,2.082z"/>
		</g>
	</g>
	<g>
		<g>
			<path d="M24.56,5.529c-0.058,0.066-0.133,0.115-0.215,0.153c-0.088,0.131-0.229,0.223-0.428,0.235
				c-0.139,0.056-0.299,0.052-0.466-0.074c-0.033-0.025-0.061-0.055-0.093-0.081c-3.419,0.941-6.5,3.35-9.115,5.606
				c-2.753,2.375-6.048,5.757-6.272,9.606c-0.047,0.806,1.203,0.801,1.25,0c0.205-3.528,3.458-6.515,5.906-8.723
				c2.586-2.332,5.964-4.864,9.467-5.533C25.274,6.59,25.118,5.685,24.56,5.529z"/>
		</g>
	</g>
	<g>
		<g>
			<path d="M25.6,27.75c1.2-1.35,2.918-1.799,4.596-2.275c0.773-0.22,0.445-1.426-0.332-1.205c-1.881,0.535-3.803,1.085-5.147,2.596
				C24.183,27.466,25.064,28.353,25.6,27.75L25.6,27.75z"/>
		</g>
	</g>
	<g>
		<g>
			<path d="M30.876,24.795c0.684-2.176,3.021-2.071,4.685-1.088c0.695,0.41,1.323-0.67,0.631-1.079
				c-2.403-1.42-5.592-1.121-6.521,1.835C29.429,25.235,30.636,25.561,30.876,24.795L30.876,24.795z"/>
		</g>
	</g>
	<g>
		<g>
			<path d="M36.286,24.013c0.292-0.044,0.55-0.204,0.763-0.403c0.588-0.554-0.298-1.437-0.884-0.885
				c-0.066,0.063-0.116,0.069-0.211,0.083C35.158,22.927,35.497,24.131,36.286,24.013L36.286,24.013z"/>
		</g>
	</g>
	<g>
		<g>
			<path d="M11.608,29.257c0.013,0.95,0.188,1.866,0.658,2.7c0.788,1.406,2.948,0.146,2.158-1.262
				c-0.253-0.451-0.31-0.927-0.315-1.438C14.087,27.646,11.587,27.644,11.608,29.257L11.608,29.257z"/>
		</g>
	</g>
	<g>
		<g>
			<path d="M14.181,25.381c0.282-0.378,0.571-0.747,0.9-1.087c1.122-1.158-0.644-2.927-1.768-1.768
				c-0.477,0.491-0.882,1.046-1.292,1.593c-0.41,0.545-0.089,1.396,0.447,1.709C13.11,26.203,13.773,25.925,14.181,25.381
				L14.181,25.381z"/>
		</g>
	</g>
	<g>
		<g>
			<path d="M13.069,26.09c0,0.486,0,0.974,0,1.461c0.817-0.111,1.637-0.223,2.455-0.332c-0.063-0.344-0.063-0.696,0-1.04
				c-0.805,0-1.607,0-2.411,0c0.071,0.231,0.107,0.392,0.115,0.563c0.015,0.342,0.053-0.09-0.025,0.215
				c0.02-0.076,0.181-0.215-0.012-0.045c0.653,0.084,1.309,0.168,1.963,0.252c-0.038-0.055-0.124-0.228-0.114-0.15
				c-0.008-0.093-0.009-0.188-0.003-0.279c-0.005,0.207,0.084-0.213-0.005-0.013c0.277-0.623,0.187-1.338-0.448-1.71
				c-0.538-0.314-1.433-0.174-1.71,0.448c-0.427,0.96-0.484,2.059,0.122,2.967c0.468,0.7,1.333,0.803,1.963,0.253
				c0.895-0.779,0.887-2.118,0.565-3.165c-0.339-1.103-2.175-1.282-2.411,0c-0.15,0.817-0.15,1.552,0,2.37
				c0.26,1.416,2.455,1.045,2.455-0.332c0-0.486,0-0.975,0-1.461C15.569,24.478,13.069,24.478,13.069,26.09L13.069,26.09z"/>
		</g>
	</g>
	<g>
		<g>
			<path d="M13.601,27.032c0.197,1.312-0.084,2.61,0.364,3.896c0.528,1.512,2.944,0.861,2.411-0.665
				c-0.43-1.229-0.172-2.616-0.365-3.897c-0.102-0.674-0.939-1.037-1.537-0.873C13.76,25.69,13.499,26.358,13.601,27.032
				L13.601,27.032z"/>
		</g>
	</g>
	<g>
		<g>
			<path d="M16.373,31.227c0.787-1.429,0.788-2.939,0.78-4.527c-0.008-1.612-2.508-1.613-2.5,0c0.006,1.11,0.116,2.258-0.438,3.266
				C13.436,31.378,15.595,32.639,16.373,31.227L16.373,31.227z"/>
		</g>
	</g>
	<g>
		<g>
			<path d="M14.697,26.787c0.225,0.808,0.384,1.629,0.609,2.437c0.432,1.552,2.844,0.892,2.41-0.665
				c-0.225-0.807-0.384-1.629-0.608-2.436C16.676,24.573,14.264,25.233,14.697,26.787L14.697,26.787z"/>
		</g>
	</g>
	<g>
		<g>
			<path d="M17.386,30.092c2.172-1.249,0.299-4.393-0.277-6.04c-0.529-1.511-2.945-0.86-2.411,0.665
				c0.227,0.648,0.514,1.277,0.758,1.921c0.152,0.399,0.28,0.808,0.382,1.222c0.121,0.495-0.086,0.288,0.287,0.073
				C14.728,28.737,15.986,30.898,17.386,30.092L17.386,30.092z"/>
		</g>
	</g>
	<g>
		<g>
			<path d="M14.088,20.399c-0.279,1.365-0.279,2.709,0,4.075c0.323,1.579,2.733,0.909,2.411-0.665c-0.185-0.906-0.185-1.84,0-2.745
				C16.821,19.49,14.412,18.82,14.088,20.399L14.088,20.399z"/>
		</g>
	</g>
	<g>
		<g>
			<path d="M14.332,21.551c0.133,0.808,0.466,1.545,0.731,2.314c0.222,0.644,0.849,1.062,1.538,0.873
				c0.626-0.172,1.095-0.894,0.873-1.539c-0.266-0.769-0.599-1.505-0.731-2.313c-0.111-0.673-0.934-1.039-1.538-0.873
				C14.497,20.208,14.222,20.879,14.332,21.551L14.332,21.551z"/>
		</g>
	</g>
	<g>
		<g>
			<path d="M14.198,19.847c-0.129-0.006-0.353-0.024-0.465-0.073c0.148,0.57,0.299,1.14,0.448,1.71
				c0.491-0.752,1.199-1.219,1.986-1.622c-0.569-0.57-1.14-1.14-1.71-1.71c-0.138,0.317-0.229,0.664-0.365,0.974
				c-0.228,0.524-0.236,1.082,0.195,1.515c0.465,0.465,1.308,0.503,1.769,0c0.708-0.776,0.958-1.674,0.975-2.711
				c0.026-1.613-2.474-1.61-2.5,0c-0.006,0.338-0.005,0.682-0.243,0.943c0.654,0.505,1.31,1.01,1.963,1.515
				c0.139-0.317,0.23-0.664,0.365-0.974c0.492-1.13-0.525-2.317-1.71-1.71c-1.175,0.601-2.159,1.409-2.884,2.519
				c-0.339,0.519-0.157,1.45,0.447,1.71c0.567,0.244,1.106,0.383,1.728,0.414C15.81,22.428,15.802,19.927,14.198,19.847
				L14.198,19.847z"/>
		</g>
	</g>
	<g>
		<g>
			<path d="M14.84,16.603c-0.581,0.221-1.068,0.504-1.525,0.93c-1.182,1.102,0.591,2.866,1.768,1.768
				c0.124-0.116,0.261-0.226,0.423-0.287c0.637-0.242,1.067-0.834,0.873-1.538C16.209,16.866,15.477,16.361,14.84,16.603
				L14.84,16.603z"/>
		</g>
	</g>
	<g>
		<g>
			<path d="M11.031,34.769c2.007,0.086,3.956-0.827,5.39-2.192c1.169-1.114-0.601-2.879-1.768-1.769
				c-0.978,0.931-2.261,1.519-3.622,1.461C9.419,32.2,9.425,34.7,11.031,34.769L11.031,34.769z"/>
		</g>
	</g>
	<g>
		<g>
			<path d="M10.922,34.826c0.431,2.162,2.565,3.424,4.351,4.4c0.687,0.376,1.644,0.059,1.836-0.747
				c0.493-2.063-0.688-4.266-2.7-4.948c0.291,0.514,0.582,1.025,0.873,1.539c0.068-0.234,0.111-0.276,0.345-0.346
				c-0.471-0.191-0.94-0.383-1.412-0.574c0.885,1.36,1.137,3.045,1.827,4.506c0.689,1.457,2.844,0.188,2.159-1.262
				c-0.696-1.471-0.928-3.124-1.827-4.506c-0.304-0.467-0.854-0.736-1.412-0.574c-1.06,0.311-1.781,1.031-2.091,2.092
				c-0.199,0.683,0.236,1.321,0.873,1.537c0.695,0.236,1.118,1.188,0.954,1.873c0.612-0.25,1.224-0.498,1.836-0.748
				c-1.191-0.652-2.91-1.44-3.201-2.906C13.019,32.58,10.609,33.251,10.922,34.826L10.922,34.826z"/>
		</g>
	</g>
	<g>
		<g>
			<path d="M13.114,37.261c0.681,2.367,2.898,3.423,5.136,3.918c1.571,0.347,2.239-2.063,0.665-2.411
				c-1.31-0.29-2.971-0.718-3.39-2.172C15.08,35.05,12.668,35.709,13.114,37.261L13.114,37.261z"/>
		</g>
	</g>
	<g>
		<g>
			<path d="M16.407,37.804c1.174,1.627,1.742,3.573,3.615,4.589c1.417,0.77,2.679-1.39,1.262-2.158
				c-1.396-0.758-1.833-2.467-2.718-3.693c-0.398-0.551-1.08-0.817-1.71-0.447C16.31,36.412,16.007,37.25,16.407,37.804
				L16.407,37.804z"/>
		</g>
	</g>
	<g>
		<g>
			<path d="M16.163,39.996c0.373,0.632,0.867,1.099,1.538,1.4c0.579,0.26,1.198,0.367,1.711,0.754
				c0.21-0.777,0.421-1.554,0.631-2.33c-0.244,0-0.486,0-0.73,0c-1.159,0-1.821,1.813-0.631,2.33
				c1.166,0.506,2.266,0.967,3.554,1.022c1.613,0.069,1.605-2.431,0-2.5c-0.817-0.035-1.551-0.36-2.292-0.683
				c-0.21,0.776-0.421,1.554-0.631,2.33c0.244,0,0.486,0,0.73,0c1.348,0,1.569-1.625,0.631-2.33c-0.667-0.5-1.925-0.53-2.353-1.256
				C17.504,37.347,15.342,38.604,16.163,39.996L16.163,39.996z"/>
		</g>
	</g>
	<g>
		<g>
			<path d="M16.358,40.614c0.732,0.853,1.67,1.455,2.744,1.783c1.546,0.473,2.201-1.941,0.665-2.41
				c-0.658-0.201-1.167-0.591-1.642-1.141c-0.444-0.518-1.312-0.454-1.768,0C15.85,39.355,15.915,40.098,16.358,40.614
				L16.358,40.614z"/>
		</g>
	</g>
	<g>
		<g>
			<path d="M21.627,43.416c0.731,0,1.461,0,2.192,0c-0.295-0.711-0.589-1.424-0.884-2.135c-0.162,0.162-0.325,0.326-0.487,0.487
				c-0.514,0.515-0.505,1.644,0.253,1.964c2.325,0.981,4.988,0.584,7.418,0.247c1.591-0.221,0.911-2.629-0.665-2.411
				c-1.635,0.228-3.917,0.67-5.492,0.004c0.084,0.654,0.169,1.31,0.253,1.963c0.162-0.162,0.325-0.324,0.487-0.486
				c0.771-0.771,0.206-2.135-0.884-2.135c-0.731,0-1.461,0-2.192,0C20.015,40.916,20.015,43.416,21.627,43.416L21.627,43.416z"/>
		</g>
	</g>
	<g>
		<g>
			<path d="M31.292,43.498c1.617-0.245,3.004-0.988,4.506-1.582c0.74-0.293,0.418-1.502-0.332-1.205
				c-1.499,0.593-2.894,1.338-4.506,1.583C30.165,42.414,30.504,43.619,31.292,43.498L31.292,43.498z"/>
		</g>
	</g>
	<g>
		<g>
			<path d="M16.223,17.154c0.466-0.437,0.982-0.785,1.315-1.344c-0.388-0.105-0.776-0.21-1.165-0.315c0,0.528,0,1.055,0,1.583
				c0,0.81,1.212,0.801,1.25,0c0.055-1.165,1.335-1.918,2.131-2.603c0.535-0.461-0.18-1.396-0.757-0.982
				c-1.108,0.795-2.544,1.203-3.146,2.538c-0.175,0.386-0.033,0.771,0.374,0.918c0.872,0.315,1.735,0.265,2.431-0.388
				c0.664-0.625,0.835-1.669,0.918-2.528c0.043-0.444-0.429-0.659-0.791-0.603c-1.413,0.219-1.996,1.604-2.955,2.475
				c-0.598,0.543,0.289,1.424,0.884,0.884c0.768-0.696,1.292-1.981,2.404-2.153c-0.264-0.201-0.527-0.402-0.791-0.603
				c-0.047,0.493-0.147,0.983-0.386,1.42c-0.31,0.566-0.854,0.481-1.38,0.291c0.125,0.306,0.249,0.612,0.374,0.918
				c0.496-1.099,1.779-1.431,2.698-2.09c-0.252-0.327-0.505-0.654-0.757-0.982c-1.124,0.968-2.42,1.869-2.497,3.487
				c0.417,0,0.833,0,1.25,0c0-0.528,0-1.055,0-1.583c0-0.625-0.848-0.849-1.165-0.315c-0.269,0.452-0.743,0.737-1.12,1.091
				C14.75,16.823,15.636,17.705,16.223,17.154L16.223,17.154z"/>
		</g>
	</g>
	<g>
		<g>
			<path d="M19.146,15.815c1.418-1.487,3.14-2.251,4.988-3.069c0.509-0.225,0.34-1.02-0.148-1.142
				c-1.955-0.487-4.149,0.579-5.48,1.988c-0.553,0.585,0.329,1.471,0.885,0.884c1.013-1.073,2.75-2.043,4.263-1.666
				c-0.05-0.381-0.101-0.762-0.149-1.142c-1.951,0.863-3.747,1.698-5.242,3.264C17.706,15.514,18.588,16.399,19.146,15.815
				L19.146,15.815z"/>
		</g>
	</g>
	<g>
		<g>
			<path d="M22.673,13.111c0.913-0.427,1.66-1.044,2.319-1.803c0.272-0.313,0.229-0.97-0.276-1.045
				c-1.275-0.188-1.964,0.559-2.917,1.281c-0.544,0.412-0.249,1.321,0.482,1.142c0.942-0.231,1.864-0.413,2.834-0.244
				c0-0.402,0-0.804,0-1.205c-0.764,0.277-1.543,0.444-2.22,0.916c-0.416,0.29-0.417,1.01,0.148,1.142
				c1.524,0.356,3.023-0.167,4.474-0.609c0.769-0.234,0.44-1.441-0.332-1.205c-1.206,0.367-2.536,0.906-3.809,0.609
				c0.05,0.381,0.101,0.762,0.149,1.142c0.587-0.409,1.258-0.549,1.921-0.79c0.523-0.19,0.665-1.089,0-1.205
				c-1.204-0.21-2.322-0.044-3.499,0.244c0.161,0.381,0.321,0.762,0.481,1.142c0.533-0.403,1.219-1.263,1.954-1.155
				c-0.092-0.348-0.184-0.696-0.275-1.045c-0.594,0.684-1.241,1.222-2.066,1.607C21.312,12.373,21.947,13.45,22.673,13.111
				L22.673,13.111z"/>
		</g>
	</g>
	<g>
		<g>
			<path d="M26.742,12.466c1.035,0.035,1.794-0.286,2.512-1.036c0.305-0.317,0.204-0.952-0.275-1.045
				c-0.8-0.154-2.538,0.392-3.135-0.083c-0.559-0.445-1.291,0.094-0.981,0.757c0.169,0.363,0.444,0.679,0.707,0.979
				c0.042-0.327,0.084-0.654,0.126-0.982c0.089,0,0.177,0,0.266,0c0,0.36,0,0.72,0,1.079c1.292-0.799,2.122-1.524,2.258-3.097
				c-0.312,0.18-0.627,0.36-0.939,0.54c1.185,0.888,1.602,2.131,3.283,1.89c0.386-0.055,0.587-0.613,0.374-0.918
				c-1.542-2.209-2.701-0.898-4.726-0.287c-0.661,0.2-0.557,1.255,0.166,1.228c1.263-0.048,2.411-0.45,3.654-0.609
				c0.365-0.047,0.725-0.135,1.092-0.162c-0.303-0.371-0.46-0.36-0.471,0.031c-0.081,0.268-0.164,0.535-0.249,0.802
				c-0.102,0.321,0.115,0.687,0.437,0.769c1.202,0.307,1.759-0.409,1.987-1.533c-0.381,0.05-0.762,0.1-1.142,0.149
				c0.081,0.317,0.162,0.635,0.243,0.952c-0.328,0.746,0.59,1.269,1.079,0.631c0.33-0.43,0.501-0.733,0.672-1.245
				c-0.348,0.092-0.695,0.184-1.045,0.276c0.268,0.238,0.479,0.521,0.634,0.848c0.375,0.714,1.454,0.082,1.079-0.631
				c-0.226-0.428-0.491-0.752-0.828-1.101c-0.343-0.353-0.9-0.158-1.045,0.276c-0.118,0.355-0.301,0.671-0.547,0.947
				c0.36,0.21,0.721,0.421,1.079,0.631c0.386-0.874,0.314-1.423-0.244-2.214c-0.283-0.403-1.024-0.428-1.142,0.149
				c0.015,0.321-0.135,0.541-0.449,0.66c0.146,0.256,0.291,0.513,0.438,0.769c0.194-0.62,0.865-2.087-0.187-2.376
				c-1.482-0.408-3.544,0.675-5.045,0.733c0.056,0.409,0.111,0.818,0.166,1.228c1.129-0.341,2.341-1.68,3.313-0.287
				c0.125-0.306,0.249-0.612,0.374-0.918c-0.892,0.128-1.659-1.269-2.32-1.764c-0.416-0.312-0.904,0.123-0.94,0.54
				c-0.1,1.148-0.809,1.505-1.639,2.018c-0.376,0.233-0.435,0.862,0,1.079c0.396,0.197,0.602,0.197,0.996,0
				c0.381-0.191,0.375-0.697,0.126-0.982c-0.197-0.226-0.384-0.453-0.511-0.726c-0.327,0.252-0.654,0.505-0.982,0.757
				c1.118,0.889,2.396,0.155,3.687,0.404c-0.093-0.348-0.185-0.696-0.276-1.045c-0.397,0.531-0.941,0.754-1.628,0.669
				C25.935,11.189,25.938,12.439,26.742,12.466L26.742,12.466z"/>
		</g>
	</g>
	<g>
		<g>
			<path d="M31.729,9.848c-0.292-1.259-1.735-1.147-2.727-0.933c-0.488,0.106-1.028,0.287-1.46,0.546
				c-0.246,0.148-0.458,0.376-0.665,0.571c-0.095,0.09-0.192,0.178-0.293,0.262c-0.221,0.192-0.073,0.261-0.214-0.203
				c-0.234-0.769-1.44-0.441-1.204,0.332c0.384,1.258,1.272,1.559,2.303,0.754c0.441-0.344,0.716-0.679,1.25-0.877
				c0.283-0.105,1.699-0.577,1.806-0.121C30.706,10.965,31.911,10.632,31.729,9.848L31.729,9.848z"/>
		</g>
	</g>
	<g>
		<g>
			<path d="M10.407,8.114C9.965,8.743,9.648,9.355,9.056,9.866c1.066,0.442,2.134,0.884,3.2,1.326c0-0.223,0-0.447,0-0.67
				c0-1.63-2.047-2.49-3.2-1.326c-2.706,2.729-6.024,6.652-5.848,10.703c1.067-0.442,2.134-0.884,3.201-1.326
				c-0.105-0.137-0.211-0.275-0.316-0.412c-1.028-1.415-3.531-1.066-3.493,0.946c0.019,1.034,0.404,1.736,0.736,2.691
				c0.409,1.177,2.195,2.034,3.134,0.827c0.293-0.204,0.586-0.409,0.878-0.613c2.378-0.422,1.366-4.036-0.997-3.616
				c-1.117,0.198-1.839,0.686-2.532,1.578c1.045,0.276,2.089,0.552,3.134,0.827c-0.163-0.469-0.594-1.208-0.603-1.694
				c-1.165,0.315-2.329,0.631-3.494,0.946c0.291,0.4,0.589,0.788,0.901,1.171c1.043,1.278,3.27,0.221,3.201-1.326
				c-0.128-2.931,2.804-6.091,4.749-8.052c-1.066-0.442-2.134-0.884-3.201-1.326c0,0.223,0,0.447,0,0.67
				c0,1.726,2,2.361,3.201,1.326c0.83-0.716,1.313-1.622,1.938-2.511C15.039,8.023,11.786,6.152,10.407,8.114L10.407,8.114z"/>
		</g>
	</g>
	<g>
		<g>
			<path d="M8.719,20.702c0.633-1.844,0.52-3.845,2.131-5.171c0.653-0.538,1.319-1.053,1.953-1.613
				c0.729-0.646,1.039-1.654,1.874-2.203c2.011-1.323,0.135-4.572-1.893-3.238c-0.942,0.62-1.575,1.373-2.233,2.278
				c-0.738,1.017-1.872,1.728-2.835,2.521c-1.902,1.566-1.881,4.294-2.612,6.43C4.316,21.999,7.939,22.976,8.719,20.702
				L8.719,20.702z"/>
		</g>
	</g>
	<g>
		<g>
			<path d="M13.956,9.072c0.318-0.825,1.562-1.357,2.272-1.752c1.081-0.6,2.216-1.613,3.422-1.871
				c2.364-0.506,1.36-4.121-0.997-3.616c-1.677,0.359-3.151,1.602-4.637,2.426c-1.634,0.906-2.992,2.045-3.677,3.816
				C9.468,10.334,13.095,11.303,13.956,9.072L13.956,9.072z"/>
		</g>
	</g>
	<g>
		<g>
			<path d="M13.986,11.477c1.342-0.273,2.292-1.116,3.252-2.037c0.934-0.897,2.372-1.641,3.629-1.921
				c2.36-0.524,1.359-4.14-0.997-3.616c-1.34,0.298-2.569,0.998-3.733,1.703c-1.057,0.64-1.929,2.007-3.147,2.255
				C10.62,8.342,11.625,11.957,13.986,11.477L13.986,11.477z"/>
		</g>
	</g>
	<g>
		<g>
			<path d="M26.977,2.083c-0.17-0.082-0.338-0.139-0.507-0.196c0.323,0.359,0.619,0.745,0.942,1.123
				c0.5,0.585-0.345,1.437-0.849,0.849c-0.213-0.249-0.414-0.51-0.619-0.766c0.068,0.246,0.126,0.494,0.171,0.744
				c0.351,0.438-0.189,1.207-0.79,0.882c-0.515-0.278-1.005-0.596-1.503-0.897c0.259,0.351,0.523,0.699,0.767,1.061
				c0.227,0.338,0.044,0.649-0.238,0.789c-0.088,0.136-0.23,0.234-0.434,0.246c-0.139,0.056-0.299,0.053-0.467-0.074
				c-1.061-0.799-1.444-2.086-2.246-3.094c-0.224-0.281-0.152-0.614,0.032-0.83c0.004-0.007,0.01-0.013,0.014-0.02
				c0.008-0.008,0.012-0.019,0.02-0.027c0.181-0.281,0.562-0.429,0.86-0.136c0.946,0.253,1.77,0.733,2.59,1.234
				c-0.1-0.373-0.198-0.747-0.229-1.136c-0.084,0.018-0.168,0.032-0.254,0.062c-0.263,0.091-0.521,0.211-0.774,0.335
				c-0.367-0.556-0.99-0.935-1.641-0.914c-0.238-0.066-0.482-0.106-0.723-0.099C19.89,1.25,18.955,2.392,19.29,3.591
				c0.16,0.573,0.441,1.026,0.825,1.351c0.02,0.047,0.036,0.09,0.057,0.14c0.301,0.675,0.896,1.031,1.555,1.283
				c0.759,0.291,1.708-0.001,2.409-0.298C24.433,5.941,24.715,5.795,25,5.645c0.512-0.269,0.571-0.089,0.085-0.324
				c0.92,0.446,2.021,0.259,2.565-0.673C28.135,3.818,27.897,2.528,26.977,2.083z"/>
		</g>
	</g>
	<g>
		<g>
			<path d="M27.65,2.755c-0.346-0.685-1.008-1.196-1.746-1.414c0.575,0.487,1.01,1.086,1.509,1.669
				c0.5,0.585-0.345,1.437-0.849,0.849c-0.213-0.249-0.414-0.51-0.619-0.766c0.068,0.246,0.126,0.494,0.171,0.744
				c0.351,0.438-0.189,1.207-0.79,0.882c-0.515-0.278-1.005-0.596-1.503-0.897c0.259,0.351,0.523,0.699,0.767,1.061
				c0.018,0.027,0.02,0.053,0.033,0.081c0.562,0.65,1.62,0.789,2.354,0.359C27.899,4.781,28.11,3.668,27.65,2.755z"/>
		</g>
	</g>
	<g>
		<g>
			<path d="M23.124,0.82c-0.081,0.064-0.169,0.123-0.25,0.188c-0.446,0.354-0.058,1.067,0.442,1.067
				c0.124,0,0.249-0.007,0.372,0.007c-0.147-0.356-0.295-0.711-0.442-1.067c0.13-0.164-0.04,0.025-0.09,0.081
				c-0.244,0.276-0.225,0.606,0,0.884c0.01,0.012,0.02,0.025,0.03,0.037c0.508,0.626,1.387-0.264,0.884-0.884
				c-0.01-0.012-0.02-0.025-0.03-0.037c0,0.295,0,0.589,0,0.884c-0.11,0.125,0.048-0.028,0.09-0.081
				c0.353-0.448,0.124-1.001-0.442-1.067c-0.123-0.014-0.249-0.007-0.372-0.007c0.147,0.356,0.295,0.711,0.442,1.067
				c0.081-0.064,0.169-0.123,0.25-0.188C24.639,1.203,23.748,0.325,23.124,0.82L23.124,0.82z"/>
		</g>
	</g>
	<g>
		<g>
			<path d="M24.07,1.133c-0.021-0.021-0.042-0.042-0.062-0.062c-0.57-0.57-1.454,0.313-0.884,0.884
				c0.021,0.021,0.042,0.042,0.062,0.062C23.757,2.587,24.64,1.703,24.07,1.133L24.07,1.133z"/>
		</g>
	</g>
	<g>
		<g>
			<path d="M23.128,1.825c0.806,0,0.806-1.25,0-1.25S22.322,1.825,23.128,1.825L23.128,1.825z"/>
		</g>
	</g>
	<g>
		<g>
			<path d="M23.253,1.762c0.806,0,0.806-1.25,0-1.25S22.447,1.762,23.253,1.762L23.253,1.762z"/>
		</g>
	</g>
	<g>
		<g>
			<path d="M23.566,1.95c0.806,0,0.806-1.25,0-1.25S22.759,1.95,23.566,1.95L23.566,1.95z"/>
		</g>
	</g>
	<g>
		<g>
			<path d="M23.691,2.137c0.806,0,0.806-1.25,0-1.25S22.884,2.137,23.691,2.137L23.691,2.137z"/>
		</g>
	</g>
	<g>
		<g>
			<path d="M23.816,2.2c0.806,0,0.806-1.25,0-1.25S23.009,2.2,23.816,2.2L23.816,2.2z"/>
		</g>
	</g>
	<g>
		<g>
			<path d="M23.378,2.012c0.806,0,0.806-1.25,0-1.25S22.572,2.012,23.378,2.012L23.378,2.012z"/>
		</g>
	</g>
	<g>
		<g>
			<path d="M23.378,1.95c0.806,0,0.806-1.25,0-1.25S22.572,1.95,23.378,1.95L23.378,1.95z"/>
		</g>
	</g>
	<g>
		<g>
			<path d="M23.566,2.137c0.806,0,0.806-1.25,0-1.25S22.759,2.137,23.566,2.137L23.566,2.137z"/>
		</g>
	</g>
	<g>
		<g>
			<path d="M23.628,2.262c0.806,0,0.806-1.25,0-1.25S22.822,2.262,23.628,2.262L23.628,2.262z"/>
		</g>
	</g>
	<g>
		<g>
			<path d="M23.753,2.262c0.806,0,0.806-1.25,0-1.25S22.947,2.262,23.753,2.262L23.753,2.262z"/>
		</g>
	</g>
	<g>
		<g>
			<path d="M23.816,2.262c0.806,0,0.806-1.25,0-1.25S23.009,2.262,23.816,2.262L23.816,2.262z"/>
		</g>
	</g>
	<g>
		<g>
			<path d="M23.878,2.262c0.806,0,0.806-1.25,0-1.25S23.072,2.262,23.878,2.262L23.878,2.262z"/>
		</g>
	</g>
</g>
</svg>
