<?xml version="1.0" encoding="utf-8"?>
<!-- Generator: Adobe Illustrator 16.0.0, SVG Export Plug-In . SVG Version: 6.00 Build 0)  -->
<!DOCTYPE svg PUBLIC "-//W3C//DTD SVG 1.1//EN" "http://www.w3.org/Graphics/SVG/1.1/DTD/svg11.dtd">
<svg version="1.1" id="Layer_1" xmlns="http://www.w3.org/2000/svg" xmlns:xlink="http://www.w3.org/1999/xlink" x="0px" y="0px"
	 width="47.786px" height="48.482px" viewBox="0 0 47.786 48.482" enable-background="new 0 0 47.786 48.482" xml:space="preserve">
<g>
	<g>
		<g>
			<path d="M0,9.378c0,3.732,0,7.466,0,11.198c0,0.806,1.25,0.806,1.25,0c0-3.732,0-7.466,0-11.198C1.25,8.572,0,8.572,0,9.378
				L0,9.378z"/>
		</g>
	</g>
	<g>
		<g>
			<path d="M1.039,10.229c4.805-0.673,9.803-2.299,13.837-5.039c0.662-0.45,0.038-1.534-0.631-1.08
				C10.287,6.798,5.424,8.362,0.707,9.023C-0.089,9.135,0.251,10.339,1.039,10.229L1.039,10.229z"/>
		</g>
	</g>
	<g>
		<g>
			<path d="M14.743,5.438c0.992,0.473,1.966,0.582,3.054,0.583c0.806,0.001,0.806-1.249,0-1.25c-0.853-0.001-1.64-0.04-2.423-0.413
				C14.65,4.013,14.016,5.091,14.743,5.438L14.743,5.438z"/>
		</g>
	</g>
	<g>
		<g>
			<path d="M17.979,5.687c3.216,1.971,7.17,2.917,10.215,0.151c0.598-0.544-0.289-1.425-0.885-0.885
				c-2.607,2.37-6.016,1.299-8.699-0.347C17.92,4.185,17.293,5.266,17.979,5.687L17.979,5.687z"/>
		</g>
	</g>
	<g>
		<g>
			<path d="M27.834,5.5c1.625,0.52,3.398,0.777,4.96-0.062c0.71-0.383,0.079-1.462-0.631-1.08c-1.251,0.674-2.715,0.347-3.997-0.062
				C27.396,4.049,27.069,5.256,27.834,5.5L27.834,5.5z"/>
		</g>
	</g>
	<g>
		<g>
			<path d="M32.412,5.438c4.498,2.789,8.938,4.251,14.251,4.317c0.807,0.01,0.806-1.24,0-1.25c-5.115-0.063-9.294-1.464-13.62-4.147
				C32.355,3.932,31.729,5.014,32.412,5.438L32.412,5.438z"/>
		</g>
	</g>
	<g>
		<g>
			<path d="M46.559,9.212c-0.856,3.464-0.089,6.867-0.022,10.368c0.016,0.805,1.266,0.807,1.25,0
				c-0.064-3.378-0.85-6.691-0.022-10.036C47.957,8.762,46.752,8.43,46.559,9.212L46.559,9.212z"/>
		</g>
	</g>
	<g>
		<g>
			<path d="M0.625,21.699c3.67,0.15,6.965-1.037,10.37-2.262c0.753-0.271,0.429-1.479-0.332-1.205
				c-3.297,1.186-6.476,2.362-10.038,2.217C-0.182,20.416-0.178,21.666,0.625,21.699L0.625,21.699z"/>
		</g>
	</g>
	<g>
		<g>
			<path d="M10.7,18.585c0,7.964,0,15.928,0,23.892c0,0.806,1.25,0.806,1.25,0c0-7.964,0-15.928,0-23.892
				C11.95,17.779,10.7,17.779,10.7,18.585L10.7,18.585z"/>
		</g>
	</g>
	<g>
		<g>
			<path d="M10.883,43.167c6.478,5.939,18.717,3.719,25.189-1.146c0.636-0.479,0.014-1.564-0.631-1.08
				c-5.995,4.507-17.637,6.879-23.674,1.342C11.175,41.739,10.288,42.621,10.883,43.167L10.883,43.167z"/>
		</g>
	</g>
	<g>
		<g>
			<path d="M35.359,18.585c0.046,7.557,0.605,15.114-0.228,22.647c-0.089,0.801,1.162,0.792,1.25,0
				c0.833-7.533,0.273-15.091,0.228-22.647C36.604,17.779,35.354,17.778,35.359,18.585L35.359,18.585z"/>
		</g>
	</g>
	<g>
		<g>
			<path d="M35.648,18.877c3.503,1.681,7.215,1.592,11.015,1.578c0.806-0.003,0.807-1.253,0-1.25
				c-3.543,0.013-7.107,0.165-10.384-1.408C35.557,17.45,34.922,18.528,35.648,18.877L35.648,18.877z"/>
		</g>
	</g>
	<g>
		<g>
			<g>
				<path fill="#010101" d="M15.174,13.934c1.539,1.151,1.87,3.194,1.845,5c-0.002,0.12,0.184,0.12,0.186,0
					c0.025-1.883-0.343-3.967-1.938-5.159C15.172,13.703,15.08,13.862,15.174,13.934L15.174,13.934z"/>
			</g>
		</g>
		<g>
			<g>
				<path fill="#010101" d="M17.248,19.181c4.268-0.628,8.598-0.314,12.879,0.004c0.118,0.01,0.117-0.176,0-0.185
					c-4.299-0.321-8.644-0.628-12.929,0.003C17.079,19.02,17.131,19.199,17.248,19.181L17.248,19.181z"/>
			</g>
		</g>
		<g>
			<g>
				<path fill="#010101" d="M30.144,19.156c-0.055-1.864,0.519-3.881,1.978-5.126c0.089-0.077-0.043-0.208-0.134-0.132
					c-1.49,1.275-2.084,3.349-2.027,5.258C29.962,19.276,30.148,19.276,30.144,19.156L30.144,19.156z"/>
			</g>
		</g>
		<g>
			<g>
				<path fill="#010101" d="M15.212,13.81c0.454-0.562,1.115-0.891,1.818-1.016c0.118-0.021,0.068-0.2-0.049-0.179
					c-0.73,0.13-1.429,0.479-1.9,1.062C15.007,13.771,15.137,13.899,15.212,13.81L15.212,13.81z"/>
			</g>
		</g>
		<g>
			<g>
				<path fill="#010101" d="M16.981,12.869c1.265,0.346,2.229,1.912,2.524,3.123c0.029,0.115,0.208,0.067,0.179-0.051
					c-0.312-1.273-1.321-2.887-2.654-3.254C16.915,12.658,16.865,12.837,16.981,12.869L16.981,12.869z"/>
			</g>
		</g>
		<g>
			<g>
				<path fill="#010101" d="M19.619,16.223c1.378-0.356,2.765-0.677,4.192-0.702c1.424-0.024,2.81,0.355,4.139,0.825
					c0.113,0.041,0.163-0.139,0.05-0.178c-1.361-0.482-2.739-0.824-4.188-0.832c-1.434-0.007-2.859,0.353-4.24,0.707
					C19.455,16.072,19.505,16.25,19.619,16.223L19.619,16.223z"/>
			</g>
		</g>
		<g>
			<g>
				<path fill="#010101" d="M28.064,16.289c0.193-1.279,1.269-2.853,2.531-3.272c-0.018-0.061-0.032-0.12-0.051-0.179
					c-0.144,0.058-0.164,0.064-0.288,0.138c-0.103,0.06-0.009,0.221,0.094,0.159c0.082-0.04,0.163-0.077,0.245-0.118
					c0.108-0.044,0.065-0.217-0.051-0.179c-1.322,0.44-2.455,2.055-2.658,3.402C27.868,16.355,28.047,16.407,28.064,16.289
					L28.064,16.289z"/>
			</g>
		</g>
		<g>
			<g>
				<path fill="#010101" d="M30.619,12.943c0.503,0.15,1.022,0.446,1.28,0.92c0.056,0.104,0.218,0.013,0.16-0.093
					c-0.28-0.518-0.842-0.842-1.39-1.007C30.555,12.729,30.506,12.907,30.619,12.943L30.619,12.943z"/>
			</g>
		</g>
		<g>
			<g>
				<path fill="#010101" d="M18.434,13.741c3.407-1.17,7.186-1.3,10.533,0.146c0.109,0.047,0.201-0.112,0.093-0.161
					c-3.393-1.466-7.216-1.352-10.676-0.165C18.271,13.602,18.32,13.779,18.434,13.741L18.434,13.741z"/>
			</g>
		</g>
		<g>
			<g>
				<path fill="#010101" d="M18.159,19.076c-0.072-0.034-0.141-0.008-0.172,0.066c-0.059,0.14,0.136,0.401,0.194,0.506
					c0.016,0.027,0.047,0.045,0.079,0.045c0.235,0,0.495,0.009,0.715-0.087c0.028-0.012,0.044-0.052,0.044-0.079
					c0-0.199,0-0.396,0-0.594c0-0.119-0.183-0.119-0.183,0c0,0.197,0,0.395,0,0.594c0.014-0.027,0.029-0.054,0.044-0.081
					c-0.183,0.081-0.423,0.062-0.62,0.062c0.027,0.016,0.053,0.031,0.081,0.045c-0.062-0.108-0.127-0.218-0.167-0.336
					c-0.024-0.077-0.053,0.045-0.108,0.019C18.173,19.286,18.268,19.127,18.159,19.076L18.159,19.076z"/>
			</g>
		</g>
		<g>
			<g>
				<path fill="#010101" d="M28.328,19.082c0,0.148,0,0.296,0,0.445c0,0.042,0.028,0.076,0.067,0.088
					c0.204,0.066,0.405,0.078,0.618,0.078c0.029,0,0.067-0.016,0.079-0.045c0.079-0.176,0.088-0.376,0.088-0.566
					c0-0.12-0.187-0.12-0.187,0c0,0.153,0.003,0.328-0.061,0.471c0.026-0.014,0.053-0.029,0.08-0.045
					c-0.196,0-0.381-0.011-0.569-0.07c0.023,0.03,0.047,0.06,0.067,0.09c0-0.149,0-0.297,0-0.445
					C28.512,18.962,28.328,18.962,28.328,19.082L28.328,19.082z"/>
			</g>
		</g>
	</g>
</g>
<g>
	<g>
		<path d="M17.748,19.44c3.99,0.458,7.995,0.188,12,0.167c0.806-0.004,0.807-1.254,0-1.25c-4.005,0.021-8.01,0.291-12-0.167
			C16.948,18.099,16.957,19.35,17.748,19.44L17.748,19.44z"/>
	</g>
</g>
<g>
	<g>
		<path d="M15.415,14.251c1.153,0.455,1,2.566,1.23,3.563c0.181,0.785,1.387,0.452,1.205-0.332
			c-0.383-1.658-0.229-3.698-2.104-4.437C14.996,12.75,14.674,13.959,15.415,14.251L15.415,14.251z"/>
	</g>
</g>
<g>
	<g>
		<path d="M17.472,13.425c0.76,0.784,1.252,1.738,1.736,2.706c0.361,0.721,1.439,0.088,1.08-0.631
			c-0.533-1.065-1.097-2.097-1.932-2.96C17.794,11.961,16.911,12.846,17.472,13.425L17.472,13.425z"/>
	</g>
</g>
<g>
	<g>
		<path d="M19.748,16.607c2.423,0.212,5.162-1.213,7.351,0.248c0.673,0.448,1.298-0.635,0.631-1.08
			c-2.481-1.655-5.271-0.181-7.981-0.418C18.944,15.287,18.951,16.538,19.748,16.607L19.748,16.607z"/>
	</g>
</g>
<g>
	<g>
		<path d="M28.017,16.648c0.175-1.256,0.979-2.377,2.23-2.73c0.774-0.219,0.445-1.425-0.332-1.205
			c-1.636,0.462-2.87,1.927-3.104,3.604C26.701,17.104,27.906,17.444,28.017,16.648L28.017,16.648z"/>
	</g>
</g>
<g>
	<g>
		<path d="M30.248,13.773c0.357,0.01,0.78,0.071,1.058,0.317c0.602,0.532,1.489-0.349,0.885-0.885
			c-0.538-0.476-1.234-0.663-1.942-0.683C29.441,12.502,29.443,13.752,30.248,13.773L30.248,13.773z"/>
	</g>
</g>
<g>
	<g>
		<path d="M31.208,13.5c-0.836,1.662-1.682,3.279-1.919,5.148c-0.102,0.798,1.149,0.788,1.25,0c0.207-1.626,1.023-3.076,1.749-4.518
			C32.648,13.413,31.57,12.779,31.208,13.5L31.208,13.5z"/>
	</g>
</g>
<g>
	<g>
		<path d="M19.08,14.251c2.704-0.408,6.028-1.769,8.519-0.062c0.667,0.456,1.291-0.627,0.631-1.08
			c-2.817-1.929-6.43-0.523-9.481-0.062C17.953,13.166,18.292,14.37,19.08,14.251L19.08,14.251z"/>
	</g>
</g>
<g>
	<g>
		<path d="M18.748,20.585c0.785,0.251,1.315,0.008,1.603-0.771c0.279-0.758-0.929-1.082-1.205-0.332
			c-0.076,0.139-0.01,0.13,0.198-0.025c-0.062,0.005-0.208-0.06-0.264-0.077C18.31,19.134,17.983,20.341,18.748,20.585
			L18.748,20.585z"/>
	</g>
</g>
<g>
	<g>
		<path d="M28.523,19.373c-0.056-0.056-0.111-0.111-0.167-0.167c-0.571-0.57-1.455,0.313-0.885,0.885
			c0.056,0.056,0.111,0.111,0.167,0.167C28.21,20.828,29.094,19.944,28.523,19.373L28.523,19.373z"/>
	</g>
</g>
<g>
	<g>
		<path d="M16.288,13.798c0.218-0.289,0.645-0.279,0.96-0.213c0.786,0.167,1.12-1.038,0.332-1.205
			c-0.933-0.198-1.785,0.01-2.372,0.787C14.723,13.811,15.809,14.433,16.288,13.798L16.288,13.798z"/>
	</g>
</g>
<g>
	<g>
		<path d="M16.972,18.425c0.056,0.055,0.111,0.11,0.167,0.166c0.572,0.568,1.456-0.315,0.885-0.885
			c-0.056-0.055-0.111-0.11-0.167-0.166C17.284,16.972,16.4,17.855,16.972,18.425L16.972,18.425z"/>
	</g>
</g>
</svg>
