<?xml version="1.0" encoding="utf-8"?>
<!-- Generator: Adobe Illustrator 16.0.0, SVG Export Plug-In . SVG Version: 6.00 Build 0)  -->
<!DOCTYPE svg PUBLIC "-//W3C//DTD SVG 1.1//EN" "http://www.w3.org/Graphics/SVG/1.1/DTD/svg11.dtd">
<svg version="1.1" id="Layer_1" xmlns="http://www.w3.org/2000/svg" xmlns:xlink="http://www.w3.org/1999/xlink" x="0px" y="0px"
	 width="45.178px" height="45.344px" viewBox="0 0 45.178 45.344" enable-background="new 0 0 45.178 45.344" xml:space="preserve">
<g>
	<g>
		<g>
			<path d="M38.417,1.708c1.374-0.094,2.741,0.01,3.913,0.795c1.217,0.815,1.362,2.432,1.15,3.748
				c-0.127,0.788,1.077,1.126,1.205,0.332c0.271-1.683,0.096-3.312-1.082-4.617c-1.268-1.405-3.42-1.628-5.187-1.508
				C37.617,0.513,37.612,1.763,38.417,1.708L38.417,1.708z"/>
		</g>
	</g>
	<g>
		<g>
			<path d="M1.375,6.5c0.013-1.362,0.09-2.907,1.09-3.944C3.473,1.511,5.291,1.511,6.625,1.5c0.806-0.006,0.806-1.256,0-1.25
				c-1.727,0.014-3.512,0.165-4.9,1.29c-1.418,1.148-1.584,3.283-1.6,4.96C0.117,7.307,1.367,7.306,1.375,6.5L1.375,6.5z"/>
		</g>
	</g>
	<g>
		<g>
			<path d="M40,45c1.338,0.139,2.766,0.063,3.786-0.917c0.962-0.926,1.078-2.459,1.089-3.708c0.007-0.807-1.243-0.806-1.25,0
				c-0.008,0.951-0.042,2.081-0.724,2.823C42.204,43.959,40.92,43.846,40,43.75C39.198,43.667,39.206,44.918,40,45L40,45z"/>
		</g>
	</g>
	<g>
		<g>
			<path d="M4.084,43.772C2.266,44.306,1.524,41.892,1.5,40.5c-0.014-0.805-1.264-0.807-1.25,0c0.039,2.239,1.465,5.27,4.166,4.478
				C5.188,44.751,4.859,43.545,4.084,43.772L4.084,43.772z"/>
		</g>
	</g>
	<g>
		<g>
			<path d="M4.5,45.125c3.044,0.06,6.081-0.187,9.125-0.125c3.368,0.067,6.449,0.753,9.791-0.022
				c0.785-0.182,0.452-1.387-0.332-1.205c-3.211,0.744-6.233,0.191-9.459-0.022c-3.028-0.2-6.091,0.184-9.125,0.125
				C3.693,43.859,3.695,45.109,4.5,45.125L4.5,45.125z"/>
		</g>
	</g>
	<g>
		<g>
			<path d="M31.567,45.125c2.77,0,5.538,0,8.308,0c0.806,0,0.806-1.25,0-1.25c-2.77,0-5.538,0-8.308,0
				C30.762,43.875,30.762,45.125,31.567,45.125L31.567,45.125z"/>
		</g>
	</g>
	<g>
		<g>
			<path d="M24.125,44.375c0.564-5.501,0.263-10.998-0.125-16.5c-0.057-0.8-1.307-0.805-1.25,0c0.388,5.502,0.689,10.999,0.125,16.5
				C22.792,45.177,24.044,45.169,24.125,44.375L24.125,44.375z"/>
		</g>
	</g>
	<g>
		<g>
			<path d="M23.125,27.125c-1.584,0.009-3.167,0.111-4.75,0c-0.805-0.057-0.799,1.193,0,1.25c1.583,0.111,3.166,0.009,4.75,0
				C23.931,28.37,23.932,27.12,23.125,27.125L23.125,27.125z"/>
		</g>
	</g>
	<g>
		<g>
			<path d="M18.625,27.625c0.222-2.122,0.134-4.246,0.125-6.375c-0.003-0.806-1.253-0.807-1.25,0
				c0.009,2.129,0.097,4.253-0.125,6.375C17.291,28.427,18.542,28.418,18.625,27.625L18.625,27.625z"/>
		</g>
	</g>
	<g>
		<g>
			<path d="M18.125,21.5c1.746,0.222,3.496,0.134,5.25,0.125c0.806-0.004,0.807-1.254,0-1.25c-1.754,0.009-3.504,0.097-5.25-0.125
				C17.327,20.148,17.336,21.4,18.125,21.5L18.125,21.5z"/>
		</g>
	</g>
	<g>
		<g>
			<path d="M24,21c0.396-4.09-0.002-7.878,3.081-11.088c2.308-2.403,7.263-2.949,10.253-1.935c0.766,0.26,1.091-0.947,0.332-1.205
				C34.29,5.627,29.427,6.32,26.65,8.647C22.784,11.89,23.191,16.45,22.75,21C22.672,21.803,23.923,21.795,24,21L24,21z"/>
		</g>
	</g>
	<g>
		<g>
			<path d="M36.875,7.375c0,1.875,0,3.75,0,5.625c0,0.806,1.25,0.806,1.25,0c0-1.875,0-3.75,0-5.625
				C38.125,6.569,36.875,6.569,36.875,7.375L36.875,7.375z"/>
		</g>
	</g>
	<g>
		<g>
			<path d="M37.5,12.5c-2.098,0.022-4.661,0.225-6.202,1.829c-1.465,1.525-1.067,4.146-1.048,6.046c0.008,0.806,1.258,0.807,1.25,0
				c-0.017-1.656-0.301-3.496,0.561-4.994c0.912-1.586,3.88-1.614,5.439-1.631C38.306,13.741,38.307,12.491,37.5,12.5L37.5,12.5z"/>
		</g>
	</g>
	<g>
		<g>
			<path d="M30.875,21c2.122,0.222,4.246,0.134,6.375,0.125c0.806-0.003,0.807-1.253,0-1.25c-2.129,0.009-4.253,0.097-6.375-0.125
				C30.073,19.666,30.082,20.917,30.875,21L30.875,21z"/>
		</g>
	</g>
	<g>
		<g>
			<path d="M36.625,20.5c0.176,2.28-0.565,4.479-0.625,6.75c-0.021,0.807,1.229,0.805,1.25,0c0.06-2.273,0.801-4.465,0.625-6.75
				C37.813,19.701,36.563,19.695,36.625,20.5L36.625,20.5z"/>
		</g>
	</g>
	<g>
		<g>
			<path d="M36.5,26.75c-1.862,0.018-3.7,0.26-5.541,0.522c-0.796,0.113-0.456,1.317,0.332,1.205
				C33.022,28.23,34.749,28.017,36.5,28C37.306,27.992,37.307,26.742,36.5,26.75L36.5,26.75z"/>
		</g>
	</g>
	<g>
		<g>
			<path d="M30.25,27.875c0,2.875,0,5.75,0,8.625c0,2.599,0.521,5.146,0.375,7.75c-0.045,0.806,1.205,0.802,1.25,0
				c0.145-2.596-0.297-5.158-0.375-7.75c-0.086-2.869,0-5.755,0-8.625C31.5,27.069,30.25,27.069,30.25,27.875L30.25,27.875z"/>
		</g>
	</g>
	<g>
		<g>
			<path d="M7,1.375C12,1.366,17,1.26,22,1.25c0.806-0.002,0.806-1.252,0-1.25C17,0.01,12,0.116,7,0.125
				C6.194,0.127,6.194,1.377,7,1.375L7,1.375z"/>
		</g>
	</g>
	<g>
		<g>
			<path d="M22.25,1.25c5.169,0.027,10.331,0.348,15.5,0.375c0.807,0.004,0.806-1.246,0-1.25C32.581,0.348,27.419,0.027,22.25,0
				C21.444-0.004,21.444,1.246,22.25,1.25L22.25,1.25z"/>
		</g>
	</g>
	<g>
		<g>
			<path d="M0.125,6.625c0.042,4.548,0.555,9.09,0,13.625c-0.098,0.799,1.153,0.789,1.25,0c0.555-4.535,0.042-9.077,0-13.625
				C1.368,5.819,0.118,5.818,0.125,6.625L0.125,6.625z"/>
		</g>
	</g>
	<g>
		<g>
			<path d="M1.25,40.25c0.018-3.668,0.231-7.332,0.25-11c0.004-0.807-1.246-0.806-1.25,0c-0.019,3.668-0.232,7.332-0.25,11
				C-0.004,41.057,1.246,41.056,1.25,40.25L1.25,40.25z"/>
		</g>
	</g>
	<g>
		<g>
			<path d="M1.5,29c0.009-2.834,0.116-5.666,0.125-8.5c0.002-0.807-1.248-0.806-1.25,0C0.366,23.334,0.259,26.166,0.25,29
				C0.248,29.807,1.498,29.806,1.5,29L1.5,29z"/>
		</g>
	</g>
	<g>
		<g>
			<path d="M43.625,6.625c0,3.333,0,6.667,0,10c0,0.806,1.25,0.806,1.25,0c0-3.333,0-6.667,0-10
				C44.875,5.819,43.625,5.819,43.625,6.625L43.625,6.625z"/>
		</g>
	</g>
	<g>
		<g>
			<path d="M43.625,16.875c0.454,4.074,0.267,8.16,0.25,12.25c-0.003,0.807,1.247,0.806,1.25,0c0.017-4.09,0.204-8.176-0.25-12.25
				C44.787,16.083,43.536,16.074,43.625,16.875L43.625,16.875z"/>
		</g>
	</g>
	<g>
		<g>
			<path d="M43.75,29.375c0.321,3.585-0.091,7.162-0.125,10.75c-0.008,0.807,1.242,0.806,1.25,0
				c0.034-3.588,0.446-7.165,0.125-10.75C44.929,28.579,43.678,28.572,43.75,29.375L43.75,29.375z"/>
		</g>
	</g>
	<g>
		<g>
			<path d="M25.21,22.172c-0.835,0.124-1.752-0.011-2.597-0.001c-1.303,0.017-2.518,0.312-3.667,0.921
				c-2.85,1.51-0.323,5.826,2.523,4.316c0.569-0.302,1.245-0.244,1.877-0.238c1.088,0.01,2.112-0.016,3.193-0.176
				c1.35-0.201,2.073-1.884,1.746-3.076C27.892,22.486,26.558,21.973,25.21,22.172L25.21,22.172z"/>
		</g>
	</g>
	<g>
		<g>
			<path d="M19.71,25.828c4.495,0.623,8.984,1.383,13.497,0.5c1.309-0.257,2.124-1.847,1.746-3.076
				c-0.336-1.088-0.905-1.565-1.816-2.16c-2.707-1.771-5.21,2.561-2.523,4.316c0.181,0.13,0.37,0.245,0.568,0.347
				c-0.384-0.498-0.767-0.996-1.149-1.494c0.033,0.106,0.066,0.214,0.099,0.321c0.582-1.025,1.164-2.051,1.746-3.076
				c-3.555,0.696-7.299-0.009-10.837-0.5C17.888,20.569,16.528,25.387,19.71,25.828L19.71,25.828z"/>
		</g>
	</g>
	<g>
		<g>
			<path d="M31.708,25.75c1.631,0.014,3.075,0.013,4.596-0.675c1.242-0.561,1.531-2.338,0.896-3.42
				c-0.741-1.266-2.178-1.458-3.42-0.896c0.493-0.224-0.151,0.003-0.235,0.021c0.566-0.125-0.114-0.01-0.22-0.006
				c-0.538,0.02-1.079-0.02-1.617-0.024c-1.363-0.012-2.5,1.146-2.5,2.5C29.208,24.621,30.346,25.738,31.708,25.75L31.708,25.75z"/>
		</g>
	</g>
	<g>
		<g>
			<path d="M31.797,24.248c0.044,0.147,0.136,0.759,0.058,0.064c0.022,0.2,0.02,0.403,0.021,0.604c0.003,1.362,1.135,2.5,2.5,2.5
				c1.36,0,2.503-1.137,2.5-2.5c-0.002-0.67-0.066-1.354-0.256-1.999c-0.385-1.306-1.744-2.112-3.076-1.746
				C32.248,21.528,31.412,22.94,31.797,24.248L31.797,24.248z"/>
		</g>
	</g>
	<g>
		<g>
			<path d="M34.208,22.583c-2.436,0.31-4.885,0.178-7.333,0.167c-3.225-0.015-3.224,4.985,0,5c2.448,0.011,4.897,0.143,7.333-0.167
				c1.352-0.172,2.5-1.007,2.5-2.5C36.708,23.851,35.563,22.411,34.208,22.583L34.208,22.583z"/>
		</g>
	</g>
	<g>
		<g>
			<path d="M27.786,22.582c0.082-0.263,0.051-0.2-0.093,0.186c0.218-0.437-0.403,0.421-0.057,0.101
				c-0.1,0.08-0.198,0.159-0.297,0.239c0.228-0.122,0.146-0.096-0.241,0.078c0.127-0.053,0.262-0.087,0.395-0.123
				c0.19-0.051,1.042-0.171,0.183-0.058c0.454-0.06,0.909-0.115,1.364-0.177c1.353-0.185,2.07-1.896,1.746-3.076
				c-0.397-1.443-1.727-1.929-3.076-1.746c0.813-0.11,0.282-0.04,0.108-0.019c-0.365,0.044-0.729,0.095-1.094,0.146
				c-0.371,0.053-0.732,0.138-1.078,0.282c-1.326,0.554-2.267,1.423-2.682,2.836c-0.384,1.308,0.45,2.719,1.746,3.076
				C26.041,24.693,27.401,23.888,27.786,22.582L27.786,22.582z"/>
		</g>
	</g>
	<g>
		<g>
			<path d="M27.377,16.839c0.822-0.222,1.483,1.207,1.338,0.587c-0.071-0.306,0.033-0.827,0.059-1.151
				c0.056-0.709,0.279-1.436,0.505-2.106c-0.209,0.622,0.428-0.632,0.484-0.698c0.439-0.521,1.035-0.822,1.634-1.121
				c0.97-0.485,2.248-0.634,3.312-0.766c3.156-0.393,3.194-5.397,0-5c-4.645,0.578-9.193,2.162-10.518,7.152
				c-0.886,3.336-0.491,9.279,4.517,7.926C31.815,20.82,30.494,15.996,27.377,16.839L27.377,16.839z"/>
		</g>
	</g>
	<g>
		<g>
			<path d="M32.631,8.418c-0.271,1.271-0.12,2.485,0.586,3.594c0.73,1.147,2.21,1.605,3.42,0.896c1.142-0.668,1.63-2.27,0.896-3.42
				c-0.12-0.189-0.318-0.757-0.065-0.04c-0.063-0.26-0.06-0.176,0.013,0.252c-0.055-0.517-0.146,0.604-0.027,0.048
				c0.284-1.332-0.376-2.699-1.746-3.076C34.451,6.327,32.916,7.085,32.631,8.418L32.631,8.418z"/>
		</g>
	</g>
	<g>
		<g>
			<path d="M32.542,8.917c-4.279-0.086-6.121,4.145-6.167,7.833c-0.04,3.226,4.96,3.222,5,0c0.003-0.22,0.011-0.438,0.024-0.657
				c0.046-0.751-0.099,0.496,0.027-0.271c0.078-0.481,0.217-0.948,0.385-1.405c-0.169,0.461,0.143-0.212,0.166-0.253
				c0.349-0.597-0.293,0.279,0.175-0.205c-0.325,0.337,0.105-0.058,0.223-0.121c-0.193,0.104-0.056,0.074,0.167,0.079
				C35.769,13.981,35.762,8.981,32.542,8.917L32.542,8.917z"/>
		</g>
	</g>
	<g>
		<g>
			<path d="M23.208,26.75c0.291,2.774,0.179,5.55,0.167,8.333c-0.014,3.225,4.986,3.224,5,0c0.012-2.783,0.124-5.559-0.167-8.333
				c-0.142-1.354-1.03-2.5-2.5-2.5C24.453,24.25,23.066,25.392,23.208,26.75L23.208,26.75z"/>
		</g>
	</g>
	<g>
		<g>
			<path d="M25.208,26.583c0,1.556,0,3.111,0,4.667c0,3.225,5,3.225,5,0c0-1.556,0-3.111,0-4.667
				C30.208,23.358,25.208,23.358,25.208,26.583L25.208,26.583z"/>
		</g>
	</g>
	<g>
		<g>
			<path d="M25.875,27.083c0.288,2.274,0.179,4.549,0.167,6.834c-0.017,3.225,4.983,3.224,5,0c0.012-2.285,0.121-4.56-0.167-6.834
				c-0.172-1.352-1.008-2.5-2.5-2.5C27.143,24.583,25.703,25.728,25.875,27.083L25.875,27.083z"/>
		</g>
	</g>
	<g>
		<g>
			<path d="M23.463,36.415c0.042,0.142,0.128,0.747,0.058,0.085c0.026,0.248,0.021,0.501,0.021,0.75c0.002,1.362,1.136,2.5,2.5,2.5
				c1.361,0,2.502-1.137,2.5-2.5c-0.001-0.727-0.051-1.465-0.256-2.165c-0.385-1.306-1.745-2.111-3.076-1.746
				C23.913,33.695,23.079,35.107,23.463,36.415L23.463,36.415z"/>
		</g>
	</g>
	<g>
		<g>
			<path d="M31.708,43.791c-2.801,0.344-5.608-0.158-8.408,0.234c-0.795,0.111-0.456,1.315,0.332,1.205
				c2.685-0.377,5.387,0.141,8.076-0.189C32.497,44.944,32.507,43.693,31.708,43.791L31.708,43.791z"/>
		</g>
	</g>
	<g>
		<g>
			<path d="M24.503,38.415c0.328,0.873,0.549,1.779,0.833,2.667c0.489,1.529,2.816,0.904,2.41-0.664
				c-0.223-0.859-0.71-1.532-1.126-2.299c-0.497-0.918-2.066-0.766-2.284,0.299c-0.143,0.694-0.155,1.382-0.14,2.088
				c0.011,0.498,0.186,1.471-0.206,1.86c-0.774,0.771-0.205,2.134,0.884,2.134c0.944,0,1.89,0,2.834,0c1.612,0,1.612-2.5,0-2.5
				c-0.944,0-1.89,0-2.834,0c0.295,0.711,0.589,1.423,0.884,2.134c1.423-1.416,0.636-3.326,0.988-5.052
				c-0.762,0.1-1.522,0.199-2.284,0.299c0.309,0.569,0.709,1.067,0.874,1.701c0.804-0.222,1.606-0.442,2.41-0.664
				c-0.284-0.888-0.504-1.794-0.833-2.667C26.351,36.257,23.934,36.903,24.503,38.415L24.503,38.415z"/>
		</g>
	</g>
	<g>
		<g>
			<path d="M26.958,37.083c0.009,1.579,0.18,3.213-0.829,4.536c0.762,0.1,1.522,0.199,2.284,0.299
				c0.124,0.336,0.156-0.479,0.233-0.742c0.185-0.631,0.414-1.249,0.642-1.864c0.449-1.217,0.93-2.432,1.499-3.598
				c-0.762-0.321-1.522-0.642-2.284-0.963c-0.419,2.54,0.269,5.169-0.334,7.667c-0.168,0.696,0.214,1.308,0.873,1.537
				c0.418,0.146,0.726,0.189,1.166,0.211c1.612,0.08,1.604-2.42,0-2.5c-0.167-0.04-0.334-0.081-0.502-0.121
				c0.291,0.513,0.582,1.024,0.873,1.537c0.615-2.545-0.086-5.115,0.334-7.667c0.214-1.297-1.615-2.333-2.284-0.963
				c-0.664,1.359-1.218,2.78-1.752,4.194c-0.387,1.027-1.293,2.8-0.874,3.936c0.397,1.079,1.616,1.175,2.284,0.299
				c1.279-1.676,1.183-3.793,1.171-5.798C29.449,35.472,26.949,35.471,26.958,37.083L26.958,37.083z"/>
		</g>
	</g>
	<g>
		<g>
			<path d="M22.875,45.041c0.806,0,0.806-1.25,0-1.25S22.068,45.041,22.875,45.041L22.875,45.041z"/>
		</g>
	</g>
	<g>
		<g>
			<path d="M23.208,45.041c0.806,0,0.806-1.25,0-1.25S22.401,45.041,23.208,45.041L23.208,45.041z"/>
		</g>
	</g>
	<g>
		<g>
			<path d="M22.875,45.041c0.806,0,0.806-1.25,0-1.25S22.068,45.041,22.875,45.041L22.875,45.041z"/>
		</g>
	</g>
	<g>
		<g>
			<path d="M22.875,45.208c0.806,0,0.806-1.25,0-1.25S22.068,45.208,22.875,45.208L22.875,45.208z"/>
		</g>
	</g>
</g>
</svg>
