<?xml version="1.0" encoding="utf-8"?>
<!-- Generator: Adobe Illustrator 16.0.0, SVG Export Plug-In . SVG Version: 6.00 Build 0)  -->
<!DOCTYPE svg PUBLIC "-//W3C//DTD SVG 1.1//EN" "http://www.w3.org/Graphics/SVG/1.1/DTD/svg11.dtd">
<svg version="1.1" id="Layer_1" xmlns="http://www.w3.org/2000/svg" xmlns:xlink="http://www.w3.org/1999/xlink" x="0px" y="0px"
	 width="44.274px" height="45.142px" viewBox="0 0 44.274 45.142" enable-background="new 0 0 44.274 45.142" xml:space="preserve">
<g>
	<g>
		<path fill="#010101" d="M1.246,14.798C4.217,6.576,14.141,1.036,22.643,1.257c0.807,0.021,0.805-1.229,0-1.25
			C13.542-0.229,3.204,5.713,0.041,14.466C-0.234,15.226,0.974,15.55,1.246,14.798L1.246,14.798z"/>
	</g>
</g>
<g>
	<g>
		<path fill="#010101" d="M22.52,1.257c7.909-0.177,18.312,6.729,20.397,14.541c0.208,0.778,1.413,0.447,1.205-0.332
			C41.89,7.101,31-0.183,22.52,0.007C21.715,0.024,21.713,1.274,22.52,1.257L22.52,1.257z"/>
	</g>
</g>
<g>
	<g>
		<path fill="#010101" d="M0.201,16.074c0.691,0.71,1.289,1.532,1.317,2.558c0.022,0.805,1.272,0.807,1.25,0
			c-0.038-1.366-0.754-2.486-1.683-3.442C0.522,14.611-0.361,15.496,0.201,16.074L0.201,16.074z"/>
	</g>
</g>
<g>
	<g>
		<path fill="#010101" d="M2.041,18.966c-0.351,1.094-0.445,2.308-0.937,3.351c-0.342,0.725,0.736,1.359,1.079,0.631
			c0.545-1.155,0.675-2.44,1.063-3.649C3.493,18.528,2.286,18.201,2.041,18.966L2.041,18.966z"/>
	</g>
</g>
<g>
	<g>
		<path fill="#010101" d="M0.541,23.798c1.013,2.461,2.303,4.846,4.161,6.776c0.56,0.581,1.443-0.304,0.884-0.885
			c-1.7-1.766-2.912-3.971-3.839-6.224C1.443,22.731,0.233,23.053,0.541,23.798L0.541,23.798z"/>
	</g>
</g>
<g>
	<g>
		<path fill="#010101" d="M5.018,30.632c0.547,4.646,1.612,9.169,5.183,12.442c0.593,0.543,1.479-0.339,0.884-0.885
			c-3.321-3.043-4.309-7.242-4.817-11.558C6.175,29.842,4.924,29.832,5.018,30.632L5.018,30.632z"/>
	</g>
</g>
<g>
	<g>
		<path fill="#010101" d="M4.683,16.947c3.639-7.8,10.659-11.107,18.96-11.69c0.799-0.056,0.805-1.307,0-1.25
			c-8.721,0.612-16.212,4.105-20.04,12.31C3.265,17.042,4.342,17.678,4.683,16.947L4.683,16.947z"/>
	</g>
</g>
<g>
	<g>
		<path fill="#010101" d="M23.977,5.234c5.41,0.785,15.017,5.321,16.563,11.063c0.209,0.777,1.415,0.447,1.205-0.332
			c-0.857-3.183-3.795-5.342-6.386-7.115c-3.194-2.187-7.172-4.259-11.051-4.821C23.521,3.915,23.182,5.119,23.977,5.234
			L23.977,5.234z"/>
	</g>
</g>
<g>
	<g>
		<path fill="#010101" d="M40.518,16.319c0,1.375,0,2.75,0,4.125c0,0.806,1.25,0.806,1.25,0c0-1.375,0-2.75,0-4.125
			C41.768,15.514,40.518,15.514,40.518,16.319L40.518,16.319z"/>
	</g>
</g>
<g>
	<g>
		<path fill="#010101" d="M40.018,20.632c-0.026,1.094-0.808,1.519-1.69,1.96c-0.721,0.361-0.088,1.439,0.631,1.08
			c1.305-0.653,2.271-1.479,2.31-3.04C41.288,19.825,40.038,19.827,40.018,20.632L40.018,20.632z"/>
	</g>
</g>
<g>
	<g>
		<path fill="#010101" d="M38.224,23.092c-1.074-0.818-2.279-1.649-3.057-2.775c-0.455-0.658-1.539-0.034-1.08,0.631
			c0.91,1.318,2.247,2.265,3.506,3.225C38.235,24.66,38.856,23.574,38.224,23.092L38.224,23.092z"/>
	</g>
</g>
<g>
	<g>
		<path fill="#010101" d="M34.018,20.382c0.834,7.236,0.116,14.493,0.5,21.75c0.042,0.802,1.293,0.806,1.25,0
			c-0.384-7.257,0.334-14.514-0.5-21.75C35.177,19.591,33.926,19.582,34.018,20.382L34.018,20.382z"/>
	</g>
</g>
<g>
	<g>
		<path fill="#010101" d="M36.085,42.574c2.629-3.333,3.633-7.3,4.183-11.442c0.105-0.797-1.146-0.787-1.25,0
			c-0.5,3.771-1.417,7.517-3.817,10.558C34.708,42.315,35.585,43.206,36.085,42.574L36.085,42.574z"/>
	</g>
</g>
<g>
	<g>
		<path fill="#010101" d="M39.585,31.074c1.841-2.369,3.083-5.056,4.598-7.627c0.409-0.696-0.671-1.325-1.08-0.631
			c-1.456,2.473-2.632,5.096-4.402,7.373C38.213,30.818,39.091,31.71,39.585,31.074L39.585,31.074z"/>
	</g>
</g>
<g>
	<g>
		<path fill="#010101" d="M44.085,21.689c-0.334-0.333-0.667-0.666-1-1c-0.571-0.57-1.455,0.313-0.885,0.885
			c0.334,0.333,0.667,0.666,1,1C43.772,23.145,44.656,22.261,44.085,21.689L44.085,21.689z"/>
	</g>
</g>
<g>
	<g>
		<path fill="#010101" d="M43.183,20.947c0.612-1.354,0.584-2.857,0.585-4.315c0-0.806-1.25-0.806-1.25,0
			c-0.001,1.202,0.094,2.562-0.415,3.685C41.774,21.045,42.851,21.681,43.183,20.947L43.183,20.947z"/>
	</g>
</g>
<g>
	<g>
		<path fill="#010101" d="M3.604,17.447c0.327,0.693,0.414,1.427,0.415,2.185c0.001,0.806,1.251,0.806,1.25,0
			c-0.001-0.988-0.162-1.917-0.585-2.815C4.339,16.088,3.262,16.723,3.604,17.447L3.604,17.447z"/>
	</g>
</g>
<g>
	<g>
		<path fill="#010101" d="M4.104,19.947c0.927,1.832,2.012,3.537,3.724,4.725c0.664,0.46,1.288-0.624,0.631-1.08
			c-1.523-1.056-2.455-2.653-3.276-4.275C4.818,18.597,3.74,19.229,4.104,19.947L4.104,19.947z"/>
	</g>
</g>
<g>
	<g>
		<path fill="#010101" d="M9.085,25.074c1.085-1.114,1.657-2.38,1.683-3.942c0.014-0.807-1.236-0.806-1.25,0
			c-0.021,1.234-0.46,2.18-1.317,3.058C7.639,24.768,8.521,25.651,9.085,25.074L9.085,25.074z"/>
	</g>
</g>
<g>
	<g>
		<path fill="#010101" d="M9.518,21.132c0.79,7.419-0.732,14.928,1.522,22.166c0.239,0.768,1.446,0.439,1.205-0.332
			c-2.218-7.122-0.7-14.535-1.478-21.834C10.684,20.339,9.433,20.331,9.518,21.132L9.518,21.132z"/>
	</g>
</g>
<g>
	<g>
		<path fill="#010101" d="M13.585,21.574c0.759-0.744,1.59-1.542,2.652-1.801c1.089-0.265,1.574,1.276,1.804,2.024
			c0.235,0.769,1.442,0.44,1.205-0.332c-0.382-1.245-1.084-2.866-2.605-2.949c-1.567-0.085-2.9,1.155-3.939,2.173
			C12.125,21.255,13.009,22.138,13.585,21.574L13.585,21.574z"/>
	</g>
</g>
<g>
	<g>
		<path fill="#010101" d="M18.201,42.689c-1.976,1.858-3.547-0.007-4.519-1.873c-0.372-0.715-1.451-0.083-1.079,0.631
			c0.705,1.354,1.588,2.62,3.049,3.204c1.255,0.502,2.543-0.241,3.433-1.077C19.673,43.021,18.788,42.139,18.201,42.689
			L18.201,42.689z"/>
	</g>
</g>
<g>
	<g>
		<path fill="#010101" d="M13.268,40.632c0-6.667,0-13.333,0-20c0-0.806-1.25-0.806-1.25,0c0,6.667,0,13.333,0,20
			C12.018,41.438,13.268,41.438,13.268,40.632L13.268,40.632z"/>
	</g>
</g>
<g>
	<g>
		<path fill="#010101" d="M26.768,23.288c0.174-1.56,0.972-3.527,2.814-3.54c1.97-0.014,2.176,2.572,1.948,3.968
			c-0.129,0.788,1.075,1.126,1.205,0.332c0.358-2.19-0.147-5.173-2.818-5.518c-2.748-0.355-4.144,2.465-4.399,4.758
			C25.429,24.089,26.68,24.08,26.768,23.288L26.768,23.288z"/>
	</g>
</g>
<g>
	<g>
		<path fill="#010101" d="M31.541,24.298c0.915,5.912,0.043,11.894-0.022,17.834c-0.009,0.807,1.241,0.806,1.25,0
			C32.834,36.067,33.68,30,32.746,23.966C32.623,23.171,31.418,23.51,31.541,24.298L31.541,24.298z"/>
	</g>
</g>
<g>
	<g>
		<path fill="#010101" d="M31.353,42.316c-0.31,0.615-0.742,1.466-1.515,1.562c-0.898,0.111-1.697-0.944-2.155-1.562
			c-0.475-0.64-1.561-0.018-1.08,0.631c0.784,1.057,1.676,2.017,3.039,2.182c1.322,0.159,2.279-1.169,2.791-2.182
			C32.794,42.229,31.716,41.597,31.353,42.316L31.353,42.316z"/>
	</g>
</g>
<g>
	<g>
		<path fill="#010101" d="M25.518,23.632c0.001,6.092,0.047,12.173,0.5,18.25c0.06,0.799,1.31,0.805,1.25,0
			c-0.453-6.077-0.499-12.158-0.5-18.25C26.768,22.826,25.518,22.826,25.518,23.632L25.518,23.632z"/>
	</g>
</g>
<g>
	<g>
		<path fill="#010101" d="M18.018,22.632c-0.018,6.835-0.209,13.666,0,20.5c0.024,0.804,1.275,0.807,1.25,0
			c-0.209-6.834-0.018-13.665,0-20.5C19.27,21.825,18.02,21.826,18.018,22.632L18.018,22.632z"/>
	</g>
</g>
</svg>
