<?xml version="1.0" encoding="utf-8"?>
<!-- Generator: Adobe Illustrator 16.0.0, SVG Export Plug-In . SVG Version: 6.00 Build 0)  -->
<!DOCTYPE svg PUBLIC "-//W3C//DTD SVG 1.1//EN" "http://www.w3.org/Graphics/SVG/1.1/DTD/svg11.dtd">
<svg version="1.1" id="Layer_1" xmlns="http://www.w3.org/2000/svg" xmlns:xlink="http://www.w3.org/1999/xlink" x="0px" y="0px"
	 width="48.439px" height="47.896px" viewBox="0 0 48.439 47.896" enable-background="new 0 0 48.439 47.896" xml:space="preserve">
<g>
	<g>
		<path fill="#010101" d="M24.018,0.026C10.53,3.76-3.222,14.664,0.67,30.155c3.051,12.144,15.164,19.23,27.114,17.477
			c11.218-1.646,19.665-11.063,20.578-22.198C49.626,10.037,35.209,0.129,21.016,1.06c-0.8,0.053-0.806,1.303,0,1.25
			c13.561-0.89,25.997,7.746,26.137,22.007c0.105,10.629-7.939,19.071-17.797,21.715C17.551,49.199,6.671,42.103,2.326,31.21
			C-3.659,16.206,11.77,4.714,24.35,1.231C25.126,1.016,24.796-0.19,24.018,0.026L24.018,0.026z"/>
	</g>
</g>
<g>
	<g>
		<path fill="#010101" d="M19.247,14.668c2.036-0.962,4.28-1.512,6.458-2.049c1.08-0.267,4.354-1.497,5.411-0.951
			c0.715,0.37,1.348-0.709,0.631-1.079c-1.333-0.688-3.906,0.27-5.224,0.557c-2.673,0.583-5.425,1.269-7.907,2.443
			C17.888,13.933,18.522,15.011,19.247,14.668L19.247,14.668z"/>
	</g>
</g>
<g>
	<g>
		<path fill="#010101" d="M30.682,11.628c0.033,6,0.464,12.007,0,18c-0.125,1.608,2.376,1.597,2.5,0c0.464-5.993,0.033-12,0-18
			C33.173,10.017,30.673,10.016,30.682,11.628L30.682,11.628z"/>
	</g>
</g>
<g>
	<g>
		<path fill="#010101" d="M32.116,30.668c0.091,0.052-0.192,0.522-0.166,0.476c-0.472,0.851-2.062,1.134-2.942,1.221
			c-1.292,0.127-2.407-0.424-3.036-1.552c-0.394-0.704-1.473-0.073-1.08,0.631c1.324,2.371,3.982,2.503,6.322,1.678
			c1.024-0.361,1.979-1.065,2.146-2.218c0.075-0.515-0.151-1.052-0.613-1.315C32.046,29.189,31.416,30.269,32.116,30.668
			L32.116,30.668z"/>
	</g>
</g>
<g>
	<g>
		<path fill="#010101" d="M26.534,30.462c-0.136-0.908,0.257-1.65,1.034-2.111c1.114-0.66,2.524,0.021,3.421,0.72
			c0.628,0.488,1.52-0.39,0.885-0.885c-1.312-1.021-3.062-1.796-4.7-1.025c-1.452,0.684-2.077,2.084-1.845,3.634
			C25.448,31.589,26.652,31.25,26.534,30.462L26.534,30.462z"/>
	</g>
</g>
<g>
	<g>
		<path fill="#010101" d="M20.747,20.168c2.666-1.99,6.397-2.854,9.685-2.915c0.805-0.015,0.807-1.265,0-1.25
			c-3.499,0.063-7.476,0.965-10.315,3.085C19.479,19.565,20.101,20.651,20.747,20.168L20.747,20.168z"/>
	</g>
</g>
<g>
	<g>
		<path fill="#010101" d="M17.682,14.628c-0.035,5.171-0.465,10.329-0.5,15.5c-0.011,1.612,2.489,1.611,2.5,0
			c0.035-5.171,0.465-10.329,0.5-15.5C20.192,13.016,17.692,13.017,17.682,14.628L17.682,14.628z"/>
	</g>
</g>
<g>
	<g>
		<path fill="#010101" d="M17.098,30.026c-1.321-0.198-2.784-0.183-3.854,0.737c-1.121,0.965-1.417,2.45-1.437,3.865
			c-0.012,0.807,1.238,0.806,1.25,0c0.014-0.973,0.143-2.002,0.82-2.752c0.713-0.788,1.921-0.791,2.889-0.646
			C17.554,31.349,17.893,30.145,17.098,30.026L17.098,30.026z"/>
	</g>
</g>
<g>
	<g>
		<path fill="#010101" d="M11.989,35.071c3.47,3.216,8.41-0.146,8.067-4.442c-0.063-0.798-1.314-0.804-1.25,0
			c0.135,1.688-0.444,3.153-1.944,4.022c-1.284,0.744-2.919,0.528-3.988-0.465C12.283,33.639,11.397,34.521,11.989,35.071
			L11.989,35.071z"/>
	</g>
</g>
<g>
	<g>
		<path fill="#010101" d="M18.874,31.571c0.166-0.167,0.333-0.334,0.5-0.5c0.57-0.571-0.313-1.455-0.885-0.885
			c-0.166,0.167-0.333,0.334-0.5,0.5C17.419,31.257,18.303,32.141,18.874,31.571L18.874,31.571z"/>
	</g>
</g>
<g>
	<g>
		<path fill="#010101" d="M19.764,17.834c3.63-0.938,7.492-0.628,10.799-2.626c1.378-0.832,0.122-2.994-1.262-2.158
			c-3.062,1.85-6.825,1.502-10.201,2.374C17.539,15.826,18.202,18.237,19.764,17.834L19.764,17.834z"/>
	</g>
</g>
<g>
	<g>
		<path fill="#010101" d="M21.264,16.834c1.683-0.409,3.314-0.675,4.799-1.626c0.865-0.554,0.808-2.033-0.299-2.285
			c-2.246-0.51-3.963,0.128-5.963,1.126c-1.442,0.72-0.176,2.876,1.262,2.158c1.361-0.679,2.498-1.224,4.037-0.874
			c-0.1-0.762-0.199-1.523-0.299-2.285c-1.292,0.828-2.734,1.017-4.201,1.374C19.033,14.804,19.697,17.214,21.264,16.834
			L21.264,16.834z"/>
	</g>
</g>
<g>
	<g>
		<path fill="#010101" d="M26.432,15.878c0.963,0,1.932-0.005,2.867-0.26c0.979-0.267,1.802-0.914,2.517-1.606
			c0.695-0.673,0.327-1.816-0.552-2.089c-1.572-0.487-3.198-0.543-4.832-0.544c-1.612-0.001-1.612,2.499,0,2.5
			c1.422,0.001,2.799,0.031,4.168,0.456c-0.185-0.697-0.368-1.393-0.552-2.089c-1.104,1.068-2.136,1.133-3.616,1.134
			C24.819,13.379,24.819,15.879,26.432,15.878L26.432,15.878z"/>
	</g>
</g>
<g>
	<g>
		<path fill="#010101" d="M21.727,15.296c-0.348,0.986-1.002,1.771-1.926,2.253c-1.43,0.746-0.166,2.903,1.262,2.158
			c1.506-0.786,2.518-2.168,3.074-3.747c0.228-0.643-0.251-1.367-0.873-1.538C22.572,14.233,21.953,14.654,21.727,15.296
			L21.727,15.296z"/>
	</g>
</g>
<g>
	<g>
		<path fill="#010101" d="M28.301,14.708c0.865,0.452,1.562,1.12,2.247,1.805c1.142,1.141,2.909-0.627,1.768-1.768
			c-0.826-0.826-1.71-1.651-2.753-2.195c-0.604-0.315-1.354-0.16-1.71,0.448C27.521,13.564,27.697,14.393,28.301,14.708
			L28.301,14.708z"/>
	</g>
</g>
<g>
	<g>
		<path fill="#010101" d="M17.182,33.628c-0.111-1.264-0.986-2.139-2.25-2.25c-0.68-0.061-1.25,0.614-1.25,1.25
			c0,0.727,0.571,1.19,1.25,1.25c-0.131,0.022-0.214-0.012-0.249-0.104c0.188,0.146,0.024,0.137-0.001-0.146
			c0.06,0.679,0.523,1.25,1.25,1.25C16.567,34.878,17.242,34.308,17.182,33.628L17.182,33.628z"/>
	</g>
</g>
<g>
	<g>
		<path fill="#010101" d="M13.682,32.628c0.019-0.221-0.051,0.012-0.113,0.106c0.138-0.207,0.026-0.038-0.021,0.01
			c-1.122,1.158,0.645,2.928,1.768,1.768c0.512-0.527,0.804-1.153,0.866-1.884c0.059-0.68-0.612-1.25-1.25-1.25
			C14.206,31.378,13.74,31.95,13.682,32.628L13.682,32.628z"/>
	</g>
</g>
<g>
	<g>
		<path fill="#010101" d="M16.315,35.012c0.465-0.446,1.041-0.749,1.516-1.188c0.612-0.567,0.826-1.39,0.851-2.195
			c0.017-0.562-0.396-1.049-0.918-1.205c-0.717-0.215-1.462-0.247-2.177-0.007c-0.295,0.099-0.58,0.241-0.861,0.375
			c-0.113,0.054-0.168,0.081-0.294,0.087c-1.605,0.068-1.612,2.569,0,2.5c0.613-0.026,1.117-0.22,1.665-0.48
			c0.338-0.16,0.5-0.215,1.003-0.064c-0.307-0.401-0.612-0.804-0.918-1.205c-0.007,0.24-0.007,0.266-0.079,0.393
			c0.073-0.086,0.061-0.074-0.04,0.035c-0.248,0.26,0.158-0.094-0.147,0.129c-0.47,0.34-0.947,0.657-1.367,1.06
			C13.382,34.362,15.152,36.127,16.315,35.012L16.315,35.012z"/>
	</g>
</g>
<g>
	<g>
		<path fill="#010101" d="M16.048,31.745c-0.333,0.333-0.667,0.667-1,1c-1.141,1.141,0.627,2.908,1.768,1.768
			c0.333-0.333,0.667-0.667,1-1C18.956,32.372,17.188,30.604,16.048,31.745L16.048,31.745z"/>
	</g>
</g>
<g>
	<g>
		<path fill="#010101" d="M30.011,29.998c-0.309-0.66-0.394-1.495-1.096-1.906c-1.181-0.691-2.079,0.476-2.562,1.406
			c-0.423,0.814,0.09,1.902,1.079,1.881c1.354-0.029,2.649-0.471,4-0.5c-0.359-0.627-0.72-1.254-1.079-1.881
			c-0.561,0.775-1.726,0.684-2.552,1.052c-0.623,0.276-0.764,1.172-0.448,1.71c0.372,0.636,1.087,0.726,1.71,0.448
			c0.446-0.198,0.999-0.179,1.466-0.329c0.87-0.278,1.463-0.899,1.982-1.619c0.562-0.779-0.193-1.9-1.079-1.881
			c-1.354,0.029-2.649,0.471-4,0.5c0.359,0.627,0.72,1.254,1.079,1.881c0.081-0.163,0.167-0.323,0.26-0.479
			c0.315-0.408,0.043-0.376-0.818,0.097c-0.184-0.107-0.368-0.215-0.552-0.322c-0.149-0.128-0.064-0.123,0.033,0.161
			c0.123,0.355,0.26,0.703,0.419,1.044C28.535,32.718,30.689,31.449,30.011,29.998L30.011,29.998z"/>
	</g>
</g>
<g>
	<g>
		<path fill="#010101" d="M29.048,28.245c-0.188,0.204-0.356,0.423-0.514,0.651c-0.05,0.079-0.099,0.157-0.147,0.236
			c0.129-0.161,0.311-0.245,0.545-0.254c-0.678,0.065-1.25,0.52-1.25,1.25c0,0.632,0.57,1.315,1.25,1.25
			c0.516-0.05,0.896-0.181,1.279-0.54c0.252-0.237,0.377-0.577,0.604-0.826C31.902,28.827,30.14,27.054,29.048,28.245L29.048,28.245
			z"/>
	</g>
</g>
<g>
	<g>
		<path fill="#010101" d="M26.048,32.012c0.81,0.722,1.835,0.865,2.884,0.866c1.612,0.002,1.612-2.498,0-2.5
			c-0.269,0-0.535-0.009-0.802-0.035c0.228,0.022-0.194-0.056-0.193-0.056c-0.146-0.049-0.169-0.055-0.068-0.018
			c-0.129-0.078-0.146-0.087-0.053-0.025c-0.508-0.453-1.266-0.502-1.768,0C25.587,30.706,25.539,31.558,26.048,32.012
			L26.048,32.012z"/>
	</g>
</g>
</svg>
