<?xml version="1.0" encoding="utf-8"?>
<!-- Generator: Adobe Illustrator 16.0.0, SVG Export Plug-In . SVG Version: 6.00 Build 0)  -->
<!DOCTYPE svg PUBLIC "-//W3C//DTD SVG 1.1//EN" "http://www.w3.org/Graphics/SVG/1.1/DTD/svg11.dtd">
<svg version="1.1" id="Layer_1" xmlns="http://www.w3.org/2000/svg" xmlns:xlink="http://www.w3.org/1999/xlink" x="0px" y="0px"
	 width="46.809px" height="48.059px" viewBox="0 0 46.809 48.059" enable-background="new 0 0 46.809 48.059" xml:space="preserve">
<g>
	<g>
		<path d="M5.884,47.059c11.417-0.024,22.83-0.454,34.247-0.479c0.799-0.002,0.799-1.252,0-1.25
			c-11.417,0.024-22.83,0.454-34.247,0.479C5.084,45.811,5.084,47.061,5.884,47.059L5.884,47.059z"/>
	</g>
</g>
<g>
	<g>
		<path d="M7.566,2.938c11.429-1.547,22.883-0.105,34.35-0.007c0.807,0.007,0.807-1.243,0-1.25
			C30.328,1.58,18.782,0.169,7.234,1.732C6.438,1.84,6.778,3.044,7.566,2.938L7.566,2.938z"/>
	</g>
</g>
<g>
	<g>
		<path d="M46.562,41.434c0.354-11.664,0.223-23.332,0.213-35c0-0.806-1.25-0.806-1.25,0c0.01,11.668,0.141,23.336-0.213,35
			C45.288,42.24,46.538,42.237,46.562,41.434L46.562,41.434z"/>
	</g>
</g>
<g>
	<g>
		<path fill="#010101" d="M25.979,29.887c3.998,0.47,11.004,1.53,14.299-1.429c3.617-3.248-2.815-8.817-6.479-6.517
			c0.308,0.125,0.612,0.249,0.918,0.374c-0.7-5.186-4.356-7.616-9.416-7.578c-0.806,0.007-0.806,1.257,0,1.25
			c4.542-0.034,7.583,2.021,8.212,6.66c0.055,0.4,0.607,0.568,0.918,0.374c2.605-1.638,6.49,1.418,5.076,4.398
			c-0.597,1.259-3.603,1.358-4.688,1.459c-2.918,0.267-5.932,0.1-8.84-0.242C25.181,28.542,25.19,29.794,25.979,29.887
			L25.979,29.887z"/>
	</g>
</g>
<g>
	<g>
		<path fill="#010101" d="M24.847,15.533c0,4.463,0,8.926,0,13.39c0,0.806,1.25,0.806,1.25,0c0-4.464,0-8.927,0-13.39
			C26.097,14.726,24.847,14.726,24.847,15.533L24.847,15.533z"/>
	</g>
</g>
<g>
	<g>
		<path fill="#010101" d="M22.645,16.55c0,4.067,0,8.135,0,12.203c0,0.806,1.25,0.806,1.25,0c0-4.068,0-8.136,0-12.203
			C23.895,15.744,22.645,15.744,22.645,16.55L22.645,16.55z"/>
	</g>
</g>
<g>
	<g>
		<path fill="#010101" d="M20.271,18.244c0,3.504,0,7.005,0,10.509c0,0.806,1.25,0.806,1.25,0c0-3.504,0-7.005,0-10.509
			C21.521,17.438,20.271,17.438,20.271,18.244L20.271,18.244z"/>
	</g>
</g>
<g>
	<g>
		<path fill="#010101" d="M17.559,16.889c0.301,4.064,0.182,8.132,0.17,12.204c-0.002,0.806,1.248,0.806,1.25,0
			c0.012-4.071,0.131-8.14-0.17-12.204C18.75,16.09,17.5,16.084,17.559,16.889L17.559,16.889z"/>
	</g>
</g>
<g>
	<g>
		<path fill="#010101" d="M15.525,18.752c0,3.504,0,7.007,0,10.51c0,0.806,1.25,0.806,1.25,0c0-3.503,0-7.006,0-10.51
			C16.775,17.947,15.525,17.947,15.525,18.752L15.525,18.752z"/>
	</g>
</g>
<g>
	<g>
		<path fill="#010101" d="M13.322,21.295c-0.024,2.545-0.303,5.081-0.17,7.626c0.043,0.803,1.293,0.807,1.25,0
			c-0.131-2.545,0.146-5.081,0.17-7.626C14.58,20.488,13.33,20.49,13.322,21.295L13.322,21.295z"/>
	</g>
</g>
<g>
	<g>
		<path fill="#010101" d="M11.288,23.498c0.157,1.861,0.169,3.727,0.169,5.594c0,0.806,1.25,0.806,1.25,0
			c0-1.867-0.014-3.731-0.169-5.594C12.471,22.701,11.221,22.694,11.288,23.498L11.288,23.498z"/>
	</g>
</g>
<g>
	<g>
		<path fill="#010101" d="M9.423,22.007c0.303,2.368,0.182,4.74,0.169,7.119c-0.004,0.806,1.246,0.806,1.25,0
			c0.013-2.379,0.132-4.751-0.169-7.119C10.573,21.219,9.322,21.209,9.423,22.007L9.423,22.007z"/>
	</g>
</g>
<g>
	<g>
		<path fill="#010101" d="M7.391,24.211c0.15,1.296,0.168,2.594,0.168,3.896c0,0.808,1.25,0.808,1.25,0
			c0-1.304-0.019-2.602-0.168-3.896C8.547,23.42,7.296,23.41,7.391,24.211L7.391,24.211z"/>
	</g>
</g>
<g>
	<g>
		<path d="M1.25,8.232C1.326,4.98,3.923,3.775,6.791,3.335C7.586,3.213,7.247,2.009,6.459,2.13C2.992,2.662,0.089,4.423,0,8.232
			C-0.019,9.039,1.231,9.037,1.25,8.232L1.25,8.232z"/>
	</g>
</g>
<g>
	<g>
		<path d="M41.459,2.536c1.076,0.192,2.132,0.497,2.954,1.253c0.869,0.799,1.069,2.022,1.087,3.145c0.014,0.807,1.264,0.808,1.25,0
			c-0.021-1.374-0.316-2.628-1.172-3.724c-0.89-1.143-2.423-1.634-3.787-1.879C41.003,1.189,40.667,2.394,41.459,2.536L41.459,2.536
			z"/>
	</g>
</g>
<g>
	<g>
		<path d="M46.125,6.559c0.807,0,0.807-1.25,0-1.25C45.319,5.309,45.319,6.559,46.125,6.559L46.125,6.559z"/>
	</g>
</g>
<g>
	<g>
		<path d="M0,41.434c0.021,1.403,0.319,2.771,1.309,3.817c0.968,1.021,2.474,1.289,3.816,1.308c0.808,0.012,0.806-1.238,0-1.25
			c-1.062-0.015-2.135-0.187-2.933-0.941c-0.781-0.738-0.928-1.918-0.942-2.934C1.239,40.628-0.011,40.627,0,41.434L0,41.434z"/>
	</g>
</g>
<g>
	<g>
		<path d="M40.125,46.559c1.634-0.021,3.213-0.314,4.504-1.37c1.246-1.018,1.596-2.732,1.621-4.255c0.015-0.807-1.235-0.806-1.25,0
			c-0.021,1.278-0.284,2.479-1.254,3.37c-0.939,0.864-2.414,0.989-3.621,1.005C39.319,45.319,39.318,46.569,40.125,46.559
			L40.125,46.559z"/>
	</g>
</g>
<g>
	<g>
		<path d="M1.25,42.434c0-1.833,0-3.667,0-5.5c0-0.806-1.25-0.806-1.25,0c0,1.833,0,3.667,0,5.5C0,43.24,1.25,43.24,1.25,42.434
			L1.25,42.434z"/>
	</g>
</g>
<g>
	<g>
		<path d="M1.25,36.567c0-3.699,0-7.399,0-11.099c0-0.852-1.25-0.852-1.25,0c0,3.699,0,7.399,0,11.099
			C0,37.418,1.25,37.418,1.25,36.567L1.25,36.567z"/>
	</g>
</g>
<g>
	<g>
		<path d="M1.25,24.934c0-1.833,0-3.667,0-5.5c0-0.806-1.25-0.806-1.25,0c0,1.833,0,3.667,0,5.5C0,25.74,1.25,25.74,1.25,24.934
			L1.25,24.934z"/>
	</g>
</g>
<g>
	<g>
		<path d="M1.25,19.066c0-3.699,0-7.399,0-11.098c0-0.852-1.25-0.852-1.25,0c0,3.699,0,7.399,0,11.098
			C0,19.918,1.25,19.918,1.25,19.066L1.25,19.066z"/>
	</g>
</g>
</svg>
