<?xml version="1.0" encoding="utf-8"?>
<!-- Generator: Adobe Illustrator 16.0.0, SVG Export Plug-In . SVG Version: 6.00 Build 0)  -->
<!DOCTYPE svg PUBLIC "-//W3C//DTD SVG 1.1//EN" "http://www.w3.org/Graphics/SVG/1.1/DTD/svg11.dtd">
<svg version="1.1" id="Layer_1" xmlns="http://www.w3.org/2000/svg" xmlns:xlink="http://www.w3.org/1999/xlink" x="0px" y="0px"
	 width="48.189px" height="47.62px" viewBox="0 0 48.189 47.62" enable-background="new 0 0 48.189 47.62" xml:space="preserve">
<g>
	<g>
		<path d="M23.721,1.672C8.569-0.814-2.795,16.304,0.605,29.903c3.263,13.048,19.362,20.862,31.705,16.504
			c10.255-3.62,17.164-15.637,15.678-26.308C46.389,8.612,31.814-6.308,20.112,2.833c-0.635,0.496,0.257,1.374,0.885,0.884
			c6.384-4.987,14.948-0.775,19.909,4.22c3.817,3.844,5.754,9.07,5.997,14.407c0.417,9.145-5.256,17.935-13.206,22.104
			c-10.596,5.557-23.909-0.62-29.834-10.089C-4.277,21.348,7.393,0.252,23.389,2.877C24.177,3.006,24.515,1.802,23.721,1.672
			L23.721,1.672z"/>
	</g>
</g>
<g>
	<g>
		<path d="M11.055,18.899c0.806,0,0.806-1.25,0-1.25S10.249,18.899,11.055,18.899L11.055,18.899z"/>
	</g>
</g>
<g>
	<g>
		<path d="M11.055,17.649c-0.417-0.01-0.966-0.052-1.025-0.563c-0.08-0.677,0.278-1.409,0.565-1.996
			c0.352-0.721-0.727-1.355-1.08-0.631C9.056,15.402,8.627,16.435,8.84,17.5c0.208,1.036,1.296,1.376,2.215,1.399
			C11.861,18.919,11.859,17.669,11.055,17.649L11.055,17.649z"/>
	</g>
</g>
<g>
	<g>
		<path d="M39.055,21.399c-0.126-0.009-0.172-0.081-0.065,0.011c0.142,0.119,0.254,0.194,0.423,0.263
			c0.349,0.143,0.73-0.017,0.999-0.246c0.414-0.355,0.769-0.823,0.769-1.377c0-0.592,0-1.184,0-1.776c0-0.806-1.25-0.806-1.25,0
			c0,0.408,0,0.816,0,1.224c0,0.223,0,0.446,0,0.669c0-0.096-0.268,0.25-0.337,0.319c0.023-0.023,0.159-0.011,0.19-0.002
			c0.065,0.016,0.121,0.067,0.019-0.019c-0.228-0.19-0.448-0.295-0.747-0.316C38.25,20.092,38.256,21.343,39.055,21.399
			L39.055,21.399z"/>
	</g>
</g>
<g>
	<g>
		<path d="M11.221,18.877c8.762-3.442,19.285-1.708,27.519,2.437c0.718,0.361,1.351-0.717,0.631-1.079
			c-8.509-4.283-19.414-6.125-28.481-2.563C10.147,17.963,10.47,19.172,11.221,18.877L11.221,18.877z"/>
	</g>
</g>
<g>
	<g>
		<path d="M10.221,15.877c9.242-3.438,20.812-1.931,29.519,2.437c0.719,0.36,1.352-0.718,0.631-1.079
			c-8.981-4.506-20.927-6.118-30.481-2.563C9.14,14.95,9.464,16.159,10.221,15.877L10.221,15.877z"/>
	</g>
</g>
<g>
	<g>
		<path d="M11.055,18.024c0.672,0.019,1.424,0.302,2.196,0.162c0.932-0.169,1.69-0.845,1.843-1.808
			c0.115-0.72-0.129-1.489-0.846-1.808c-0.24-0.107-0.453-0.18-0.706-0.234c-0.098-0.021-0.195-0.044-0.291-0.072
			c-0.127-0.044-0.094-0.028,0.099,0.047c-0.111-0.067-0.082-0.041,0.089,0.079c-0.51-0.452-1.265-0.503-1.768,0
			c-0.46,0.46-0.511,1.315,0,1.768c0.375,0.333,0.797,0.501,1.279,0.604c0.07,0.015,0.14,0.032,0.21,0.05
			c0.126,0.042,0.087,0.021-0.117-0.059c0.186,0.109,0.092,0.006-0.28-0.308c-0.041-0.156-0.081-0.312-0.122-0.468
			c0.042-0.215,0.044-0.25,0.008-0.104c0.071-0.265-0.127,0.198-0.173,0.27c0.149-0.149,0.299-0.299,0.448-0.448
			c-0.052,0.023-0.288,0.062-0.147,0.049c-0.091,0.004-0.182,0.002-0.272-0.006c0.111,0.013,0.09,0.007-0.066-0.02
			c-0.458-0.091-0.914-0.181-1.383-0.194C9.441,15.479,9.446,17.979,11.055,18.024L11.055,18.024z"/>
	</g>
</g>
<g>
	<g>
		<path d="M16.055,17.024c0.167,0,0.333,0,0.5,0c1.612,0,1.612-2.5,0-2.5c-0.167,0-0.333,0-0.5,0
			C14.442,14.524,14.442,17.024,16.055,17.024L16.055,17.024z"/>
	</g>
</g>
<g>
	<g>
		<path d="M18.055,13.524c-0.833,0-1.667,0-2.5,0c-1.612,0-1.612,2.5,0,2.5c0.833,0,1.667,0,2.5,0
			C19.667,16.024,19.667,13.524,18.055,13.524L18.055,13.524z"/>
	</g>
</g>
<g>
	<g>
		<path d="M19.555,16.524c1.612,0,1.612-2.5,0-2.5S17.942,16.524,19.555,16.524L19.555,16.524z"/>
	</g>
</g>
<g>
	<g>
		<path d="M23.055,16.024c1.612,0,1.612-2.5,0-2.5S21.442,16.024,23.055,16.024L23.055,16.024z"/>
	</g>
</g>
<g>
	<g>
		<path d="M22.555,13.524c-0.5,0-1,0-1.5,0c-1.612,0-1.612,2.5,0,2.5c0.5,0,1,0,1.5,0C24.167,16.024,24.167,13.524,22.555,13.524
			L22.555,13.524z"/>
	</g>
</g>
<g>
	<g>
		<path d="M24.555,16.524c0.167,0,0.333,0,0.5,0c1.612,0,1.612-2.5,0-2.5c-0.167,0-0.333,0-0.5,0
			C22.942,14.024,22.942,16.524,24.555,16.524L24.555,16.524z"/>
	</g>
</g>
<g>
	<g>
		<path d="M27.055,16.524c0.167,0,0.333,0,0.5,0c1.612,0,1.612-2.5,0-2.5c-0.167,0-0.333,0-0.5,0
			C25.442,14.024,25.442,16.524,27.055,16.524L27.055,16.524z"/>
	</g>
</g>
<g>
	<g>
		<path d="M28.671,16.658c0.333,0.333,0.667,0.667,1,1c1.141,1.141,2.908-0.627,1.768-1.768c-0.333-0.333-0.667-0.667-1-1
			C29.298,13.75,27.53,15.518,28.671,16.658L28.671,16.658z"/>
	</g>
</g>
<g>
	<g>
		<path d="M31.671,17.158c0.167,0.167,0.333,0.333,0.5,0.5c1.141,1.141,2.908-0.627,1.768-1.768c-0.167-0.167-0.333-0.333-0.5-0.5
			C32.298,14.25,30.53,16.018,31.671,17.158L31.671,17.158z"/>
	</g>
</g>
<g>
	<g>
		<path d="M31.555,17.524c1.612,0,1.612-2.5,0-2.5S29.942,17.524,31.555,17.524L31.555,17.524z"/>
	</g>
</g>
<g>
	<g>
		<path d="M35.555,19.024c1.612,0,1.612-2.5,0-2.5S33.942,19.024,35.555,19.024L35.555,19.024z"/>
	</g>
</g>
<g>
	<g>
		<path d="M34.055,18.024c1.612,0,1.612-2.5,0-2.5S32.442,18.024,34.055,18.024L34.055,18.024z"/>
	</g>
</g>
<g>
	<g>
		<path d="M37.555,19.524c1.612,0,1.612-2.5,0-2.5S35.942,19.524,37.555,19.524L37.555,19.524z"/>
	</g>
</g>
<g>
	<g>
		<path d="M38.555,21.024c1.612,0,1.612-2.5,0-2.5S36.942,21.024,38.555,21.024L38.555,21.024z"/>
	</g>
</g>
<g>
	<g>
		<path d="M39.055,20.024c1.612,0,1.612-2.5,0-2.5S37.442,20.024,39.055,20.024L39.055,20.024z"/>
	</g>
</g>
<g>
	<g>
		<path d="M36.555,18.524c1.612,0,1.612-2.5,0-2.5S34.942,18.524,36.555,18.524L36.555,18.524z"/>
	</g>
</g>
<g>
	<g>
		<path d="M11.739,22.235c-0.489,0.259-0.968,0.603-1.108,1.167c-0.126,0.502,0.152,0.963,0.481,1.314
			c0.554,0.588,1.436-0.297,0.885-0.884c-0.059-0.062-0.124-0.22-0.164-0.125c0.082-0.192,0.368-0.304,0.537-0.394
			C13.082,22.936,12.451,21.857,11.739,22.235L11.739,22.235z"/>
	</g>
</g>
<g>
	<g>
		<path d="M35.015,25.59c0.069,0.14,0.131,0.276,0.18,0.425c0.017,0.053,0.03,0.106,0.04,0.161c-0.007-0.034,0.022-0.12-0.01,0.002
			c0.049-0.184,0.132-0.129-0.068-0.075c-0.193,0.052-0.403,0.044-0.602,0.046c-0.806,0.01-0.807,1.26,0,1.25
			c0.648-0.008,1.422-0.065,1.79-0.685c0.329-0.554,0-1.245-0.25-1.756C35.739,24.235,34.661,24.869,35.015,25.59L35.015,25.59z"/>
	</g>
</g>
<g>
	<g>
		<path d="M12.221,23.377c7.086-2.309,15.637-2.293,22.019,1.937c0.674,0.447,1.3-0.636,0.631-1.079
			c-6.645-4.404-15.595-4.47-22.981-2.063C11.126,22.42,11.452,23.627,12.221,23.377L12.221,23.377z"/>
	</g>
</g>
<g>
	<g>
		<path d="M12.87,25.314c7.223-3.146,14.559-0.422,21.519,2.063c0.761,0.272,1.086-0.936,0.332-1.205
			c-7.377-2.635-14.907-5.236-22.481-1.937C11.502,24.556,12.139,25.633,12.87,25.314L12.87,25.314z"/>
	</g>
</g>
<g>
	<g>
		<path d="M14.497,24.216c0.162-0.098,0.075-0.132-0.261-0.102c-0.104-0.18-0.207-0.359-0.31-0.54c0,0.008,0,0.017,0,0.025
			c0.061-0.147,0.121-0.294,0.183-0.442c0.134-0.078,0.119-0.089-0.045-0.035c-0.169,0.019-0.339,0.027-0.51,0.026
			c0.208,0.208,0.417,0.417,0.625,0.625c0-0.167,0-0.333,0-0.5c-0.355,0.147-0.711,0.294-1.067,0.442
			c0.862,0.701,1.552,0.008,1.567-0.942c-0.208,0.208-0.417,0.417-0.625,0.625c0.333,0,0.667,0,1,0c0-0.417,0-0.833,0-1.25
			c-0.869,0.039-1.641,0.462-2.5,0.5c-0.802,0.036-0.809,1.268,0,1.25c1.354-0.029,2.648-0.471,4-0.5
			c0.805-0.018,0.807-1.268,0-1.25c-1.354,0.029-2.648,0.471-4,0.5c0,0.417,0,0.833,0,1.25c0.869-0.039,1.641-0.462,2.5-0.5
			c0.802-0.036,0.81-1.25,0-1.25c-0.333,0-0.667,0-1,0c-0.345,0-0.619,0.284-0.625,0.625c-0.01,0.587-0.085-0.472,0.567,0.058
			c-0.405-0.329-1.067-0.146-1.067,0.442c0,0.167,0,0.333,0,0.5c0,0.335,0.284,0.633,0.625,0.625c0.558-0.013,1.852-0.075,1.6-0.99
			c-0.215-0.78-1.133-0.435-1.542-0.077C13.006,23.865,13.894,24.745,14.497,24.216L14.497,24.216z"/>
	</g>
</g>
<g>
	<g>
		<path d="M17.555,22.899c1.68,0.033,3.32,0.467,5,0.5c0.807,0.016,0.805-1.234,0-1.25c-1.68-0.033-3.32-0.467-5-0.5
			C16.748,21.634,16.75,22.884,17.555,22.899L17.555,22.899z"/>
	</g>
</g>
<g>
	<g>
		<path d="M23.055,23.399c0.833,0,1.667,0,2.5,0c0.341,0,0.625-0.284,0.625-0.625c0-0.167,0-0.333,0-0.5
			c0-0.35-0.284-0.612-0.625-0.625c-0.17-0.006,0.084,0.02-0.063-0.007c-0.089-0.017-0.178-0.038-0.266-0.06
			c-0.217-0.052-0.431-0.113-0.644-0.176c-0.207-0.061-0.413-0.127-0.617-0.196c-0.078-0.026-0.156-0.054-0.234-0.083
			c-0.051-0.019,0.016-0.011,0.087,0.072c0.032,0.252,0.064,0.505,0.098,0.757c0-0.001,0.001-0.003,0.002-0.005
			c-0.125,0.096-0.249,0.192-0.374,0.288c-0.096,0.021-0.343-0.016-0.125,0.027c0.158,0.032,0.314,0.072,0.471,0.11
			c0.782,0.194,1.114-1.012,0.332-1.205c-0.405-0.1-1.141-0.371-1.386,0.154c-0.127,0.274-0.1,0.525,0.098,0.757
			c0.24,0.281,0.818,0.375,1.152,0.479c0.469,0.145,0.975,0.319,1.47,0.337c-0.208-0.208-0.417-0.417-0.625-0.625
			c0,0.167,0,0.333,0,0.5c0.208-0.208,0.417-0.417,0.625-0.625c-0.833,0-1.667,0-2.5,0C22.249,22.149,22.249,23.399,23.055,23.399
			L23.055,23.399z"/>
	</g>
</g>
<g>
	<g>
		<path d="M26.997,22.833c-1.395-1.302-3.544-2.125-5.442-2.183c-0.807-0.024-0.804,1.226,0,1.25
			c1.563,0.047,3.409,0.743,4.558,1.817C26.701,24.266,27.587,23.384,26.997,22.833L26.997,22.833z"/>
	</g>
</g>
<g>
	<g>
		<path d="M22.18,22.274c-0.133,0.132-0.141,0.177-0.024,0.135c0.132-0.015,0.268-0.01,0.399-0.01c0.806-0.002,0.807-1.252,0-1.25
			c-0.818,0.002-1.535,0.2-1.625,1.125C20.853,23.077,22.103,23.069,22.18,22.274L22.18,22.274z"/>
	</g>
</g>
<g>
	<g>
		<path d="M27.555,23.899c0.806,0,0.806-1.25,0-1.25S26.749,23.899,27.555,23.899L27.555,23.899z"/>
	</g>
</g>
<g>
	<g>
		<path d="M27.112,22.833c-0.333,0.333-0.666,0.667-1,1c-0.57,0.57,0.313,1.454,0.885,0.884c0.333-0.333,0.666-0.667,1-1
			C28.567,23.146,27.684,22.262,27.112,22.833L27.112,22.833z"/>
	</g>
</g>
<g>
	<g>
		<path d="M27.87,23.814c0.54-0.25,1.086-0.362,1.685-0.415c-0.201-0.153-0.401-0.306-0.603-0.459
			c0.209,0.865,1.053,1.037,1.787,1.374c0.105-0.388,0.21-0.776,0.315-1.165c-0.5,0-1,0-1.5,0c-0.587,0-0.9,0.894-0.315,1.165
			c2.089,0.966,4.428,1.5,6.649,2.063c0.684,0.173,1.103-0.782,0.481-1.142c-2.535-1.468-5.286-2.46-8.149-3.063
			c-0.786-0.166-1.121,1.039-0.332,1.205c2.761,0.582,5.404,1.52,7.851,2.937c0.16-0.381,0.321-0.761,0.481-1.142
			c-2.108-0.535-4.368-1.021-6.351-1.937c-0.105,0.388-0.21,0.776-0.315,1.165c0.5,0,1,0,1.5,0c0.586,0,0.901-0.896,0.315-1.165
			c-0.1-0.046-1.18-0.492-1.213-0.626c-0.061-0.252-0.335-0.482-0.603-0.459c-0.819,0.072-1.565,0.237-2.315,0.585
			C26.509,23.074,27.144,24.151,27.87,23.814L27.87,23.814z"/>
	</g>
</g>
<g>
	<g>
		<path d="M27.055,23.399c1.02,0.035,1.975,0.465,3,0.5c0.807,0.027,0.804-1.223,0-1.25c-1.02-0.035-1.975-0.465-3-0.5
			C26.248,22.122,26.251,23.372,27.055,23.399L27.055,23.399z"/>
	</g>
</g>
<g>
	<g>
		<path d="M12.612,28.833c-0.523,0.541-1.296,1.561-0.412,2.173c0.623,0.431,1.562,0.099,2.17-0.191
			c0.728-0.347,0.093-1.424-0.631-1.079c-0.261,0.124-0.546,0.21-0.836,0.213c-0.088-0.001-0.107-0.003-0.058-0.006
			c0.134,0.029,0.22,0.23,0.194,0.357c0.043-0.216,0.314-0.436,0.457-0.583C14.058,29.137,13.174,28.252,12.612,28.833
			L12.612,28.833z"/>
	</g>
</g>
<g>
	<g>
		<path d="M32.952,31.44c0.073,0.239,0.237,0.674-0.036,0.838c-0.322,0.193-0.88-0.008-1.195-0.107
			c-0.771-0.244-1.098,0.963-0.332,1.205c0.722,0.228,1.644,0.372,2.299-0.113c0.699-0.517,0.706-1.39,0.47-2.156
			C33.92,30.34,32.714,30.668,32.952,31.44L32.952,31.44z"/>
	</g>
</g>
<g>
	<g>
		<path d="M13.221,29.377c5.723-1.357,12.428-2.146,17.519,1.437c0.661,0.465,1.284-0.619,0.631-1.079
			c-5.365-3.776-12.438-2.996-18.481-1.563C12.104,28.358,12.438,29.563,13.221,29.377L13.221,29.377z"/>
	</g>
</g>
<g>
	<g>
		<path d="M30.555,30.899c0.68,0.02,1.097,0.356,1.558,0.817c0.571,0.57,1.455-0.314,0.885-0.884
			c-0.702-0.701-1.425-1.153-2.442-1.183C29.748,29.625,29.75,30.875,30.555,30.899L30.555,30.899z"/>
	</g>
</g>
<g>
	<g>
		<path d="M15.221,30.877c5.544-0.819,10.852,0.555,16.168,2c0.779,0.212,1.109-0.994,0.332-1.205
			c-5.575-1.516-11.033-2.857-16.832-2C14.094,29.789,14.433,30.994,15.221,30.877L15.221,30.877z"/>
	</g>
</g>
<g>
	<g>
		<path d="M15.721,29.877c0.256-0.092,0.514-0.167,0.714-0.359c0.298-0.285,0.209-0.774-0.127-0.982
			c-0.333-0.207-0.97-0.114-1.279,0.111c-0.269,0.194-0.419,0.545-0.225,0.855c0.211,0.336,0.531,0.359,0.896,0.39
			c1.042,0.089,2.563-0.619,3.521-1.015c0.722-0.298,0.464-1.437-0.332-1.205c-1.481,0.43-3.019,0.57-4.5,1
			c-0.781,0.227-0.451,1.36,0.332,1.205c2.501-0.494,5.021-0.901,7.5-1.5c-0.202-0.348-0.405-0.696-0.608-1.044
			c-0.576,0.515-1.262,0.787-2.058,0.817c-0.788,0.074-0.819,1.25,0,1.25c1.167,0,2.333,0,3.5,0c0.806,0,0.806-1.25,0-1.25
			c-0.833,0-1.667,0-2.5,0c0.056,0.409,0.11,0.818,0.166,1.228c0.794-0.211,1.277-0.259,1.892,0.339
			c0.578,0.562,1.463-0.321,0.885-0.884c-0.942-0.917-1.854-0.996-3.108-0.661c-0.686,0.183-0.54,1.228,0.166,1.228
			c0.833,0,1.667,0,2.5,0c0.806,0,0.806-1.25,0-1.25c-1.167,0-2.333,0-3.5,0c0,0.417,0,0.833,0,1.25
			c1.144-0.107,2.052-0.443,2.942-1.183c0.508-0.423-0.043-1.181-0.608-1.044c-2.479,0.599-5,1.006-7.5,1.5
			c0.11,0.402,0.222,0.803,0.332,1.205c1.481-0.43,3.019-0.57,4.5-1c-0.11-0.402-0.222-0.803-0.332-1.205
			c-0.596,0.246-1.176,0.417-1.8,0.576c-0.447,0.113-1.553,0.073-1.206,0.624c-0.074,0.285-0.149,0.57-0.224,0.855
			c0.176-0.127,0.325,0.08,0.018-0.111c-0.042-0.327-0.084-0.654-0.126-0.981c-0.055,0.012-0.108,0.025-0.162,0.038
			C14.637,28.943,14.961,30.151,15.721,29.877L15.721,29.877z"/>
	</g>
</g>
<g>
	<g>
		<path d="M23.055,29.899c1,0,2,0,3,0c0.806,0,0.806-1.25,0-1.25c-0.073,0-0.146,0-0.219,0c-0.806,0-0.806,1.25,0,1.25
			c0.073,0,0.146,0,0.219,0c0.341,0,0.625-0.284,0.625-0.625c0-0.167,0-0.333,0-0.5c0-0.352-0.285-0.61-0.625-0.625
			c-0.245-0.011-0.487-0.087-0.722-0.154c-0.116-0.033-0.231-0.072-0.346-0.111c-0.19-0.065-0.196-0.167,0.007,0.105
			c0,0.21,0,0.421,0,0.631c0.003-0.005,0.005-0.011,0.007-0.016c-0.124,0.096-0.249,0.191-0.373,0.287
			c-0.024,0.003-0.049,0.005-0.073,0.008c0.801-0.048,0.806-1.298,0-1.25c-0.246,0.015-0.529,0.087-0.64,0.34
			c-0.084,0.193-0.141,0.442,0,0.631c0.419,0.562,1.48,0.75,2.14,0.779c-0.208-0.208-0.417-0.417-0.625-0.625c0,0.167,0,0.333,0,0.5
			c0.208-0.208,0.417-0.417,0.625-0.625c-0.073,0-0.146,0-0.219,0c-0.806,0-0.806,1.25,0,1.25c0.073,0,0.146,0,0.219,0
			c0.806,0,0.806-1.25,0-1.25c-1,0-2,0-3,0C22.249,28.649,22.249,29.899,23.055,29.899L23.055,29.899z"/>
	</g>
</g>
<g>
	<g>
		<path d="M25.055,30.399c1.333,0,2.667,0,4,0c0.686,0,0.879-1.122,0.166-1.228c-0.532-0.079-0.964-0.421-1.5-0.5
			c-0.712-0.105-1.064,0.708-0.481,1.142c0.528,0.395,2.598,2.042,2.918,0.626c0.089-0.394-0.182-0.791-0.603-0.791
			c-0.667,0-1.333,0-2,0c-0.806,0-0.806,1.25,0,1.25c0.667,0,1.333,0,2,0c-0.201-0.264-0.401-0.527-0.603-0.791
			c0.53-0.182,0.663-0.319,0.399-0.411c-0.091-0.046-0.181-0.095-0.269-0.146c-0.193-0.109-0.379-0.234-0.563-0.357
			c-0.221-0.147-0.437-0.301-0.649-0.459c-0.16,0.381-0.321,0.761-0.481,1.142c0.532,0.079,0.964,0.421,1.5,0.5
			c0.056-0.409,0.11-0.818,0.166-1.228c-1.333,0-2.667,0-4,0C24.249,29.149,24.249,30.399,25.055,30.399L25.055,30.399z"/>
	</g>
</g>
<g>
	<g>
		<path d="M28.889,30.877c0.595,0.183,1.2,0.247,1.812,0.341c0.77,0.118,1.351,0.465,1.911,0.999
			c0.295-0.294,0.59-0.589,0.885-0.884c-0.875-0.775-2.092-1.096-3.127-1.598c-0.521-0.253-1.007,0.155-0.918,0.706
			c0.06,0.375,0.343,0.678,0.589,0.948c0.258,0.282,0.848,0.659,0.911,1.052c0.127,0.794,1.332,0.456,1.205-0.332
			c-0.06-0.375-0.343-0.678-0.589-0.948c-0.258-0.282-0.848-0.659-0.911-1.052c-0.306,0.235-0.612,0.47-0.918,0.706
			c0.912,0.442,2.104,0.722,2.873,1.402c0.6,0.531,1.473-0.325,0.885-0.884c-0.612-0.582-1.269-1.021-2.089-1.244
			c-0.719-0.196-1.47-0.196-2.188-0.417C28.448,29.435,28.12,30.642,28.889,30.877L28.889,30.877z"/>
	</g>
</g>
<g>
	<g>
		<path d="M22.555,28.149c-1.437,0-2.983-0.019-4.315,0.585c-0.733,0.333-0.098,1.41,0.631,1.079c1.103-0.5,2.5-0.414,3.685-0.415
			C23.36,29.399,23.36,28.149,22.555,28.149L22.555,28.149z"/>
	</g>
</g>
</svg>
