<?xml version="1.0" encoding="utf-8"?>
<!-- Generator: Adobe Illustrator 16.0.0, SVG Export Plug-In . SVG Version: 6.00 Build 0)  -->
<!DOCTYPE svg PUBLIC "-//W3C//DTD SVG 1.1//EN" "http://www.w3.org/Graphics/SVG/1.1/DTD/svg11.dtd">
<svg version="1.1" id="Layer_1" xmlns="http://www.w3.org/2000/svg" xmlns:xlink="http://www.w3.org/1999/xlink" x="0px" y="0px"
	 width="48.211px" height="48px" viewBox="0 0 48.211 48" enable-background="new 0 0 48.211 48" xml:space="preserve">
<g>
	<g>
		<path d="M4.552,36.897c-3.869-1.138-3.36-8.909-3.253-11.938c0.135-3.79,0.672-9.295,3.529-12.138
			c0.571-0.569-0.312-1.453-0.885-0.884c-3.643,3.623-3.902,10.354-3.941,15.147c-0.027,3.369,0.169,9.826,4.218,11.017
			C4.995,38.331,5.323,37.124,4.552,36.897L4.552,36.897z"/>
	</g>
</g>
<g>
	<g>
		<path d="M4.701,12.92c5.41-3.493,13.671-3.078,19.843-3.116c6.237-0.039,13.196-0.022,19.176,1.96
			c0.768,0.254,1.094-0.953,0.332-1.205C37.581,8.414,30.062,8.52,23.337,8.562C17.359,8.598,9.315,8.454,4.07,11.841
			C3.396,12.276,4.021,13.359,4.701,12.92L4.701,12.92z"/>
	</g>
</g>
<g>
	<g>
		<path d="M4.22,38.028c6.748,2.283,14.807,1.951,21.82,1.951c5.521,0,14.233,0.748,19.161-2.42c0.676-0.435,0.05-1.517-0.631-1.08
			c-5.008,3.221-14.033,2.25-19.697,2.25c-6.53,0-14.059,0.213-20.321-1.906C3.786,36.564,3.46,37.771,4.22,38.028L4.22,38.028z"/>
	</g>
</g>
<g>
	<g>
		<path d="M44.988,11.833c-0.018-0.199-0.034-0.397-0.052-0.596c-0.388,0.105-0.776,0.21-1.164,0.315
			c2.64,3.505,2.958,8.044,3.15,12.301c0.152,3.393,0.6,9.547-1.979,12.204c-0.562,0.579,0.322,1.464,0.885,0.885
			c2.684-2.766,2.373-8.456,2.37-11.957c-0.004-4.737-0.412-10.166-3.347-14.063c-0.377-0.5-1.109-0.333-1.165,0.315
			c-0.028,0.336,0.037,0.577,0.097,0.928C43.918,12.959,45.122,12.622,44.988,11.833L44.988,11.833z"/>
	</g>
</g>
<g>
	<g>
		<path d="M18.783,18.174c0.532,3.751,0.539,7.541,0.54,11.322c0,0.806,1.25,0.806,1.25,0c-0.001-3.898-0.037-7.788-0.585-11.654
			C19.876,17.046,18.671,17.386,18.783,18.174L18.783,18.174z"/>
	</g>
</g>
<g>
	<g>
		<path d="M20.068,18.27c1.587,1.34,4.002,2.057,5.872,2.888c2.234,0.993,4.479,2.02,6.779,2.854
			c0.76,0.276,1.084-0.933,0.332-1.205c-2.2-0.798-4.341-1.783-6.48-2.728c-1.738-0.768-4.146-1.449-5.618-2.693
			C20.341,16.87,19.452,17.749,20.068,18.27L20.068,18.27z"/>
	</g>
</g>
<g>
	<g>
		<path d="M21.266,30.196c4.04-1.598,8.421-3.412,11.936-6.003c0.642-0.473,0.019-1.558-0.631-1.079
			c-3.423,2.523-7.706,4.322-11.637,5.877C20.193,29.284,20.516,30.493,21.266,30.196L21.266,30.196z"/>
	</g>
</g>
<g>
	<g>
		<path d="M20.136,22.5c0,0.781,0,1.533,0.324,2.257c0.328,0.731,1.2,0.979,1.926,0.993c1.613,0.03,1.61-2.47,0-2.5
			c-0.066,0-0.133-0.002-0.199-0.008c0.374,0.023-0.123-0.088,0.252,0.077c-0.167-0.074,0.182,0.189,0.213,0.235
			c-0.139-0.198,0.092,0.29,0.019,0.03c-0.026-0.131-0.026-0.108-0.001,0.069c-0.014-0.107-0.018-0.215-0.023-0.322
			c-0.014-0.277-0.01-0.555-0.01-0.832C22.636,20.888,20.136,20.888,20.136,22.5L20.136,22.5z"/>
	</g>
</g>
<g>
	<g>
		<path d="M22.386,24.25c1.667,0,3.333,0,5,0c1.612,0,1.612-2.5,0-2.5c-1.667,0-3.333,0-5,0C20.773,21.75,20.773,24.25,22.386,24.25
			L22.386,24.25z"/>
	</g>
</g>
<g>
	<g>
		<path d="M27.886,21.75c-2.444,0.311-4.855,0.004-5.795-2.583c-0.545-1.503-2.962-0.854-2.41,0.665
			c1.321,3.641,4.525,4.885,8.205,4.417C29.463,24.05,29.482,21.547,27.886,21.75L27.886,21.75z"/>
	</g>
</g>
<g>
	<g>
		<path d="M21.054,20.206c1.295,0.457,2.466,1.224,3.448,2.178c1.156,1.124,2.926-0.643,1.768-1.768
			c-1.3-1.263-2.843-2.219-4.552-2.822C20.193,17.257,19.544,19.673,21.054,20.206L21.054,20.206z"/>
	</g>
</g>
<g>
	<g>
		<path d="M23.255,25.421c0.143-0.066-0.205,0.052-0.197,0.051c0.21-0.049,0.361,0.014,0.521,0.151
			c0.208,0.177,0.013-0.077,0.09,0.144c-0.03-0.14-0.037-0.142-0.021-0.007c-0.009-0.086-0.013-0.173-0.013-0.26
			c-0.037-1.609-2.537-1.613-2.5,0c0.02,0.83,0.264,1.666,0.994,2.142c0.759,0.494,1.626,0.292,2.387-0.062
			c0.618-0.287,0.769-1.164,0.448-1.71C24.597,25.241,23.873,25.133,23.255,25.421L23.255,25.421z"/>
	</g>
</g>
<g>
	<g>
		<path d="M20.136,25c0,0.833,0,1.667,0,2.5c0,1.612,2.5,1.612,2.5,0c0-0.833,0-1.667,0-2.5C22.636,23.388,20.136,23.388,20.136,25
			L20.136,25z"/>
	</g>
</g>
<g>
	<g>
		<path d="M23.718,27.705c1.241-0.332,2.374-0.939,3.137-1.993c0.854-1.181,0.205-2.539-0.838-3.291
			c-0.554-0.4-1.391-0.097-1.71,0.448c-0.369,0.63-0.104,1.312,0.448,1.71c0.185,0.133,0.004,0.046-0.01-0.15
			c-0.02-0.266-0.073,0.092,0.017-0.086c-0.133,0.261,0.089-0.066-0.131,0.168c-0.399,0.424-1.021,0.634-1.577,0.784
			C21.497,25.711,22.158,28.123,23.718,27.705L23.718,27.705z"/>
	</g>
</g>
<g>
	<g>
		<path d="M24.886,26.75c2.315-0.049,3.828-1.27,5.079-3.119c0.906-1.339-1.261-2.589-2.158-1.262
			c-0.744,1.1-1.536,1.852-2.921,1.881C23.276,24.284,23.272,26.784,24.886,26.75L24.886,26.75z"/>
	</g>
</g>
<g>
	<g>
		<path d="M28.002,24.384c0.693,0.691,1.373,1.277,2.384,1.366c0.68,0.06,1.25-0.614,1.25-1.25c0-0.727-0.571-1.19-1.25-1.25
			c0.176,0.016,0.003-0.051-0.07-0.112c-0.193-0.161-0.368-0.345-0.546-0.521C28.627,21.477,26.859,23.245,28.002,24.384
			L28.002,24.384z"/>
	</g>
</g>
<g>
	<g>
		<path d="M24.886,23.25c-2.433,0.068-3.95,1.736-4.705,3.918c-0.529,1.527,1.887,2.178,2.41,0.664
			c0.381-1.099,1.043-2.047,2.295-2.082C26.494,25.705,26.499,23.205,24.886,23.25L24.886,23.25z"/>
	</g>
</g>
</svg>
