<?xml version="1.0" encoding="utf-8"?>
<!-- Generator: Adobe Illustrator 17.0.2, SVG Export Plug-In . SVG Version: 6.00 Build 0)  -->
<!DOCTYPE svg PUBLIC "-//W3C//DTD SVG 1.1//EN" "http://www.w3.org/Graphics/SVG/1.1/DTD/svg11.dtd">
<svg version="1.1" id="Layer_1" xmlns="http://www.w3.org/2000/svg" xmlns:xlink="http://www.w3.org/1999/xlink" x="0px" y="0px"
	 width="45.177px" height="45.344px" viewBox="0 0 45.177 45.344" enable-background="new 0 0 45.177 45.344" xml:space="preserve">
<g>
	<g>
		<path fill="#010101" d="M38.417,1.708c1.374-0.094,2.741,0.01,3.913,0.795c1.217,0.815,1.362,2.432,1.15,3.748
			c-0.127,0.788,1.077,1.126,1.205,0.332c0.271-1.683,0.096-3.312-1.082-4.617c-1.268-1.405-3.42-1.628-5.187-1.508
			C37.617,0.513,37.612,1.763,38.417,1.708L38.417,1.708z"/>
	</g>
</g>
<g>
	<g>
		<path fill="#010101" d="M1.375,6.5c0.013-1.362,0.09-2.907,1.09-3.944C3.473,1.511,5.291,1.511,6.625,1.5
			c0.806-0.006,0.806-1.256,0-1.25c-1.727,0.014-3.512,0.165-4.9,1.29c-1.418,1.148-1.584,3.283-1.6,4.96
			C0.117,7.307,1.367,7.306,1.375,6.5L1.375,6.5z"/>
	</g>
</g>
<g>
	<g>
		<path fill="#010101" d="M40,45c1.338,0.139,2.766,0.063,3.786-0.917c0.962-0.926,1.078-2.459,1.089-3.708
			c0.007-0.807-1.243-0.806-1.25,0c-0.008,0.951-0.042,2.081-0.724,2.823C42.204,43.959,40.92,43.846,40,43.75
			C39.198,43.667,39.206,44.918,40,45L40,45z"/>
	</g>
</g>
<g>
	<g>
		<path fill="#010101" d="M4.084,43.772c-1.818,0.534-2.56-1.88-2.584-3.272c-0.014-0.805-1.264-0.807-1.25,0
			c0.039,2.239,1.465,5.27,4.166,4.478C5.188,44.751,4.859,43.545,4.084,43.772L4.084,43.772z"/>
	</g>
</g>
<g>
	<g>
		<path fill="#010101" d="M4.5,45.125c3.044,0.06,6.081-0.187,9.125-0.125c3.368,0.067,6.449,0.753,9.791-0.022
			c0.785-0.182,0.452-1.387-0.332-1.205c-3.211,0.744-6.233,0.191-9.459-0.022c-3.028-0.2-6.091,0.184-9.125,0.125
			C3.693,43.859,3.695,45.109,4.5,45.125L4.5,45.125z"/>
	</g>
</g>
<g>
	<g>
		<path fill="#010101" d="M31.567,45.125c2.77,0,5.538,0,8.308,0c0.806,0,0.806-1.25,0-1.25c-2.77,0-5.538,0-8.308,0
			C30.762,43.875,30.762,45.125,31.567,45.125L31.567,45.125z"/>
	</g>
</g>
<g>
	<g>
		<path fill="#010101" d="M7,1.375C12,1.366,17,1.26,22,1.25c0.806-0.002,0.806-1.252,0-1.25C17,0.01,12,0.116,7,0.125
			C6.194,0.127,6.194,1.377,7,1.375L7,1.375z"/>
	</g>
</g>
<g>
	<g>
		<path fill="#010101" d="M22.25,1.25c5.169,0.027,10.331,0.348,15.5,0.375c0.807,0.004,0.806-1.246,0-1.25
			C32.581,0.348,27.419,0.027,22.25,0C21.444-0.004,21.444,1.246,22.25,1.25L22.25,1.25z"/>
	</g>
</g>
<g>
	<g>
		<path fill="#010101" d="M0.125,6.625c0.042,4.548,0.555,9.09,0,13.625c-0.098,0.799,1.153,0.789,1.25,0
			c0.555-4.535,0.042-9.077,0-13.625C1.368,5.819,0.118,5.818,0.125,6.625L0.125,6.625z"/>
	</g>
</g>
<g>
	<g>
		<path fill="#010101" d="M1.25,40.25c0.018-3.668,0.231-7.332,0.25-11c0.004-0.807-1.246-0.806-1.25,0
			c-0.019,3.668-0.232,7.332-0.25,11C-0.004,41.057,1.246,41.056,1.25,40.25L1.25,40.25z"/>
	</g>
</g>
<g>
	<g>
		<path fill="#010101" d="M1.5,29c0.009-2.834,0.116-5.666,0.125-8.5c0.002-0.807-1.248-0.806-1.25,0
			C0.366,23.334,0.259,26.166,0.25,29C0.248,29.807,1.498,29.806,1.5,29L1.5,29z"/>
	</g>
</g>
<g>
	<g>
		<path fill="#010101" d="M43.625,6.625c0,3.333,0,6.667,0,10c0,0.806,1.25,0.806,1.25,0c0-3.333,0-6.667,0-10
			C44.875,5.819,43.625,5.819,43.625,6.625L43.625,6.625z"/>
	</g>
</g>
<g>
	<g>
		<path fill="#010101" d="M43.625,16.875c0.454,4.074,0.267,8.16,0.25,12.25c-0.003,0.807,1.247,0.806,1.25,0
			c0.017-4.09,0.204-8.176-0.25-12.25C44.787,16.083,43.536,16.074,43.625,16.875L43.625,16.875z"/>
	</g>
</g>
<g>
	<g>
		<path fill="#010101" d="M43.75,29.375c0.321,3.585-0.091,7.162-0.125,10.75c-0.008,0.807,1.242,0.806,1.25,0
			c0.034-3.588,0.446-7.165,0.125-10.75C44.929,28.579,43.678,28.572,43.75,29.375L43.75,29.375z"/>
	</g>
</g>
<g>
	<g>
		<path fill="#010101" d="M31.708,43.791c-2.801,0.344-5.608-0.158-8.408,0.234c-0.795,0.111-0.456,1.315,0.332,1.205
			c2.685-0.377,5.387,0.141,8.076-0.189C32.497,44.944,32.507,43.693,31.708,43.791L31.708,43.791z"/>
	</g>
</g>
<g>
	<g>
		<path fill="#010101" d="M22.875,45.041c0.806,0,0.806-1.25,0-1.25S22.068,45.041,22.875,45.041L22.875,45.041z"/>
	</g>
</g>
<g>
	<g>
		<path fill="#010101" d="M23.208,45.041c0.806,0,0.806-1.25,0-1.25S22.401,45.041,23.208,45.041L23.208,45.041z"/>
	</g>
</g>
<g>
	<g>
		<path fill="#010101" d="M22.875,45.041c0.806,0,0.806-1.25,0-1.25S22.068,45.041,22.875,45.041L22.875,45.041z"/>
	</g>
</g>
<g>
	<g>
		<path fill="#010101" d="M22.875,45.208c0.806,0,0.806-1.25,0-1.25S22.068,45.208,22.875,45.208L22.875,45.208z"/>
	</g>
</g>
<g>
	<g>
		<path fill="#010101" d="M12.783,4.737c-2.485-0.202-3.623,1.059-2.297,3.298c0.613,1.036,1.492,1.88,2.169,2.868
			c0.817,1.193-0.052,2.736-1.099,3.386c-1.051,0.653-4.602-0.148-3.115-1.705c1.899-1.988,4.913-2.474,6.856-4.53
			c2.107-2.229,0.06-3.563-2.274-3.714c-0.805-0.052-0.8,1.198,0,1.25c0.829,0.054,2.378,0.081,1.683,1.213
			c-0.402,0.656-1.129,1.189-1.739,1.635c-1.113,0.815-2.436,1.321-3.634,1.995c-2.412,1.358-3.8,3.588-0.639,5.028
			c2.768,1.261,5.672-0.952,5.456-3.88c-0.081-1.097-0.812-1.846-1.467-2.651c-0.468-0.576-0.906-1.166-1.284-1.804
			c-0.736-1.243,0.433-1.216,1.383-1.139C13.587,6.053,13.581,4.802,12.783,4.737L12.783,4.737z"/>
	</g>
</g>
<g>
	<g>
		<path fill="#010101" d="M19.716,5.813c-2.964,1.713-4.863,8.852,0.137,8.949c4.636,0.089,5.491-8.36,0.66-8.836
			c-0.802-0.079-0.795,1.172,0,1.25c3.362,0.331,2.249,6.392-0.957,6.33c-3.318-0.064-0.768-5.713,0.791-6.614
			C21.044,6.489,20.415,5.409,19.716,5.813L19.716,5.813z"/>
	</g>
</g>
<g>
	<g>
		<path fill="#010101" d="M26.28,6.779c4.604-0.486,4.873,7.327,0.406,6.694c0.125,0.306,0.249,0.612,0.374,0.918
			c0.739-1.089,2.755,0.305,3.588,0.676c0.839,0.374,1.679,0.634,2.602,0.624c0.806-0.009,0.806-1.259,0-1.25
			c-2.257,0.025-5.475-3.323-7.268-0.681c-0.208,0.307-0.016,0.863,0.374,0.918c6.468,0.917,6.178-9.81-0.074-9.149
			C25.487,5.613,25.478,6.864,26.28,6.779L26.28,6.779z"/>
	</g>
</g>
<g>
	<g>
		<path fill="#010101" d="M33.489,9.936c1.346,0,2.684-0.015,4.011-0.263c0.792-0.148,0.455-1.353-0.332-1.205
			c-1.214,0.227-2.449,0.218-3.679,0.218C32.683,8.686,32.683,9.936,33.489,9.936L33.489,9.936z"/>
	</g>
</g>
<g>
	<g>
		<path fill="#010101" d="M13.169,17.431c-1.4-0.192-3.372-0.365-4.248,1.055c-0.959,1.554-0.658,3.569-0.543,5.298
			c0.029,0.441,0.519,0.82,0.94,0.54c1.569-1.044,3.238-0.386,3.686,1.449c0.688,2.82-3.477,2.672-5.085,2.408
			c-0.788-0.129-1.126,1.075-0.332,1.205c2.601,0.426,7.301,0.129,6.661-3.716c-0.455-2.733-3.274-3.947-5.56-2.426
			c0.313,0.18,0.627,0.36,0.94,0.54c-0.074-1.109-0.153-2.213-0.074-3.324c0.136-1.902,1.718-2.037,3.283-1.823
			C13.625,18.744,13.965,17.54,13.169,17.431L13.169,17.431z"/>
	</g>
</g>
<g>
	<g>
		<path fill="#010101" d="M22.128,18.784c-0.002,2.944-0.071,5.83-1.228,8.584c-0.312,0.743,0.898,1.064,1.205,0.332
			c1.199-2.854,1.27-5.864,1.272-8.916C23.379,17.978,22.129,17.978,22.128,18.784L22.128,18.784z"/>
	</g>
</g>
<g>
	<g>
		<path fill="#010101" d="M16.9,19.368c-0.23,1.223-0.051,2.434-0.022,3.666c0.006,0.263,0.184,0.548,0.459,0.603
			c2.216,0.441,4.424,0.29,6.666,0.272c0.806-0.006,0.806-1.256,0-1.25c-2.124,0.017-4.233,0.191-6.334-0.228
			c0.153,0.201,0.306,0.402,0.459,0.603c-0.026-1.106-0.229-2.236-0.022-3.334C18.254,18.912,17.049,18.576,16.9,19.368L16.9,19.368
			z"/>
	</g>
</g>
<g>
	<g>
		<path fill="#010101" d="M29.837,17.931c-2.24,0.402-3.036,1.874-1.776,3.823c0.516,0.798,1.238,1.544,1.999,2.106
			c0.582,0.43,1.187,0.827,1.779,1.243c1.269,0.892,0.441,1.396-0.652,1.89c-0.639,0.289-1.968,0.926-1.696-0.285
			c0.125-0.556,0.387-1.082,0.636-1.59c0.532-1.082,1.109-2.139,1.655-3.214c1.14-2.241-0.568-3.474-2.465-4.411
			c-0.72-0.356-1.354,0.722-0.631,1.079c0.745,0.368,1.895,0.806,2.236,1.643c0.21,0.515-0.306,1.236-0.534,1.659
			c-0.612,1.138-1.231,2.295-1.742,3.484c-0.573,1.334-0.897,3.408,1.147,3.363c1.649-0.037,5.313-1.699,3.735-3.76
			c-0.811-1.058-7.637-5.059-3.361-5.825C30.962,18.994,30.625,17.79,29.837,17.931L29.837,17.931z"/>
	</g>
</g>
<g>
	<g>
		<path fill="#010101" d="M12.878,31.284c0.025,3.054,0.616,6.558-0.665,9.435c-0.325,0.73,0.752,1.366,1.079,0.631
			c1.397-3.138,0.863-6.733,0.835-10.065C14.121,30.478,12.871,30.478,12.878,31.284L12.878,31.284z"/>
	</g>
</g>
<g>
	<g>
		<path fill="#010101" d="M6.128,32.534c-0.12,1.489-0.259,3.829,1.506,4.449c1.634,0.574,3.683-0.058,5.369-0.074
			c0.806-0.008,0.806-1.258,0-1.25c-1.468,0.014-2.936,0.315-4.402,0.256c-1.638-0.067-1.314-2.258-1.223-3.381
			C7.443,31.73,6.192,31.736,6.128,32.534L6.128,32.534z"/>
	</g>
</g>
<g>
	<g>
		<path fill="#010101" d="M21.503,30.909c-1.418-0.18-2.78-0.051-4.166,0.272c-0.191,0.045-0.406,0.235-0.437,0.437
			c-0.201,1.324,0.134,2.585,0.813,3.732c0.138,0.233,0.44,0.374,0.706,0.287c2.299-0.748,3.313,1.449,3.209,3.397
			c0.153-0.201,0.306-0.402,0.459-0.603c-1.68,0.429-3.36,0.476-5.084,0.478c-0.806,0.001-0.806,1.251,0,1.25
			c1.838-0.002,3.628-0.066,5.416-0.522c0.279-0.071,0.444-0.327,0.459-0.603c0.149-2.788-1.747-5.593-4.791-4.603
			c0.235,0.096,0.471,0.191,0.706,0.287c-0.107-0.18-1.088-2.34-0.726-2.425c1.139-0.266,2.283-0.281,3.436-0.135
			C22.301,32.26,22.292,31.009,21.503,30.909L21.503,30.909z"/>
	</g>
</g>
<g>
	<g>
		<path fill="#010101" d="M24.919,32.137c1.82-0.268,4.601-0.116,4.09,2.417c-0.381,1.888-2.187,3.309-3.922,3.878
			c0.256,0.146,0.513,0.291,0.769,0.437c-0.139-0.95,0.009-1.018,0.803-0.641c0.546,0.259,1.06,0.592,1.577,0.903
			c0.929,0.559,1.91,1.198,3.018,1.279c0.805,0.059,0.799-1.192,0-1.25c-1.694-0.123-3.202-1.801-4.792-2.358
			c-1.72-0.602-1.994,1.147-1.81,2.399c0.048,0.327,0.474,0.533,0.769,0.437c2.47-0.809,4.73-2.895,4.912-5.612
			c0.21-3.155-3.511-3.421-5.744-3.093C23.792,31.048,24.131,32.253,24.919,32.137L24.919,32.137z"/>
	</g>
</g>
<g>
	<g>
		<path fill="#010101" d="M33.003,31.659c2,0,4,0,6,0c-0.201-0.264-0.402-0.527-0.603-0.791c-0.89,2.93-2.884,5.357-4.187,8.101
			c-0.344,0.724,0.734,1.359,1.079,0.631c1.352-2.847,3.389-5.356,4.313-8.399c0.119-0.391-0.204-0.791-0.603-0.791c-2,0-4,0-6,0
			C32.197,30.409,32.197,31.659,33.003,31.659L33.003,31.659z"/>
	</g>
</g>
<g>
	<g>
		<path fill="#010101" d="M34.503,23.159c1.25,0,2.5,0,3.75,0c0.806,0,0.806-1.25,0-1.25c-1.25,0-2.5,0-3.75,0
			C33.697,21.909,33.697,23.159,34.503,23.159L34.503,23.159z"/>
	</g>
</g>
</svg>
