<?xml version="1.0" encoding="utf-8"?>
<!-- Generator: Adobe Illustrator 16.0.0, SVG Export Plug-In . SVG Version: 6.00 Build 0)  -->
<!DOCTYPE svg PUBLIC "-//W3C//DTD SVG 1.1//EN" "http://www.w3.org/Graphics/SVG/1.1/DTD/svg11.dtd">
<svg version="1.1" id="Layer_1" xmlns="http://www.w3.org/2000/svg" xmlns:xlink="http://www.w3.org/1999/xlink" x="0px" y="0px"
	 width="48.333px" height="47px" viewBox="0 0 48.333 47" enable-background="new 0 0 48.333 47" xml:space="preserve">
<g>
	<g>
		<path d="M11.442,3.375c1.962,3.228,3.387,6.715,4.652,10.265c0.269,0.754,1.477,0.429,1.205-0.332
			c-1.3-3.648-2.761-7.246-4.778-10.563C12.103,2.057,11.022,2.685,11.442,3.375L11.442,3.375z"/>
	</g>
</g>
<g>
	<g>
		<path d="M16.094,13.503c-0.317,2.132-2.213,3.694-3.572,5.226c-0.533,0.601,0.348,1.488,0.884,0.885
			c1.495-1.685,3.544-3.429,3.894-5.778C17.417,13.047,16.212,12.708,16.094,13.503L16.094,13.503z"/>
	</g>
</g>
<g>
	<g>
		<path d="M12.142,19.368c0.011,3.529,3.163,5.846,5.714,7.809c4.015,3.088,7.826,6.904,12.82,8.314
			c0.777,0.22,1.106-0.986,0.332-1.205c-3.95-1.115-7.403-3.923-10.457-6.573c-2.562-2.224-7.147-4.468-7.16-8.345
			C13.39,18.562,12.14,18.562,12.142,19.368L12.142,19.368z"/>
	</g>
</g>
<g>
	<g>
		<path d="M31.285,35.331c1.699-1.711,3.31-3.504,4.912-5.305c0.533-0.601-0.348-1.487-0.885-0.885
			c-1.602,1.802-3.212,3.595-4.912,5.305C29.832,35.019,30.716,35.903,31.285,35.331L31.285,35.331z"/>
	</g>
</g>
<g>
	<g>
		<path d="M46.329,34.889c0,1.179,0,2.357,0,3.536c0,0.806,1.25,0.806,1.25,0c0-1.179,0-2.357,0-3.536
			C47.579,34.083,46.329,34.083,46.329,34.889L46.329,34.889z"/>
	</g>
</g>
<g>
	<g>
		<path d="M46.329,38.622c-0.297,7.403-15.486,5.678-19.887,3.587c-0.724-0.344-1.358,0.734-0.631,1.08
			c5.266,2.502,21.413,4.159,21.768-4.667C47.611,37.815,46.361,37.818,46.329,38.622L46.329,38.622z"/>
	</g>
</g>
<g>
	<g>
		<path d="M6.165,2.52C-0.783,7.845-0.759,17.049,4.09,23.847c0.463,0.65,1.548,0.027,1.079-0.631
			C0.772,17.051,0.347,8.542,6.796,3.6C7.426,3.116,6.805,2.029,6.165,2.52L6.165,2.52z"/>
	</g>
</g>
<g>
	<g>
		<path d="M6.833,3.291c1.427-0.167,2.844-0.429,4.185,0.249c0.717,0.362,1.351-0.716,0.631-1.08
			c-1.576-0.796-3.121-0.617-4.815-0.419C6.043,2.134,6.034,3.385,6.833,3.291L6.833,3.291z"/>
	</g>
</g>
<g>
	<g>
		<path d="M36.167,29.936c3.62,0.786,7.271,2.36,10.058,4.84c0.601,0.533,1.488-0.348,0.885-0.885
			c-2.944-2.618-6.779-4.329-10.61-5.16C35.713,28.56,35.379,29.765,36.167,29.936L36.167,29.936z"/>
	</g>
</g>
<g>
	<g>
		<path d="M6.269,25.001c-0.212-0.542-0.585-0.92-0.896-1.399c-0.437-0.673-1.52-0.048-1.079,0.631
			c0.239,0.368,0.608,0.688,0.771,1.101C5.355,26.074,6.564,25.752,6.269,25.001L6.269,25.001z"/>
	</g>
</g>
<g>
	<g>
		<path d="M5.391,25.817c3.004,3.839,6.055,7.547,9.75,10.75c2.871,2.487,6.878,5.693,10.526,6.785
			c0.774,0.231,1.103-0.975,0.332-1.205c-3.741-1.12-8.117-4.854-11.004-7.357c-3.319-2.876-6.026-6.415-8.72-9.857
			C5.778,24.299,4.9,25.19,5.391,25.817L5.391,25.817z"/>
	</g>
</g>
</svg>
